G04 #@! TF.GenerationSoftware,KiCad,Pcbnew,(6.0.7)*
G04 #@! TF.CreationDate,2024-02-28T00:28:35-05:00*
G04 #@! TF.ProjectId,DBA,4442412e-6b69-4636-9164-5f7063625858,rev?*
G04 #@! TF.SameCoordinates,Original*
G04 #@! TF.FileFunction,Copper,L2,Bot*
G04 #@! TF.FilePolarity,Positive*
%FSLAX46Y46*%
G04 Gerber Fmt 4.6, Leading zero omitted, Abs format (unit mm)*
G04 Created by KiCad (PCBNEW (6.0.7)) date 2024-02-28 00:28:35*
%MOMM*%
%LPD*%
G01*
G04 APERTURE LIST*
G04 #@! TA.AperFunction,ComponentPad*
%ADD10R,1.050000X1.500000*%
G04 #@! TD*
G04 #@! TA.AperFunction,ComponentPad*
%ADD11O,1.050000X1.500000*%
G04 #@! TD*
G04 #@! TA.AperFunction,ComponentPad*
%ADD12R,1.600000X1.600000*%
G04 #@! TD*
G04 #@! TA.AperFunction,ComponentPad*
%ADD13O,1.600000X1.600000*%
G04 #@! TD*
G04 #@! TA.AperFunction,ComponentPad*
%ADD14C,1.600000*%
G04 #@! TD*
G04 #@! TA.AperFunction,ComponentPad*
%ADD15R,1.700000X1.700000*%
G04 #@! TD*
G04 #@! TA.AperFunction,ComponentPad*
%ADD16O,1.700000X1.700000*%
G04 #@! TD*
G04 #@! TA.AperFunction,SMDPad,CuDef*
%ADD17R,7.340000X6.350000*%
G04 #@! TD*
G04 #@! TA.AperFunction,Conductor*
%ADD18C,0.250000*%
G04 #@! TD*
G04 APERTURE END LIST*
D10*
G04 #@! TO.P,U2,1,GND*
G04 #@! TO.N,GND*
X104140000Y-93980000D03*
D11*
G04 #@! TO.P,U2,2,VI*
G04 #@! TO.N,Net-(J4-Pad1)*
X105410000Y-93980000D03*
G04 #@! TO.P,U2,3,VO*
G04 #@! TO.N,Net-(C1-Pad2)*
X106680000Y-93980000D03*
G04 #@! TD*
D12*
G04 #@! TO.P,U1,1,3v3*
G04 #@! TO.N,Net-(C1-Pad2)*
X113090000Y-123880000D03*
D13*
G04 #@! TO.P,U1,2,En*
G04 #@! TO.N,unconnected-(U1-Pad2)*
X115630000Y-123880000D03*
G04 #@! TO.P,U1,3,SVP*
G04 #@! TO.N,unconnected-(U1-Pad3)*
X118170000Y-123880000D03*
G04 #@! TO.P,U1,4,Svn*
G04 #@! TO.N,unconnected-(U1-Pad4)*
X120710000Y-123880000D03*
G04 #@! TO.P,U1,5,IO34*
G04 #@! TO.N,unconnected-(U1-Pad5)*
X123250000Y-123880000D03*
G04 #@! TO.P,U1,6,IO35*
G04 #@! TO.N,unconnected-(U1-Pad6)*
X125790000Y-123880000D03*
G04 #@! TO.P,U1,7,IO32*
G04 #@! TO.N,unconnected-(U1-Pad7)*
X128330000Y-123880000D03*
G04 #@! TO.P,U1,8,IO33*
G04 #@! TO.N,unconnected-(U1-Pad8)*
X130870000Y-123880000D03*
G04 #@! TO.P,U1,9,IO25*
G04 #@! TO.N,Net-(MK2-Pad4)*
X133410000Y-123880000D03*
G04 #@! TO.P,U1,10,IO26*
G04 #@! TO.N,Net-(MK1-Pad4)*
X135950000Y-123880000D03*
G04 #@! TO.P,U1,11,IO27*
G04 #@! TO.N,unconnected-(U1-Pad11)*
X138490000Y-123880000D03*
G04 #@! TO.P,U1,12,IO14*
G04 #@! TO.N,unconnected-(U1-Pad12)*
X141030000Y-123880000D03*
G04 #@! TO.P,U1,13,IO12*
G04 #@! TO.N,unconnected-(U1-Pad13)*
X143570000Y-123880000D03*
G04 #@! TO.P,U1,14,GND*
G04 #@! TO.N,GND*
X146110000Y-123880000D03*
G04 #@! TO.P,U1,15,IO13*
G04 #@! TO.N,unconnected-(U1-Pad15)*
X148650000Y-123880000D03*
G04 #@! TO.P,U1,16,SD2*
G04 #@! TO.N,unconnected-(U1-Pad16)*
X151190000Y-123880000D03*
G04 #@! TO.P,U1,17,SD3*
G04 #@! TO.N,unconnected-(U1-Pad17)*
X153730000Y-123880000D03*
G04 #@! TO.P,U1,18,CMD*
G04 #@! TO.N,unconnected-(U1-Pad18)*
X156270000Y-123880000D03*
G04 #@! TO.P,U1,19,5V*
G04 #@! TO.N,unconnected-(U1-Pad19)*
X158810000Y-123880000D03*
G04 #@! TO.P,U1,20,CLK*
G04 #@! TO.N,unconnected-(U1-Pad20)*
X158810000Y-101020000D03*
G04 #@! TO.P,U1,21,SD0*
G04 #@! TO.N,unconnected-(U1-Pad21)*
X156270000Y-101020000D03*
G04 #@! TO.P,U1,22,SD1*
G04 #@! TO.N,unconnected-(U1-Pad22)*
X153730000Y-101020000D03*
G04 #@! TO.P,U1,23,IO15*
G04 #@! TO.N,unconnected-(U1-Pad23)*
X151190000Y-101020000D03*
G04 #@! TO.P,U1,24,IO2*
G04 #@! TO.N,unconnected-(U1-Pad24)*
X148650000Y-101020000D03*
G04 #@! TO.P,U1,25,IO0*
G04 #@! TO.N,unconnected-(U1-Pad25)*
X146110000Y-101020000D03*
G04 #@! TO.P,U1,26,IO4*
G04 #@! TO.N,unconnected-(U1-Pad26)*
X143570000Y-101020000D03*
G04 #@! TO.P,U1,27,IO16*
G04 #@! TO.N,unconnected-(U1-Pad27)*
X141030000Y-101020000D03*
G04 #@! TO.P,U1,28,IO17*
G04 #@! TO.N,unconnected-(U1-Pad28)*
X138490000Y-101020000D03*
G04 #@! TO.P,U1,29,IO5*
G04 #@! TO.N,unconnected-(U1-Pad29)*
X135950000Y-101020000D03*
G04 #@! TO.P,U1,30,IO18*
G04 #@! TO.N,unconnected-(U1-Pad30)*
X133410000Y-101020000D03*
G04 #@! TO.P,U1,31,IO19*
G04 #@! TO.N,unconnected-(U1-Pad31)*
X130870000Y-101020000D03*
G04 #@! TO.P,U1,32,GND*
G04 #@! TO.N,GND*
X128330000Y-101020000D03*
G04 #@! TO.P,U1,33,IO21*
G04 #@! TO.N,unconnected-(U1-Pad33)*
X125790000Y-101020000D03*
G04 #@! TO.P,U1,34,RxD0*
G04 #@! TO.N,unconnected-(U1-Pad34)*
X123250000Y-101020000D03*
G04 #@! TO.P,U1,35,TxD0*
G04 #@! TO.N,unconnected-(U1-Pad35)*
X120710000Y-101020000D03*
G04 #@! TO.P,U1,36,IO22*
G04 #@! TO.N,Net-(MK1-Pad3)*
X118170000Y-101020000D03*
G04 #@! TO.P,U1,37,IO23*
G04 #@! TO.N,Net-(MK1-Pad2)*
X115630000Y-101020000D03*
G04 #@! TO.P,U1,38,GND*
G04 #@! TO.N,GND*
X113090000Y-101020000D03*
G04 #@! TD*
D12*
G04 #@! TO.P,C2,1*
G04 #@! TO.N,Net-(C1-Pad2)*
X106680000Y-116840000D03*
D14*
G04 #@! TO.P,C2,2*
G04 #@! TO.N,GND*
X104180000Y-116840000D03*
G04 #@! TD*
D15*
G04 #@! TO.P,J4,1,Pin_1*
G04 #@! TO.N,Net-(J4-Pad1)*
X124460000Y-83820000D03*
G04 #@! TD*
D14*
G04 #@! TO.P,C1,1*
G04 #@! TO.N,GND*
X104140000Y-101600000D03*
G04 #@! TO.P,C1,2*
G04 #@! TO.N,Net-(C1-Pad2)*
X106640000Y-101600000D03*
G04 #@! TD*
D15*
G04 #@! TO.P,MK2,1,GND*
G04 #@! TO.N,GND*
X98298000Y-109728000D03*
D16*
G04 #@! TO.P,MK2,2,VCC*
G04 #@! TO.N,Net-(C1-Pad2)*
X100838000Y-109728000D03*
G04 #@! TO.P,MK2,3,NC*
G04 #@! TO.N,unconnected-(MK2-Pad3)*
X103378000Y-109728000D03*
G04 #@! TO.P,MK2,4,SIG*
G04 #@! TO.N,Net-(MK2-Pad4)*
X105918000Y-109728000D03*
G04 #@! TD*
D15*
G04 #@! TO.P,MK1,1,L/R*
G04 #@! TO.N,GND*
X157480000Y-87630000D03*
D16*
G04 #@! TO.P,MK1,2,WS*
G04 #@! TO.N,Net-(MK1-Pad2)*
X160020000Y-87630000D03*
G04 #@! TO.P,MK1,3,SCK*
G04 #@! TO.N,Net-(MK1-Pad3)*
X162560000Y-87630000D03*
G04 #@! TO.P,MK1,4,SD*
G04 #@! TO.N,Net-(MK1-Pad4)*
X162560000Y-80010000D03*
G04 #@! TO.P,MK1,5,VDD*
G04 #@! TO.N,Net-(C1-Pad2)*
X160020000Y-80010000D03*
G04 #@! TO.P,MK1,6,GND*
G04 #@! TO.N,GND*
X157480000Y-80010000D03*
G04 #@! TD*
D15*
G04 #@! TO.P,J5,1,Pin_1*
G04 #@! TO.N,GND*
X144780000Y-83820000D03*
G04 #@! TD*
D17*
G04 #@! TO.P,BT1,1,+*
G04 #@! TO.N,unconnected-(BT1-Pad1)*
X126238000Y-91440000D03*
G04 #@! TO.P,BT1,2,-*
G04 #@! TO.N,unconnected-(BT1-Pad2)*
X142240000Y-91440000D03*
G04 #@! TD*
D18*
G04 #@! TO.N,GND*
X157480000Y-80010000D02*
X157480000Y-87630000D01*
G04 #@! TD*
M02*
