M48
INCH,TZ
T1C0.0295
T2C0.0300
T3C0.0315
T4C0.0394
%
G90
G05
T1
X41000Y-37000
X41500Y-37000
X42000Y-37000
T2
X50500Y-22000
X50500Y-30000
X51500Y-30000
X54500Y-30000
X55500Y-22000
X55500Y-30000
T3
X41000Y-40000
X41016Y-46000
X41984Y-40000
X42000Y-46000
X44524Y-39772
X44524Y-48772
X45524Y-39772
X45524Y-48772
X46524Y-39772
X46524Y-48772
X47524Y-39772
X47524Y-48772
X48524Y-39772
X48524Y-48772
X49524Y-39772
X49524Y-48772
X50524Y-39772
X50524Y-48772
X51524Y-39772
X51524Y-48772
X52524Y-39772
X52524Y-48772
X53524Y-39772
X53524Y-48772
X54524Y-39772
X54524Y-48772
X55524Y-39772
X55524Y-48772
X56524Y-39772
X56524Y-48772
X57524Y-39772
X57524Y-48772
X58524Y-39772
X58524Y-48772
X59524Y-39772
X59524Y-48772
X60524Y-39772
X60524Y-48772
X61524Y-39772
X61524Y-48772
X62524Y-39772
X62524Y-48772
T4
X38700Y-43200
X39700Y-43200
X40700Y-43200
X41700Y-43200
X49000Y-33000
X57000Y-33000
X62000Y-31500
X62000Y-34500
X63000Y-31500
X63000Y-34500
X64000Y-31500
X64000Y-34500
T0
M30
