G04 #@! TF.GenerationSoftware,KiCad,Pcbnew,(6.0.7)*
G04 #@! TF.CreationDate,2024-02-28T00:28:35-05:00*
G04 #@! TF.ProjectId,DBA,4442412e-6b69-4636-9164-5f7063625858,rev?*
G04 #@! TF.SameCoordinates,Original*
G04 #@! TF.FileFunction,Legend,Top*
G04 #@! TF.FilePolarity,Positive*
%FSLAX46Y46*%
G04 Gerber Fmt 4.6, Leading zero omitted, Abs format (unit mm)*
G04 Created by KiCad (PCBNEW (6.0.7)) date 2024-02-28 00:28:35*
%MOMM*%
%LPD*%
G01*
G04 APERTURE LIST*
%ADD10C,0.150000*%
%ADD11C,0.120000*%
%ADD12C,0.127000*%
%ADD13C,0.025400*%
%ADD14C,0.254000*%
G04 APERTURE END LIST*
D10*
G04 #@! TO.C,U2*
X104648095Y-89872380D02*
X104648095Y-90681904D01*
X104695714Y-90777142D01*
X104743333Y-90824761D01*
X104838571Y-90872380D01*
X105029047Y-90872380D01*
X105124285Y-90824761D01*
X105171904Y-90777142D01*
X105219523Y-90681904D01*
X105219523Y-89872380D01*
X105648095Y-89967619D02*
X105695714Y-89920000D01*
X105790952Y-89872380D01*
X106029047Y-89872380D01*
X106124285Y-89920000D01*
X106171904Y-89967619D01*
X106219523Y-90062857D01*
X106219523Y-90158095D01*
X106171904Y-90300952D01*
X105600476Y-90872380D01*
X106219523Y-90872380D01*
G04 #@! TO.C,U1*
X108672380Y-112521904D02*
X109481904Y-112521904D01*
X109577142Y-112474285D01*
X109624761Y-112426666D01*
X109672380Y-112331428D01*
X109672380Y-112140952D01*
X109624761Y-112045714D01*
X109577142Y-111998095D01*
X109481904Y-111950476D01*
X108672380Y-111950476D01*
X109672380Y-110950476D02*
X109672380Y-111521904D01*
X109672380Y-111236190D02*
X108672380Y-111236190D01*
X108815238Y-111331428D01*
X108910476Y-111426666D01*
X108958095Y-111521904D01*
X159472380Y-116521904D02*
X160281904Y-116521904D01*
X160377142Y-116474285D01*
X160424761Y-116426666D01*
X160472380Y-116331428D01*
X160472380Y-116140952D01*
X160424761Y-116045714D01*
X160377142Y-115998095D01*
X160281904Y-115950476D01*
X159472380Y-115950476D01*
X160424761Y-115521904D02*
X160472380Y-115379047D01*
X160472380Y-115140952D01*
X160424761Y-115045714D01*
X160377142Y-114998095D01*
X160281904Y-114950476D01*
X160186666Y-114950476D01*
X160091428Y-114998095D01*
X160043809Y-115045714D01*
X159996190Y-115140952D01*
X159948571Y-115331428D01*
X159900952Y-115426666D01*
X159853333Y-115474285D01*
X159758095Y-115521904D01*
X159662857Y-115521904D01*
X159567619Y-115474285D01*
X159520000Y-115426666D01*
X159472380Y-115331428D01*
X159472380Y-115093333D01*
X159520000Y-114950476D01*
X159948571Y-114188571D02*
X159996190Y-114045714D01*
X160043809Y-113998095D01*
X160139047Y-113950476D01*
X160281904Y-113950476D01*
X160377142Y-113998095D01*
X160424761Y-114045714D01*
X160472380Y-114140952D01*
X160472380Y-114521904D01*
X159472380Y-114521904D01*
X159472380Y-114188571D01*
X159520000Y-114093333D01*
X159567619Y-114045714D01*
X159662857Y-113998095D01*
X159758095Y-113998095D01*
X159853333Y-114045714D01*
X159900952Y-114093333D01*
X159948571Y-114188571D01*
X159948571Y-114521904D01*
X159805714Y-112902857D02*
X159805714Y-112521904D01*
X159472380Y-112760000D02*
X160329523Y-112760000D01*
X160424761Y-112712380D01*
X160472380Y-112617142D01*
X160472380Y-112521904D01*
X160472380Y-112188571D02*
X159472380Y-112188571D01*
X160472380Y-111760000D02*
X159948571Y-111760000D01*
X159853333Y-111807619D01*
X159805714Y-111902857D01*
X159805714Y-112045714D01*
X159853333Y-112140952D01*
X159900952Y-112188571D01*
X160472380Y-111283809D02*
X159805714Y-111283809D01*
X159472380Y-111283809D02*
X159520000Y-111331428D01*
X159567619Y-111283809D01*
X159520000Y-111236190D01*
X159472380Y-111283809D01*
X159567619Y-111283809D01*
X160424761Y-110855238D02*
X160472380Y-110760000D01*
X160472380Y-110569523D01*
X160424761Y-110474285D01*
X160329523Y-110426666D01*
X160281904Y-110426666D01*
X160186666Y-110474285D01*
X160139047Y-110569523D01*
X160139047Y-110712380D01*
X160091428Y-110807619D01*
X159996190Y-110855238D01*
X159948571Y-110855238D01*
X159853333Y-110807619D01*
X159805714Y-110712380D01*
X159805714Y-110569523D01*
X159853333Y-110474285D01*
X159805714Y-109331428D02*
X160472380Y-109140952D01*
X159996190Y-108950476D01*
X160472380Y-108760000D01*
X159805714Y-108569523D01*
X160472380Y-107760000D02*
X159948571Y-107760000D01*
X159853333Y-107807619D01*
X159805714Y-107902857D01*
X159805714Y-108093333D01*
X159853333Y-108188571D01*
X160424761Y-107760000D02*
X160472380Y-107855238D01*
X160472380Y-108093333D01*
X160424761Y-108188571D01*
X160329523Y-108236190D01*
X160234285Y-108236190D01*
X160139047Y-108188571D01*
X160091428Y-108093333D01*
X160091428Y-107855238D01*
X160043809Y-107760000D01*
X159805714Y-107379047D02*
X160472380Y-107140952D01*
X159805714Y-106902857D02*
X160472380Y-107140952D01*
X160710476Y-107236190D01*
X160758095Y-107283809D01*
X160805714Y-107379047D01*
G04 #@! TO.C,C2*
X105263333Y-120947142D02*
X105215714Y-120994761D01*
X105072857Y-121042380D01*
X104977619Y-121042380D01*
X104834761Y-120994761D01*
X104739523Y-120899523D01*
X104691904Y-120804285D01*
X104644285Y-120613809D01*
X104644285Y-120470952D01*
X104691904Y-120280476D01*
X104739523Y-120185238D01*
X104834761Y-120090000D01*
X104977619Y-120042380D01*
X105072857Y-120042380D01*
X105215714Y-120090000D01*
X105263333Y-120137619D01*
X105644285Y-120137619D02*
X105691904Y-120090000D01*
X105787142Y-120042380D01*
X106025238Y-120042380D01*
X106120476Y-120090000D01*
X106168095Y-120137619D01*
X106215714Y-120232857D01*
X106215714Y-120328095D01*
X106168095Y-120470952D01*
X105596666Y-121042380D01*
X106215714Y-121042380D01*
G04 #@! TO.C,J4*
X124126666Y-80942380D02*
X124126666Y-81656666D01*
X124079047Y-81799523D01*
X123983809Y-81894761D01*
X123840952Y-81942380D01*
X123745714Y-81942380D01*
X125031428Y-81275714D02*
X125031428Y-81942380D01*
X124793333Y-80894761D02*
X124555238Y-81609047D01*
X125174285Y-81609047D01*
G04 #@! TO.C,C1*
X98893333Y-101957142D02*
X98845714Y-102004761D01*
X98702857Y-102052380D01*
X98607619Y-102052380D01*
X98464761Y-102004761D01*
X98369523Y-101909523D01*
X98321904Y-101814285D01*
X98274285Y-101623809D01*
X98274285Y-101480952D01*
X98321904Y-101290476D01*
X98369523Y-101195238D01*
X98464761Y-101100000D01*
X98607619Y-101052380D01*
X98702857Y-101052380D01*
X98845714Y-101100000D01*
X98893333Y-101147619D01*
X99845714Y-102052380D02*
X99274285Y-102052380D01*
X99560000Y-102052380D02*
X99560000Y-101052380D01*
X99464761Y-101195238D01*
X99369523Y-101290476D01*
X99274285Y-101338095D01*
G04 #@! TO.C,MK2*
X112334523Y-77863095D02*
X111064523Y-77863095D01*
X111971666Y-77439761D01*
X111064523Y-77016428D01*
X112334523Y-77016428D01*
X112334523Y-76411666D02*
X111064523Y-76411666D01*
X112334523Y-75685952D02*
X111608809Y-76230238D01*
X111064523Y-75685952D02*
X111790238Y-76411666D01*
X111185476Y-75202142D02*
X111125000Y-75141666D01*
X111064523Y-75020714D01*
X111064523Y-74718333D01*
X111125000Y-74597380D01*
X111185476Y-74536904D01*
X111306428Y-74476428D01*
X111427380Y-74476428D01*
X111608809Y-74536904D01*
X112334523Y-75262619D01*
X112334523Y-74476428D01*
G04 #@! TO.C,MK1*
X150312380Y-85129523D02*
X149312380Y-85129523D01*
X150026666Y-84796190D01*
X149312380Y-84462857D01*
X150312380Y-84462857D01*
X150312380Y-83986666D02*
X149312380Y-83986666D01*
X150312380Y-83415238D02*
X149740952Y-83843809D01*
X149312380Y-83415238D02*
X149883809Y-83986666D01*
X150312380Y-82462857D02*
X150312380Y-83034285D01*
X150312380Y-82748571D02*
X149312380Y-82748571D01*
X149455238Y-82843809D01*
X149550476Y-82939047D01*
X149598095Y-83034285D01*
G04 #@! TO.C,J5*
X144446666Y-80942380D02*
X144446666Y-81656666D01*
X144399047Y-81799523D01*
X144303809Y-81894761D01*
X144160952Y-81942380D01*
X144065714Y-81942380D01*
X145399047Y-80942380D02*
X144922857Y-80942380D01*
X144875238Y-81418571D01*
X144922857Y-81370952D01*
X145018095Y-81323333D01*
X145256190Y-81323333D01*
X145351428Y-81370952D01*
X145399047Y-81418571D01*
X145446666Y-81513809D01*
X145446666Y-81751904D01*
X145399047Y-81847142D01*
X145351428Y-81894761D01*
X145256190Y-81942380D01*
X145018095Y-81942380D01*
X144922857Y-81894761D01*
X144875238Y-81847142D01*
D11*
G04 #@! TO.C,U2*
X103610000Y-95830000D02*
X107210000Y-95830000D01*
X107248478Y-95818478D02*
G75*
G03*
X105410000Y-91380000I-1838478J1838478D01*
G01*
X105410000Y-91379999D02*
G75*
G03*
X103571522Y-95818478I0J-2600001D01*
G01*
G04 #@! TO.C,U1*
X161350000Y-122720000D02*
X161350000Y-102180000D01*
X161350000Y-102180000D02*
X111760000Y-102180000D01*
X111760000Y-102180000D02*
X111760000Y-111180000D01*
X111760000Y-113180000D02*
X111760000Y-122720000D01*
X111760000Y-122720000D02*
X161350000Y-122720000D01*
X111760000Y-113180000D02*
G75*
G03*
X111760000Y-111180000I0J1000000D01*
G01*
G04 #@! TO.C,C2*
X103469000Y-118539000D02*
X103469000Y-117880000D01*
X105230000Y-119413000D02*
X105230000Y-114267000D01*
X103989000Y-118989000D02*
X103989000Y-117880000D01*
X103229000Y-118223000D02*
X103229000Y-117880000D01*
X104269000Y-115800000D02*
X104269000Y-114530000D01*
X104910000Y-119368000D02*
X104910000Y-117880000D01*
X108234775Y-118315000D02*
X107734775Y-118315000D01*
X103509000Y-118583000D02*
X103509000Y-117880000D01*
X104549000Y-115800000D02*
X104549000Y-114412000D01*
X104790000Y-115800000D02*
X104790000Y-114339000D01*
X104229000Y-115800000D02*
X104229000Y-114550000D01*
X103589000Y-118666000D02*
X103589000Y-117880000D01*
X104309000Y-115800000D02*
X104309000Y-114511000D01*
X104149000Y-119087000D02*
X104149000Y-117880000D01*
X105030000Y-119390000D02*
X105030000Y-117880000D01*
X103509000Y-115800000D02*
X103509000Y-115097000D01*
X103029000Y-117851000D02*
X103029000Y-115829000D01*
X104669000Y-119308000D02*
X104669000Y-117880000D01*
X104349000Y-119188000D02*
X104349000Y-117880000D01*
X103349000Y-118394000D02*
X103349000Y-117880000D01*
X104389000Y-119205000D02*
X104389000Y-117880000D01*
X103389000Y-118445000D02*
X103389000Y-117880000D01*
X104189000Y-119108000D02*
X104189000Y-117880000D01*
X104429000Y-119222000D02*
X104429000Y-117880000D01*
X103589000Y-115800000D02*
X103589000Y-115014000D01*
X104709000Y-119320000D02*
X104709000Y-117880000D01*
X103269000Y-115800000D02*
X103269000Y-115397000D01*
X104509000Y-115800000D02*
X104509000Y-114426000D01*
X103629000Y-118704000D02*
X103629000Y-117880000D01*
X103789000Y-118844000D02*
X103789000Y-117880000D01*
X105190000Y-115800000D02*
X105190000Y-114271000D01*
X105270000Y-119416000D02*
X105270000Y-114264000D01*
X103429000Y-115800000D02*
X103429000Y-115187000D01*
X103629000Y-115800000D02*
X103629000Y-114976000D01*
X102989000Y-117755000D02*
X102989000Y-115925000D01*
X103869000Y-118905000D02*
X103869000Y-117880000D01*
X103909000Y-115800000D02*
X103909000Y-114745000D01*
X104349000Y-115800000D02*
X104349000Y-114492000D01*
X102949000Y-117645000D02*
X102949000Y-116035000D01*
X104990000Y-115800000D02*
X104990000Y-114297000D01*
X104069000Y-115800000D02*
X104069000Y-114640000D01*
X103229000Y-115800000D02*
X103229000Y-115457000D01*
X103389000Y-115800000D02*
X103389000Y-115235000D01*
X103309000Y-118340000D02*
X103309000Y-117880000D01*
X103869000Y-115800000D02*
X103869000Y-114775000D01*
X103309000Y-115800000D02*
X103309000Y-115340000D01*
X105310000Y-119418000D02*
X105310000Y-114262000D01*
X103749000Y-115800000D02*
X103749000Y-114869000D01*
X104990000Y-119383000D02*
X104990000Y-117880000D01*
X104629000Y-119295000D02*
X104629000Y-117880000D01*
X104629000Y-115800000D02*
X104629000Y-114385000D01*
X104589000Y-115800000D02*
X104589000Y-114398000D01*
X107984775Y-118565000D02*
X107984775Y-118065000D01*
X105430000Y-119420000D02*
X105430000Y-114260000D01*
X104870000Y-115800000D02*
X104870000Y-114320000D01*
X105110000Y-115800000D02*
X105110000Y-114279000D01*
X103549000Y-115800000D02*
X103549000Y-115055000D01*
X103349000Y-115800000D02*
X103349000Y-115286000D01*
X103789000Y-115800000D02*
X103789000Y-114836000D01*
X104589000Y-119282000D02*
X104589000Y-117880000D01*
X104309000Y-119169000D02*
X104309000Y-117880000D01*
X104509000Y-119254000D02*
X104509000Y-117880000D01*
X103269000Y-118283000D02*
X103269000Y-117880000D01*
X103549000Y-118625000D02*
X103549000Y-117880000D01*
X104029000Y-115800000D02*
X104029000Y-114665000D01*
X103669000Y-118741000D02*
X103669000Y-117880000D01*
X103949000Y-115800000D02*
X103949000Y-114718000D01*
X105110000Y-119401000D02*
X105110000Y-117880000D01*
X103989000Y-115800000D02*
X103989000Y-114691000D01*
X103949000Y-118962000D02*
X103949000Y-117880000D01*
X103069000Y-117938000D02*
X103069000Y-115742000D01*
X103709000Y-118777000D02*
X103709000Y-117880000D01*
X103109000Y-118018000D02*
X103109000Y-115662000D01*
X104029000Y-119015000D02*
X104029000Y-117880000D01*
X102829000Y-117124000D02*
X102829000Y-116556000D01*
X105030000Y-115800000D02*
X105030000Y-114290000D01*
X103709000Y-115800000D02*
X103709000Y-114903000D01*
X104950000Y-115800000D02*
X104950000Y-114304000D01*
X103189000Y-115800000D02*
X103189000Y-115521000D01*
X104109000Y-119064000D02*
X104109000Y-117880000D01*
X103909000Y-118935000D02*
X103909000Y-117880000D01*
X104790000Y-119341000D02*
X104790000Y-117880000D01*
X105390000Y-119420000D02*
X105390000Y-114260000D01*
X105150000Y-119405000D02*
X105150000Y-117880000D01*
X104469000Y-119238000D02*
X104469000Y-117880000D01*
X105070000Y-115800000D02*
X105070000Y-114284000D01*
X104830000Y-115800000D02*
X104830000Y-114329000D01*
X105190000Y-119409000D02*
X105190000Y-117880000D01*
X102869000Y-117358000D02*
X102869000Y-116322000D01*
X103189000Y-118159000D02*
X103189000Y-117880000D01*
X104549000Y-119268000D02*
X104549000Y-117880000D01*
X105350000Y-119419000D02*
X105350000Y-114261000D01*
X104469000Y-115800000D02*
X104469000Y-114442000D01*
X104269000Y-119150000D02*
X104269000Y-117880000D01*
X105150000Y-115800000D02*
X105150000Y-114275000D01*
X105070000Y-119396000D02*
X105070000Y-117880000D01*
X103669000Y-115800000D02*
X103669000Y-114939000D01*
X103749000Y-118811000D02*
X103749000Y-117880000D01*
X104189000Y-115800000D02*
X104189000Y-114572000D01*
X104109000Y-115800000D02*
X104109000Y-114616000D01*
X103149000Y-115800000D02*
X103149000Y-115589000D01*
X104669000Y-115800000D02*
X104669000Y-114372000D01*
X104830000Y-119351000D02*
X104830000Y-117880000D01*
X104750000Y-119331000D02*
X104750000Y-117880000D01*
X103829000Y-115800000D02*
X103829000Y-114805000D01*
X104910000Y-115800000D02*
X104910000Y-114312000D01*
X104870000Y-119360000D02*
X104870000Y-117880000D01*
X103149000Y-118091000D02*
X103149000Y-117880000D01*
X102909000Y-117517000D02*
X102909000Y-116163000D01*
X104069000Y-119040000D02*
X104069000Y-117880000D01*
X104389000Y-115800000D02*
X104389000Y-114475000D01*
X103429000Y-118493000D02*
X103429000Y-117880000D01*
X104229000Y-119130000D02*
X104229000Y-117880000D01*
X104750000Y-115800000D02*
X104750000Y-114349000D01*
X104149000Y-115800000D02*
X104149000Y-114593000D01*
X104709000Y-115800000D02*
X104709000Y-114360000D01*
X103829000Y-118875000D02*
X103829000Y-117880000D01*
X104950000Y-119376000D02*
X104950000Y-117880000D01*
X104429000Y-115800000D02*
X104429000Y-114458000D01*
X103469000Y-115800000D02*
X103469000Y-115141000D01*
X108050000Y-116840000D02*
G75*
G03*
X108050000Y-116840000I-2620000J0D01*
G01*
G04 #@! TO.C,J4*
X123130000Y-83820000D02*
X123130000Y-82490000D01*
X123130000Y-85150000D02*
X125790000Y-85150000D01*
X123130000Y-82490000D02*
X124460000Y-82490000D01*
X125790000Y-85090000D02*
X125790000Y-85150000D01*
X123130000Y-85090000D02*
X123130000Y-85150000D01*
X123130000Y-85090000D02*
X125790000Y-85090000D01*
G04 #@! TO.C,C1*
X108660000Y-101600000D02*
G75*
G03*
X108660000Y-101600000I-3270000J0D01*
G01*
D12*
G04 #@! TO.C,MK2*
X116760000Y-83530000D02*
X116760000Y-81530000D01*
D13*
X109060000Y-66200000D02*
X102560000Y-66200000D01*
D14*
X116760000Y-84730000D02*
X116760000Y-80330000D01*
D13*
X101760000Y-67000000D02*
X101760000Y-74100000D01*
X114460000Y-86200000D02*
X120960000Y-86200000D01*
X114460000Y-66200000D02*
X120960000Y-66200000D01*
D14*
X106760000Y-84030000D02*
X106760000Y-81030000D01*
D11*
X96968000Y-111058000D02*
X96968000Y-109728000D01*
D13*
X121760000Y-85400000D02*
X121760000Y-78300000D01*
D14*
X114960000Y-79730000D02*
X114960000Y-80330000D01*
D11*
X107248000Y-111058000D02*
X107248000Y-108398000D01*
X99568000Y-111058000D02*
X107248000Y-111058000D01*
D13*
X101760000Y-85400000D02*
X101760000Y-78400000D01*
D14*
X114960000Y-80330000D02*
X108560000Y-80330000D01*
X116760000Y-84730000D02*
X106760000Y-84730000D01*
X108560000Y-79730000D02*
X106760000Y-79730000D01*
X116760000Y-79730000D02*
X114960000Y-79730000D01*
X108560000Y-80330000D02*
X106760000Y-80330000D01*
X106760000Y-79730000D02*
X106760000Y-80330000D01*
D13*
X109060000Y-86200000D02*
X102560000Y-86200000D01*
D11*
X99568000Y-111058000D02*
X99568000Y-108398000D01*
X98298000Y-111058000D02*
X96968000Y-111058000D01*
X99568000Y-108398000D02*
X107248000Y-108398000D01*
D14*
X106760000Y-80330000D02*
X106760000Y-84730000D01*
X116760000Y-80330000D02*
X114960000Y-80330000D01*
D13*
X121760000Y-67000000D02*
X121760000Y-74100000D01*
D14*
X116760000Y-80330000D02*
X116760000Y-79730000D01*
X108560000Y-80330000D02*
X108560000Y-79730000D01*
D13*
X114160000Y-85900000D02*
G75*
G03*
X109360000Y-85900000I-2400000J-301063D01*
G01*
X109360000Y-66500000D02*
G75*
G03*
X114160000Y-66500000I2400000J301063D01*
G01*
X101760000Y-85400000D02*
G75*
G03*
X102560000Y-86200000I800001J1D01*
G01*
X120960000Y-86200000D02*
G75*
G03*
X121760000Y-85400000I-1J800001D01*
G01*
X121959998Y-78100000D02*
G75*
G03*
X121960000Y-74300000I-199697J1900000D01*
G01*
X101460000Y-74300000D02*
G75*
G03*
X101460000Y-78100000I299231J-1900000D01*
G01*
D11*
G04 #@! TO.C,MK1*
X167204205Y-83820000D02*
G75*
G03*
X167204205Y-83820000I-7184205J0D01*
G01*
G04 #@! TO.C,J5*
X143450000Y-85150000D02*
X146110000Y-85150000D01*
X143450000Y-82490000D02*
X144780000Y-82490000D01*
X143450000Y-85090000D02*
X143450000Y-85150000D01*
X143450000Y-85090000D02*
X146110000Y-85090000D01*
X143450000Y-83820000D02*
X143450000Y-82490000D01*
X146110000Y-85090000D02*
X146110000Y-85150000D01*
G04 #@! TD*
M02*
