G04 #@! TF.GenerationSoftware,KiCad,Pcbnew,(6.0.7)*
G04 #@! TF.CreationDate,2024-02-28T00:28:35-05:00*
G04 #@! TF.ProjectId,DBA,4442412e-6b69-4636-9164-5f7063625858,rev?*
G04 #@! TF.SameCoordinates,Original*
G04 #@! TF.FileFunction,Copper,L1,Top*
G04 #@! TF.FilePolarity,Positive*
%FSLAX46Y46*%
G04 Gerber Fmt 4.6, Leading zero omitted, Abs format (unit mm)*
G04 Created by KiCad (PCBNEW (6.0.7)) date 2024-02-28 00:28:35*
%MOMM*%
%LPD*%
G01*
G04 APERTURE LIST*
G04 #@! TA.AperFunction,ComponentPad*
%ADD10R,1.050000X1.500000*%
G04 #@! TD*
G04 #@! TA.AperFunction,ComponentPad*
%ADD11O,1.050000X1.500000*%
G04 #@! TD*
G04 #@! TA.AperFunction,ComponentPad*
%ADD12R,1.600000X1.600000*%
G04 #@! TD*
G04 #@! TA.AperFunction,ComponentPad*
%ADD13O,1.600000X1.600000*%
G04 #@! TD*
G04 #@! TA.AperFunction,ComponentPad*
%ADD14C,1.600000*%
G04 #@! TD*
G04 #@! TA.AperFunction,ComponentPad*
%ADD15R,1.700000X1.700000*%
G04 #@! TD*
G04 #@! TA.AperFunction,ComponentPad*
%ADD16O,1.700000X1.700000*%
G04 #@! TD*
G04 #@! TA.AperFunction,Conductor*
%ADD17C,0.250000*%
G04 #@! TD*
G04 APERTURE END LIST*
D10*
G04 #@! TO.P,U2,1,GND*
G04 #@! TO.N,GND*
X104140000Y-93980000D03*
D11*
G04 #@! TO.P,U2,2,VI*
G04 #@! TO.N,Net-(J4-Pad1)*
X105410000Y-93980000D03*
G04 #@! TO.P,U2,3,VO*
G04 #@! TO.N,Net-(C1-Pad2)*
X106680000Y-93980000D03*
G04 #@! TD*
D12*
G04 #@! TO.P,U1,1,3v3*
G04 #@! TO.N,Net-(C1-Pad2)*
X113090000Y-123880000D03*
D13*
G04 #@! TO.P,U1,2,En*
G04 #@! TO.N,unconnected-(U1-Pad2)*
X115630000Y-123880000D03*
G04 #@! TO.P,U1,3,SVP*
G04 #@! TO.N,unconnected-(U1-Pad3)*
X118170000Y-123880000D03*
G04 #@! TO.P,U1,4,Svn*
G04 #@! TO.N,unconnected-(U1-Pad4)*
X120710000Y-123880000D03*
G04 #@! TO.P,U1,5,IO34*
G04 #@! TO.N,unconnected-(U1-Pad5)*
X123250000Y-123880000D03*
G04 #@! TO.P,U1,6,IO35*
G04 #@! TO.N,unconnected-(U1-Pad6)*
X125790000Y-123880000D03*
G04 #@! TO.P,U1,7,IO32*
G04 #@! TO.N,unconnected-(U1-Pad7)*
X128330000Y-123880000D03*
G04 #@! TO.P,U1,8,IO33*
G04 #@! TO.N,unconnected-(U1-Pad8)*
X130870000Y-123880000D03*
G04 #@! TO.P,U1,9,IO25*
G04 #@! TO.N,Net-(MK2-Pad4)*
X133410000Y-123880000D03*
G04 #@! TO.P,U1,10,IO26*
G04 #@! TO.N,Net-(MK1-Pad4)*
X135950000Y-123880000D03*
G04 #@! TO.P,U1,11,IO27*
G04 #@! TO.N,unconnected-(U1-Pad11)*
X138490000Y-123880000D03*
G04 #@! TO.P,U1,12,IO14*
G04 #@! TO.N,unconnected-(U1-Pad12)*
X141030000Y-123880000D03*
G04 #@! TO.P,U1,13,IO12*
G04 #@! TO.N,unconnected-(U1-Pad13)*
X143570000Y-123880000D03*
G04 #@! TO.P,U1,14,GND*
G04 #@! TO.N,GND*
X146110000Y-123880000D03*
G04 #@! TO.P,U1,15,IO13*
G04 #@! TO.N,unconnected-(U1-Pad15)*
X148650000Y-123880000D03*
G04 #@! TO.P,U1,16,SD2*
G04 #@! TO.N,unconnected-(U1-Pad16)*
X151190000Y-123880000D03*
G04 #@! TO.P,U1,17,SD3*
G04 #@! TO.N,unconnected-(U1-Pad17)*
X153730000Y-123880000D03*
G04 #@! TO.P,U1,18,CMD*
G04 #@! TO.N,unconnected-(U1-Pad18)*
X156270000Y-123880000D03*
G04 #@! TO.P,U1,19,5V*
G04 #@! TO.N,unconnected-(U1-Pad19)*
X158810000Y-123880000D03*
G04 #@! TO.P,U1,20,CLK*
G04 #@! TO.N,unconnected-(U1-Pad20)*
X158810000Y-101020000D03*
G04 #@! TO.P,U1,21,SD0*
G04 #@! TO.N,unconnected-(U1-Pad21)*
X156270000Y-101020000D03*
G04 #@! TO.P,U1,22,SD1*
G04 #@! TO.N,unconnected-(U1-Pad22)*
X153730000Y-101020000D03*
G04 #@! TO.P,U1,23,IO15*
G04 #@! TO.N,unconnected-(U1-Pad23)*
X151190000Y-101020000D03*
G04 #@! TO.P,U1,24,IO2*
G04 #@! TO.N,unconnected-(U1-Pad24)*
X148650000Y-101020000D03*
G04 #@! TO.P,U1,25,IO0*
G04 #@! TO.N,unconnected-(U1-Pad25)*
X146110000Y-101020000D03*
G04 #@! TO.P,U1,26,IO4*
G04 #@! TO.N,unconnected-(U1-Pad26)*
X143570000Y-101020000D03*
G04 #@! TO.P,U1,27,IO16*
G04 #@! TO.N,unconnected-(U1-Pad27)*
X141030000Y-101020000D03*
G04 #@! TO.P,U1,28,IO17*
G04 #@! TO.N,unconnected-(U1-Pad28)*
X138490000Y-101020000D03*
G04 #@! TO.P,U1,29,IO5*
G04 #@! TO.N,unconnected-(U1-Pad29)*
X135950000Y-101020000D03*
G04 #@! TO.P,U1,30,IO18*
G04 #@! TO.N,unconnected-(U1-Pad30)*
X133410000Y-101020000D03*
G04 #@! TO.P,U1,31,IO19*
G04 #@! TO.N,unconnected-(U1-Pad31)*
X130870000Y-101020000D03*
G04 #@! TO.P,U1,32,GND*
G04 #@! TO.N,GND*
X128330000Y-101020000D03*
G04 #@! TO.P,U1,33,IO21*
G04 #@! TO.N,unconnected-(U1-Pad33)*
X125790000Y-101020000D03*
G04 #@! TO.P,U1,34,RxD0*
G04 #@! TO.N,unconnected-(U1-Pad34)*
X123250000Y-101020000D03*
G04 #@! TO.P,U1,35,TxD0*
G04 #@! TO.N,unconnected-(U1-Pad35)*
X120710000Y-101020000D03*
G04 #@! TO.P,U1,36,IO22*
G04 #@! TO.N,Net-(MK1-Pad3)*
X118170000Y-101020000D03*
G04 #@! TO.P,U1,37,IO23*
G04 #@! TO.N,Net-(MK1-Pad2)*
X115630000Y-101020000D03*
G04 #@! TO.P,U1,38,GND*
G04 #@! TO.N,GND*
X113090000Y-101020000D03*
G04 #@! TD*
D12*
G04 #@! TO.P,C2,1*
G04 #@! TO.N,Net-(C1-Pad2)*
X106680000Y-116840000D03*
D14*
G04 #@! TO.P,C2,2*
G04 #@! TO.N,GND*
X104180000Y-116840000D03*
G04 #@! TD*
D15*
G04 #@! TO.P,J4,1,Pin_1*
G04 #@! TO.N,Net-(J4-Pad1)*
X124460000Y-83820000D03*
G04 #@! TD*
D14*
G04 #@! TO.P,C1,1*
G04 #@! TO.N,GND*
X104140000Y-101600000D03*
G04 #@! TO.P,C1,2*
G04 #@! TO.N,Net-(C1-Pad2)*
X106640000Y-101600000D03*
G04 #@! TD*
D15*
G04 #@! TO.P,MK2,1,GND*
G04 #@! TO.N,GND*
X98298000Y-109728000D03*
D16*
G04 #@! TO.P,MK2,2,VCC*
G04 #@! TO.N,Net-(C1-Pad2)*
X100838000Y-109728000D03*
G04 #@! TO.P,MK2,3,NC*
G04 #@! TO.N,unconnected-(MK2-Pad3)*
X103378000Y-109728000D03*
G04 #@! TO.P,MK2,4,SIG*
G04 #@! TO.N,Net-(MK2-Pad4)*
X105918000Y-109728000D03*
G04 #@! TD*
D15*
G04 #@! TO.P,MK1,1,L/R*
G04 #@! TO.N,GND*
X157480000Y-87630000D03*
D16*
G04 #@! TO.P,MK1,2,WS*
G04 #@! TO.N,Net-(MK1-Pad2)*
X160020000Y-87630000D03*
G04 #@! TO.P,MK1,3,SCK*
G04 #@! TO.N,Net-(MK1-Pad3)*
X162560000Y-87630000D03*
G04 #@! TO.P,MK1,4,SD*
G04 #@! TO.N,Net-(MK1-Pad4)*
X162560000Y-80010000D03*
G04 #@! TO.P,MK1,5,VDD*
G04 #@! TO.N,Net-(C1-Pad2)*
X160020000Y-80010000D03*
G04 #@! TO.P,MK1,6,GND*
G04 #@! TO.N,GND*
X157480000Y-80010000D03*
G04 #@! TD*
D15*
G04 #@! TO.P,J5,1,Pin_1*
G04 #@! TO.N,GND*
X144780000Y-83820000D03*
G04 #@! TD*
D17*
G04 #@! TO.N,Net-(MK1-Pad2)*
X149860000Y-97790000D02*
X118860000Y-97790000D01*
X118860000Y-97790000D02*
X115630000Y-101020000D01*
X160020000Y-87630000D02*
X149860000Y-97790000D01*
G04 #@! TO.N,Net-(MK1-Pad3)*
X120130000Y-99060000D02*
X118170000Y-101020000D01*
X151130000Y-99060000D02*
X120130000Y-99060000D01*
X162560000Y-87630000D02*
X151130000Y-99060000D01*
G04 #@! TO.N,Net-(MK1-Pad4)*
X160020000Y-119380000D02*
X140450000Y-119380000D01*
X140450000Y-119380000D02*
X135950000Y-123880000D01*
X170180000Y-87630000D02*
X170180000Y-109220000D01*
X162560000Y-80010000D02*
X170180000Y-87630000D01*
X170180000Y-109220000D02*
X160020000Y-119380000D01*
G04 #@! TO.N,Net-(MK2-Pad4)*
X133410000Y-123880000D02*
X119258000Y-109728000D01*
X119258000Y-109728000D02*
X105918000Y-109728000D01*
G04 #@! TO.N,Net-(C1-Pad2)*
X100838000Y-107442000D02*
X100838000Y-109728000D01*
X160020000Y-80010000D02*
X148590000Y-91440000D01*
X106680000Y-116840000D02*
X104140000Y-114300000D01*
X116840000Y-96520000D02*
X114300000Y-93980000D01*
X100838000Y-113538000D02*
X100838000Y-109728000D01*
X114300000Y-93980000D02*
X106680000Y-93980000D01*
X101600000Y-106680000D02*
X100838000Y-107442000D01*
X148590000Y-95250000D02*
X147320000Y-96520000D01*
X147320000Y-96520000D02*
X116840000Y-96520000D01*
X106680000Y-101560000D02*
X106640000Y-101600000D01*
X101600000Y-114300000D02*
X100838000Y-113538000D01*
X148590000Y-91440000D02*
X148590000Y-95250000D01*
X106680000Y-116840000D02*
X113090000Y-123250000D01*
X106680000Y-93980000D02*
X106680000Y-101560000D01*
X113090000Y-123250000D02*
X113090000Y-123880000D01*
X106640000Y-101600000D02*
X101600000Y-106640000D01*
X104140000Y-114300000D02*
X101600000Y-114300000D01*
X101600000Y-106640000D02*
X101600000Y-106680000D01*
G04 #@! TO.N,Net-(J4-Pad1)*
X119380000Y-88900000D02*
X109220000Y-88900000D01*
X124460000Y-83820000D02*
X119380000Y-88900000D01*
X109220000Y-88900000D02*
X105410000Y-92710000D01*
X105410000Y-92710000D02*
X105410000Y-93980000D01*
G04 #@! TD*
G04 #@! TA.AperFunction,Conductor*
G04 #@! TO.N,GND*
G36*
X133831187Y-52585808D02*
G01*
X134504141Y-52594618D01*
X134507828Y-52594720D01*
X135327648Y-52629797D01*
X135731363Y-52647071D01*
X135735095Y-52647286D01*
X136345808Y-52691598D01*
X136956532Y-52735911D01*
X136960232Y-52736235D01*
X137569361Y-52798645D01*
X138178478Y-52861054D01*
X138182191Y-52861490D01*
X138626143Y-52920332D01*
X139396219Y-53022398D01*
X139399873Y-53022938D01*
X140608625Y-53219795D01*
X140612289Y-53220449D01*
X140922584Y-53280483D01*
X141814627Y-53453071D01*
X141818286Y-53453836D01*
X143013142Y-53722013D01*
X143016777Y-53722885D01*
X143395957Y-53819889D01*
X144203230Y-54026411D01*
X144206789Y-54027377D01*
X145383717Y-54365967D01*
X145387293Y-54367054D01*
X146553651Y-54740408D01*
X146557158Y-54741589D01*
X147205380Y-54970500D01*
X147711866Y-55149359D01*
X147715372Y-55150656D01*
X148857550Y-55592532D01*
X148861016Y-55593932D01*
X149989530Y-56069474D01*
X149992953Y-56070977D01*
X151106843Y-56579781D01*
X151110220Y-56581384D01*
X152208565Y-57123028D01*
X152211893Y-57124731D01*
X153293674Y-57698713D01*
X153296950Y-57700514D01*
X154361218Y-58306331D01*
X154364438Y-58308227D01*
X155410288Y-58945366D01*
X155413414Y-58947334D01*
X155532142Y-59024584D01*
X156439937Y-59615240D01*
X156443020Y-59617312D01*
X157449292Y-60315388D01*
X157452260Y-60317514D01*
X158437313Y-61045085D01*
X158440276Y-61047341D01*
X158552047Y-61135139D01*
X159403350Y-61803846D01*
X159406255Y-61806199D01*
X160346405Y-62590893D01*
X160349240Y-62593331D01*
X161265729Y-63405600D01*
X161268489Y-63408120D01*
X162160473Y-64247214D01*
X162163158Y-64249816D01*
X163029855Y-65115002D01*
X163032461Y-65117682D01*
X163873095Y-66008182D01*
X163875611Y-66010927D01*
X164196683Y-66371924D01*
X164689502Y-66926025D01*
X164691939Y-66928850D01*
X165478305Y-67867668D01*
X165480609Y-67870502D01*
X165843503Y-68330830D01*
X166238795Y-68832255D01*
X166241066Y-68835225D01*
X166970372Y-69819030D01*
X166972553Y-69822066D01*
X167672336Y-70827048D01*
X167674417Y-70830134D01*
X168070293Y-71436248D01*
X168344081Y-71855438D01*
X168346067Y-71858579D01*
X168420874Y-71980892D01*
X168985037Y-72903330D01*
X168986940Y-72906548D01*
X169594614Y-73969756D01*
X169596421Y-73973029D01*
X170172283Y-75053792D01*
X170173992Y-75057116D01*
X170327908Y-75367858D01*
X170603305Y-75923858D01*
X170717566Y-76154541D01*
X170719168Y-76157902D01*
X171155692Y-77109156D01*
X171229916Y-77270903D01*
X171231414Y-77274298D01*
X171286738Y-77404950D01*
X171708953Y-78402046D01*
X171710359Y-78405510D01*
X172153277Y-79544470D01*
X172154204Y-79546855D01*
X172155502Y-79550344D01*
X172536977Y-80624616D01*
X172565296Y-80704366D01*
X172566489Y-80707889D01*
X172941878Y-81873593D01*
X172942967Y-81877156D01*
X172983016Y-82015455D01*
X173283608Y-83053480D01*
X173284594Y-83057086D01*
X173415304Y-83564329D01*
X173551308Y-84092115D01*
X173590176Y-84242951D01*
X173591052Y-84246573D01*
X173607554Y-84319501D01*
X173861326Y-85441009D01*
X173862097Y-85444667D01*
X174096815Y-86646590D01*
X174097477Y-86650269D01*
X174296434Y-87858613D01*
X174296987Y-87862311D01*
X174423055Y-88800896D01*
X174446367Y-88974452D01*
X174460015Y-89076066D01*
X174460457Y-89079774D01*
X174507949Y-89535453D01*
X174587398Y-90297760D01*
X174587731Y-90301483D01*
X174678489Y-91522787D01*
X174678710Y-91526519D01*
X174685134Y-91670762D01*
X174732556Y-92735548D01*
X174733195Y-92749902D01*
X174733305Y-92753618D01*
X174737376Y-93028013D01*
X174751475Y-93978342D01*
X174751481Y-93981640D01*
X174749860Y-94124518D01*
X174741658Y-94847604D01*
X174740863Y-94917656D01*
X174740783Y-94920918D01*
X174709958Y-95742000D01*
X174694832Y-96144898D01*
X174694637Y-96148625D01*
X174643248Y-96912247D01*
X174612407Y-97370534D01*
X174612100Y-97374260D01*
X174493666Y-98593097D01*
X174493250Y-98596812D01*
X174342002Y-99785716D01*
X174338699Y-99811676D01*
X174338173Y-99815368D01*
X174148457Y-101020000D01*
X174147658Y-101025071D01*
X174147026Y-101028731D01*
X173954184Y-102054225D01*
X173920694Y-102232319D01*
X173919949Y-102235978D01*
X173905700Y-102301058D01*
X173658032Y-103432219D01*
X173657179Y-103435859D01*
X173359865Y-104623899D01*
X173358903Y-104627511D01*
X173026501Y-105806123D01*
X173025433Y-105809706D01*
X172658206Y-106977954D01*
X172657033Y-106981503D01*
X172255293Y-108138392D01*
X172254014Y-108141905D01*
X172083314Y-108590098D01*
X171824419Y-109269858D01*
X171818153Y-109286309D01*
X171816778Y-109289766D01*
X171360811Y-110387857D01*
X171347132Y-110420799D01*
X171345652Y-110424219D01*
X171261293Y-110611489D01*
X170842670Y-111540797D01*
X170841084Y-111544182D01*
X170305218Y-112645309D01*
X170303533Y-112648646D01*
X169735209Y-113733442D01*
X169733425Y-113736727D01*
X169133182Y-114804163D01*
X169131301Y-114807394D01*
X169043337Y-114953502D01*
X168542068Y-115786109D01*
X168499675Y-115856523D01*
X168497715Y-115859673D01*
X168261713Y-116226579D01*
X167835199Y-116889669D01*
X167833130Y-116892783D01*
X167557860Y-117294053D01*
X167151303Y-117886705D01*
X167140370Y-117902642D01*
X167138224Y-117905673D01*
X166432698Y-118871420D01*
X166415813Y-118894533D01*
X166413576Y-118897501D01*
X166145573Y-119242388D01*
X165662149Y-119864492D01*
X165659812Y-119867410D01*
X164880018Y-120811695D01*
X164877595Y-120814542D01*
X164070139Y-121735270D01*
X164067633Y-121738043D01*
X163233234Y-122634393D01*
X163230646Y-122637092D01*
X163223067Y-122644764D01*
X162561305Y-123314661D01*
X162370011Y-123508306D01*
X162367351Y-123510920D01*
X162213808Y-123657393D01*
X161481241Y-124356227D01*
X161478498Y-124358767D01*
X161128297Y-124673537D01*
X160572009Y-125173543D01*
X160567703Y-125177413D01*
X160564893Y-125179864D01*
X159656653Y-125948746D01*
X159630221Y-125971122D01*
X159627340Y-125973489D01*
X159287154Y-126244570D01*
X158669595Y-126736679D01*
X158666637Y-126738965D01*
X157686707Y-127473381D01*
X157683691Y-127475573D01*
X156682300Y-128180670D01*
X156679264Y-128182739D01*
X155657455Y-128857778D01*
X155654360Y-128859758D01*
X155281544Y-129090463D01*
X154612969Y-129504189D01*
X154609761Y-129506109D01*
X153549749Y-130119341D01*
X153546486Y-130121165D01*
X152468725Y-130702694D01*
X152465409Y-130704420D01*
X151370886Y-131253712D01*
X151367520Y-131255339D01*
X150257209Y-131771906D01*
X150253797Y-131773433D01*
X150035537Y-131867205D01*
X149128557Y-132256875D01*
X149125142Y-132258281D01*
X148852710Y-132365870D01*
X147986145Y-132708092D01*
X147982648Y-132709414D01*
X146830772Y-133125251D01*
X146827245Y-133126466D01*
X146403266Y-133265453D01*
X145663523Y-133507953D01*
X145659953Y-133509064D01*
X144485494Y-133855840D01*
X144481894Y-133856846D01*
X144049150Y-133970778D01*
X143297592Y-134168646D01*
X143293991Y-134169538D01*
X142854234Y-134271468D01*
X142100984Y-134446062D01*
X142097330Y-134446852D01*
X140896647Y-134687862D01*
X140892971Y-134688543D01*
X140194785Y-134807259D01*
X139998332Y-134840663D01*
X139685690Y-134893823D01*
X139682000Y-134894394D01*
X138469130Y-135063774D01*
X138465430Y-135064234D01*
X137248080Y-135197556D01*
X137244376Y-135197906D01*
X136853328Y-135229025D01*
X136023590Y-135295055D01*
X136019860Y-135295296D01*
X134796777Y-135356185D01*
X134793041Y-135356316D01*
X134154158Y-135369141D01*
X133568618Y-135380895D01*
X133564897Y-135380914D01*
X132766761Y-135373252D01*
X132340353Y-135369159D01*
X132336615Y-135369068D01*
X132123997Y-135360714D01*
X131112905Y-135320989D01*
X131109221Y-135320789D01*
X130434340Y-135274189D01*
X129887470Y-135236427D01*
X129883745Y-135236114D01*
X129427858Y-135191012D01*
X128665049Y-135115546D01*
X128661401Y-135115131D01*
X127446753Y-134958454D01*
X127443097Y-134957926D01*
X126646049Y-134830973D01*
X126233749Y-134765302D01*
X126230066Y-134764660D01*
X125437137Y-134614118D01*
X125026890Y-134536230D01*
X125023245Y-134535482D01*
X123827416Y-134271467D01*
X123823783Y-134270608D01*
X122636274Y-133971224D01*
X122632720Y-133970272D01*
X121454627Y-133635795D01*
X121451096Y-133634736D01*
X120283432Y-133265452D01*
X120279889Y-133264273D01*
X119123710Y-132860518D01*
X119120245Y-132859250D01*
X117976566Y-132421376D01*
X117973099Y-132419990D01*
X116842902Y-131948377D01*
X116839474Y-131946886D01*
X115723828Y-131441979D01*
X115720446Y-131440388D01*
X114620175Y-130902562D01*
X114616866Y-130900883D01*
X113533084Y-130330678D01*
X113529868Y-130328925D01*
X112463404Y-129726777D01*
X112460209Y-129724909D01*
X111412146Y-129091429D01*
X111408988Y-129089456D01*
X110380165Y-128425155D01*
X110377071Y-128423091D01*
X110200164Y-128301278D01*
X109368406Y-127728556D01*
X109365370Y-127726398D01*
X108377770Y-127002260D01*
X108374842Y-127000047D01*
X107409138Y-126246912D01*
X107406225Y-126244570D01*
X106463319Y-125463143D01*
X106460476Y-125460715D01*
X105541159Y-124651652D01*
X105538390Y-124649141D01*
X104643481Y-123813165D01*
X104640787Y-123810572D01*
X104480738Y-123651913D01*
X104087868Y-123262457D01*
X103771076Y-122948417D01*
X103768461Y-122945746D01*
X102924741Y-122058203D01*
X102922205Y-122055456D01*
X102105134Y-121143215D01*
X102102682Y-121140394D01*
X101313062Y-120204349D01*
X101310694Y-120201456D01*
X100549182Y-119242388D01*
X100546901Y-119239426D01*
X99814181Y-118258195D01*
X99811989Y-118255167D01*
X99733021Y-118142598D01*
X99581119Y-117926062D01*
X103458493Y-117926062D01*
X103467789Y-117938077D01*
X103518994Y-117973931D01*
X103528489Y-117979414D01*
X103725947Y-118071490D01*
X103736239Y-118075236D01*
X103946688Y-118131625D01*
X103957481Y-118133528D01*
X104174525Y-118152517D01*
X104185475Y-118152517D01*
X104402519Y-118133528D01*
X104413312Y-118131625D01*
X104623761Y-118075236D01*
X104634053Y-118071490D01*
X104831511Y-117979414D01*
X104841006Y-117973931D01*
X104893048Y-117937491D01*
X104901424Y-117927012D01*
X104894356Y-117913566D01*
X104192812Y-117212022D01*
X104178868Y-117204408D01*
X104177035Y-117204539D01*
X104170420Y-117208790D01*
X103464923Y-117914287D01*
X103458493Y-117926062D01*
X99581119Y-117926062D01*
X99108676Y-117252595D01*
X99106591Y-117249526D01*
X99074264Y-117200405D01*
X98840675Y-116845475D01*
X102867483Y-116845475D01*
X102886472Y-117062519D01*
X102888375Y-117073312D01*
X102944764Y-117283761D01*
X102948510Y-117294053D01*
X103040586Y-117491511D01*
X103046069Y-117501006D01*
X103082509Y-117553048D01*
X103092988Y-117561424D01*
X103106434Y-117554356D01*
X103807978Y-116852812D01*
X103815592Y-116838868D01*
X103815461Y-116837035D01*
X103811210Y-116830420D01*
X103105713Y-116124923D01*
X103093938Y-116118493D01*
X103081923Y-116127789D01*
X103046069Y-116178994D01*
X103040586Y-116188489D01*
X102948510Y-116385947D01*
X102944764Y-116396239D01*
X102888375Y-116606688D01*
X102886472Y-116617481D01*
X102867483Y-116834525D01*
X102867483Y-116845475D01*
X98840675Y-116845475D01*
X98433362Y-116226579D01*
X98431353Y-116223426D01*
X97788751Y-115180931D01*
X97786837Y-115177720D01*
X97175447Y-114116624D01*
X97173629Y-114113357D01*
X96922238Y-113645497D01*
X96593988Y-113034594D01*
X96592298Y-113031334D01*
X96320069Y-112486519D01*
X96044897Y-111935811D01*
X96043276Y-111932443D01*
X95528628Y-110821190D01*
X95527108Y-110817775D01*
X95443687Y-110622669D01*
X96940001Y-110622669D01*
X96940371Y-110629490D01*
X96945895Y-110680352D01*
X96949521Y-110695604D01*
X96994676Y-110816054D01*
X97003214Y-110831649D01*
X97079715Y-110933724D01*
X97092276Y-110946285D01*
X97194351Y-111022786D01*
X97209946Y-111031324D01*
X97330394Y-111076478D01*
X97345649Y-111080105D01*
X97396514Y-111085631D01*
X97403328Y-111086000D01*
X98025885Y-111086000D01*
X98041124Y-111081525D01*
X98042329Y-111080135D01*
X98044000Y-111072452D01*
X98044000Y-111067884D01*
X98552000Y-111067884D01*
X98556475Y-111083123D01*
X98557865Y-111084328D01*
X98565548Y-111085999D01*
X99192669Y-111085999D01*
X99199490Y-111085629D01*
X99250352Y-111080105D01*
X99265604Y-111076479D01*
X99386054Y-111031324D01*
X99401649Y-111022786D01*
X99503724Y-110946285D01*
X99516285Y-110933724D01*
X99592786Y-110831649D01*
X99601324Y-110816054D01*
X99642225Y-110706952D01*
X99684867Y-110650188D01*
X99751428Y-110625488D01*
X99820777Y-110640696D01*
X99855444Y-110668684D01*
X99880865Y-110698031D01*
X99880869Y-110698035D01*
X99884250Y-110701938D01*
X100056126Y-110844632D01*
X100060593Y-110847242D01*
X100142070Y-110894853D01*
X100190794Y-110946491D01*
X100204500Y-111003641D01*
X100204500Y-113459233D01*
X100203973Y-113470416D01*
X100202298Y-113477909D01*
X100202547Y-113485835D01*
X100202547Y-113485836D01*
X100204438Y-113545986D01*
X100204500Y-113549945D01*
X100204500Y-113577856D01*
X100204997Y-113581790D01*
X100204997Y-113581791D01*
X100205005Y-113581856D01*
X100205938Y-113593693D01*
X100207327Y-113637889D01*
X100212978Y-113657339D01*
X100216987Y-113676700D01*
X100218109Y-113685577D01*
X100219526Y-113696797D01*
X100222445Y-113704168D01*
X100222445Y-113704170D01*
X100235804Y-113737912D01*
X100239649Y-113749142D01*
X100241421Y-113755242D01*
X100251982Y-113791593D01*
X100256015Y-113798412D01*
X100256017Y-113798417D01*
X100262293Y-113809028D01*
X100270988Y-113826776D01*
X100278448Y-113845617D01*
X100283110Y-113852033D01*
X100283110Y-113852034D01*
X100304436Y-113881387D01*
X100310952Y-113891307D01*
X100320675Y-113907747D01*
X100333458Y-113929362D01*
X100347779Y-113943683D01*
X100360619Y-113958716D01*
X100372528Y-113975107D01*
X100404413Y-114001484D01*
X100406593Y-114003288D01*
X100415374Y-114011278D01*
X101096353Y-114692258D01*
X101103887Y-114700537D01*
X101108000Y-114707018D01*
X101157651Y-114753643D01*
X101160493Y-114756398D01*
X101180230Y-114776135D01*
X101183427Y-114778615D01*
X101192447Y-114786318D01*
X101224679Y-114816586D01*
X101231625Y-114820405D01*
X101231628Y-114820407D01*
X101242434Y-114826348D01*
X101258953Y-114837199D01*
X101274959Y-114849614D01*
X101282228Y-114852759D01*
X101282232Y-114852762D01*
X101315537Y-114867174D01*
X101326187Y-114872391D01*
X101364940Y-114893695D01*
X101372615Y-114895666D01*
X101372616Y-114895666D01*
X101384562Y-114898733D01*
X101403267Y-114905137D01*
X101421855Y-114913181D01*
X101429678Y-114914420D01*
X101429688Y-114914423D01*
X101465524Y-114920099D01*
X101477144Y-114922505D01*
X101512289Y-114931528D01*
X101519970Y-114933500D01*
X101540224Y-114933500D01*
X101559934Y-114935051D01*
X101579943Y-114938220D01*
X101587835Y-114937474D01*
X101623961Y-114934059D01*
X101635819Y-114933500D01*
X103825406Y-114933500D01*
X103893527Y-114953502D01*
X103914501Y-114970405D01*
X104256615Y-115312519D01*
X104290641Y-115374831D01*
X104285576Y-115445646D01*
X104243029Y-115502482D01*
X104178502Y-115527135D01*
X103957480Y-115546472D01*
X103946688Y-115548375D01*
X103736239Y-115604764D01*
X103725947Y-115608510D01*
X103528489Y-115700586D01*
X103518994Y-115706069D01*
X103466952Y-115742509D01*
X103458576Y-115752988D01*
X103465644Y-115766434D01*
X105254287Y-117555077D01*
X105296029Y-117577871D01*
X105306029Y-117580047D01*
X105356227Y-117630253D01*
X105371451Y-117683814D01*
X105371500Y-117684719D01*
X105371500Y-117688134D01*
X105378255Y-117750316D01*
X105429385Y-117886705D01*
X105516739Y-118003261D01*
X105633295Y-118090615D01*
X105769684Y-118141745D01*
X105831866Y-118148500D01*
X107040406Y-118148500D01*
X107108527Y-118168502D01*
X107129501Y-118185405D01*
X111765118Y-122821023D01*
X111799144Y-122883335D01*
X111794004Y-122954348D01*
X111788255Y-122969684D01*
X111781500Y-123031866D01*
X111781500Y-124728134D01*
X111788255Y-124790316D01*
X111839385Y-124926705D01*
X111926739Y-125043261D01*
X112043295Y-125130615D01*
X112179684Y-125181745D01*
X112241866Y-125188500D01*
X113938134Y-125188500D01*
X114000316Y-125181745D01*
X114136705Y-125130615D01*
X114253261Y-125043261D01*
X114340615Y-124926705D01*
X114391745Y-124790316D01*
X114392917Y-124779526D01*
X114393803Y-124777394D01*
X114394425Y-124774778D01*
X114394848Y-124774879D01*
X114420155Y-124713965D01*
X114478517Y-124673537D01*
X114549471Y-124671078D01*
X114610490Y-124707371D01*
X114617489Y-124716031D01*
X114620643Y-124719789D01*
X114623802Y-124724300D01*
X114785700Y-124886198D01*
X114790208Y-124889355D01*
X114790211Y-124889357D01*
X114831542Y-124918297D01*
X114973251Y-125017523D01*
X114978233Y-125019846D01*
X114978238Y-125019849D01*
X115165865Y-125107340D01*
X115180757Y-125114284D01*
X115186065Y-125115706D01*
X115186067Y-125115707D01*
X115396598Y-125172119D01*
X115396600Y-125172119D01*
X115401913Y-125173543D01*
X115630000Y-125193498D01*
X115858087Y-125173543D01*
X115863400Y-125172119D01*
X115863402Y-125172119D01*
X116073933Y-125115707D01*
X116073935Y-125115706D01*
X116079243Y-125114284D01*
X116094135Y-125107340D01*
X116281762Y-125019849D01*
X116281767Y-125019846D01*
X116286749Y-125017523D01*
X116428458Y-124918297D01*
X116469789Y-124889357D01*
X116469792Y-124889355D01*
X116474300Y-124886198D01*
X116636198Y-124724300D01*
X116767523Y-124536749D01*
X116769846Y-124531767D01*
X116769849Y-124531762D01*
X116785805Y-124497543D01*
X116832722Y-124444258D01*
X116900999Y-124424797D01*
X116968959Y-124445339D01*
X117014195Y-124497543D01*
X117030151Y-124531762D01*
X117030154Y-124531767D01*
X117032477Y-124536749D01*
X117163802Y-124724300D01*
X117325700Y-124886198D01*
X117330208Y-124889355D01*
X117330211Y-124889357D01*
X117371542Y-124918297D01*
X117513251Y-125017523D01*
X117518233Y-125019846D01*
X117518238Y-125019849D01*
X117705865Y-125107340D01*
X117720757Y-125114284D01*
X117726065Y-125115706D01*
X117726067Y-125115707D01*
X117936598Y-125172119D01*
X117936600Y-125172119D01*
X117941913Y-125173543D01*
X118170000Y-125193498D01*
X118398087Y-125173543D01*
X118403400Y-125172119D01*
X118403402Y-125172119D01*
X118613933Y-125115707D01*
X118613935Y-125115706D01*
X118619243Y-125114284D01*
X118634135Y-125107340D01*
X118821762Y-125019849D01*
X118821767Y-125019846D01*
X118826749Y-125017523D01*
X118968458Y-124918297D01*
X119009789Y-124889357D01*
X119009792Y-124889355D01*
X119014300Y-124886198D01*
X119176198Y-124724300D01*
X119307523Y-124536749D01*
X119309846Y-124531767D01*
X119309849Y-124531762D01*
X119325805Y-124497543D01*
X119372722Y-124444258D01*
X119440999Y-124424797D01*
X119508959Y-124445339D01*
X119554195Y-124497543D01*
X119570151Y-124531762D01*
X119570154Y-124531767D01*
X119572477Y-124536749D01*
X119703802Y-124724300D01*
X119865700Y-124886198D01*
X119870208Y-124889355D01*
X119870211Y-124889357D01*
X119911542Y-124918297D01*
X120053251Y-125017523D01*
X120058233Y-125019846D01*
X120058238Y-125019849D01*
X120245865Y-125107340D01*
X120260757Y-125114284D01*
X120266065Y-125115706D01*
X120266067Y-125115707D01*
X120476598Y-125172119D01*
X120476600Y-125172119D01*
X120481913Y-125173543D01*
X120710000Y-125193498D01*
X120938087Y-125173543D01*
X120943400Y-125172119D01*
X120943402Y-125172119D01*
X121153933Y-125115707D01*
X121153935Y-125115706D01*
X121159243Y-125114284D01*
X121174135Y-125107340D01*
X121361762Y-125019849D01*
X121361767Y-125019846D01*
X121366749Y-125017523D01*
X121508458Y-124918297D01*
X121549789Y-124889357D01*
X121549792Y-124889355D01*
X121554300Y-124886198D01*
X121716198Y-124724300D01*
X121847523Y-124536749D01*
X121849846Y-124531767D01*
X121849849Y-124531762D01*
X121865805Y-124497543D01*
X121912722Y-124444258D01*
X121980999Y-124424797D01*
X122048959Y-124445339D01*
X122094195Y-124497543D01*
X122110151Y-124531762D01*
X122110154Y-124531767D01*
X122112477Y-124536749D01*
X122243802Y-124724300D01*
X122405700Y-124886198D01*
X122410208Y-124889355D01*
X122410211Y-124889357D01*
X122451542Y-124918297D01*
X122593251Y-125017523D01*
X122598233Y-125019846D01*
X122598238Y-125019849D01*
X122785865Y-125107340D01*
X122800757Y-125114284D01*
X122806065Y-125115706D01*
X122806067Y-125115707D01*
X123016598Y-125172119D01*
X123016600Y-125172119D01*
X123021913Y-125173543D01*
X123250000Y-125193498D01*
X123478087Y-125173543D01*
X123483400Y-125172119D01*
X123483402Y-125172119D01*
X123693933Y-125115707D01*
X123693935Y-125115706D01*
X123699243Y-125114284D01*
X123714135Y-125107340D01*
X123901762Y-125019849D01*
X123901767Y-125019846D01*
X123906749Y-125017523D01*
X124048458Y-124918297D01*
X124089789Y-124889357D01*
X124089792Y-124889355D01*
X124094300Y-124886198D01*
X124256198Y-124724300D01*
X124387523Y-124536749D01*
X124389846Y-124531767D01*
X124389849Y-124531762D01*
X124405805Y-124497543D01*
X124452722Y-124444258D01*
X124520999Y-124424797D01*
X124588959Y-124445339D01*
X124634195Y-124497543D01*
X124650151Y-124531762D01*
X124650154Y-124531767D01*
X124652477Y-124536749D01*
X124783802Y-124724300D01*
X124945700Y-124886198D01*
X124950208Y-124889355D01*
X124950211Y-124889357D01*
X124991542Y-124918297D01*
X125133251Y-125017523D01*
X125138233Y-125019846D01*
X125138238Y-125019849D01*
X125325865Y-125107340D01*
X125340757Y-125114284D01*
X125346065Y-125115706D01*
X125346067Y-125115707D01*
X125556598Y-125172119D01*
X125556600Y-125172119D01*
X125561913Y-125173543D01*
X125790000Y-125193498D01*
X126018087Y-125173543D01*
X126023400Y-125172119D01*
X126023402Y-125172119D01*
X126233933Y-125115707D01*
X126233935Y-125115706D01*
X126239243Y-125114284D01*
X126254135Y-125107340D01*
X126441762Y-125019849D01*
X126441767Y-125019846D01*
X126446749Y-125017523D01*
X126588458Y-124918297D01*
X126629789Y-124889357D01*
X126629792Y-124889355D01*
X126634300Y-124886198D01*
X126796198Y-124724300D01*
X126927523Y-124536749D01*
X126929846Y-124531767D01*
X126929849Y-124531762D01*
X126945805Y-124497543D01*
X126992722Y-124444258D01*
X127060999Y-124424797D01*
X127128959Y-124445339D01*
X127174195Y-124497543D01*
X127190151Y-124531762D01*
X127190154Y-124531767D01*
X127192477Y-124536749D01*
X127323802Y-124724300D01*
X127485700Y-124886198D01*
X127490208Y-124889355D01*
X127490211Y-124889357D01*
X127531542Y-124918297D01*
X127673251Y-125017523D01*
X127678233Y-125019846D01*
X127678238Y-125019849D01*
X127865865Y-125107340D01*
X127880757Y-125114284D01*
X127886065Y-125115706D01*
X127886067Y-125115707D01*
X128096598Y-125172119D01*
X128096600Y-125172119D01*
X128101913Y-125173543D01*
X128330000Y-125193498D01*
X128558087Y-125173543D01*
X128563400Y-125172119D01*
X128563402Y-125172119D01*
X128773933Y-125115707D01*
X128773935Y-125115706D01*
X128779243Y-125114284D01*
X128794135Y-125107340D01*
X128981762Y-125019849D01*
X128981767Y-125019846D01*
X128986749Y-125017523D01*
X129128458Y-124918297D01*
X129169789Y-124889357D01*
X129169792Y-124889355D01*
X129174300Y-124886198D01*
X129336198Y-124724300D01*
X129467523Y-124536749D01*
X129469846Y-124531767D01*
X129469849Y-124531762D01*
X129485805Y-124497543D01*
X129532722Y-124444258D01*
X129600999Y-124424797D01*
X129668959Y-124445339D01*
X129714195Y-124497543D01*
X129730151Y-124531762D01*
X129730154Y-124531767D01*
X129732477Y-124536749D01*
X129863802Y-124724300D01*
X130025700Y-124886198D01*
X130030208Y-124889355D01*
X130030211Y-124889357D01*
X130071542Y-124918297D01*
X130213251Y-125017523D01*
X130218233Y-125019846D01*
X130218238Y-125019849D01*
X130405865Y-125107340D01*
X130420757Y-125114284D01*
X130426065Y-125115706D01*
X130426067Y-125115707D01*
X130636598Y-125172119D01*
X130636600Y-125172119D01*
X130641913Y-125173543D01*
X130870000Y-125193498D01*
X131098087Y-125173543D01*
X131103400Y-125172119D01*
X131103402Y-125172119D01*
X131313933Y-125115707D01*
X131313935Y-125115706D01*
X131319243Y-125114284D01*
X131334135Y-125107340D01*
X131521762Y-125019849D01*
X131521767Y-125019846D01*
X131526749Y-125017523D01*
X131668458Y-124918297D01*
X131709789Y-124889357D01*
X131709792Y-124889355D01*
X131714300Y-124886198D01*
X131876198Y-124724300D01*
X132007523Y-124536749D01*
X132009846Y-124531767D01*
X132009849Y-124531762D01*
X132025805Y-124497543D01*
X132072722Y-124444258D01*
X132140999Y-124424797D01*
X132208959Y-124445339D01*
X132254195Y-124497543D01*
X132270151Y-124531762D01*
X132270154Y-124531767D01*
X132272477Y-124536749D01*
X132403802Y-124724300D01*
X132565700Y-124886198D01*
X132570208Y-124889355D01*
X132570211Y-124889357D01*
X132611542Y-124918297D01*
X132753251Y-125017523D01*
X132758233Y-125019846D01*
X132758238Y-125019849D01*
X132945865Y-125107340D01*
X132960757Y-125114284D01*
X132966065Y-125115706D01*
X132966067Y-125115707D01*
X133176598Y-125172119D01*
X133176600Y-125172119D01*
X133181913Y-125173543D01*
X133410000Y-125193498D01*
X133638087Y-125173543D01*
X133643400Y-125172119D01*
X133643402Y-125172119D01*
X133853933Y-125115707D01*
X133853935Y-125115706D01*
X133859243Y-125114284D01*
X133874135Y-125107340D01*
X134061762Y-125019849D01*
X134061767Y-125019846D01*
X134066749Y-125017523D01*
X134208458Y-124918297D01*
X134249789Y-124889357D01*
X134249792Y-124889355D01*
X134254300Y-124886198D01*
X134416198Y-124724300D01*
X134547523Y-124536749D01*
X134549846Y-124531767D01*
X134549849Y-124531762D01*
X134565805Y-124497543D01*
X134612722Y-124444258D01*
X134680999Y-124424797D01*
X134748959Y-124445339D01*
X134794195Y-124497543D01*
X134810151Y-124531762D01*
X134810154Y-124531767D01*
X134812477Y-124536749D01*
X134943802Y-124724300D01*
X135105700Y-124886198D01*
X135110208Y-124889355D01*
X135110211Y-124889357D01*
X135151542Y-124918297D01*
X135293251Y-125017523D01*
X135298233Y-125019846D01*
X135298238Y-125019849D01*
X135485865Y-125107340D01*
X135500757Y-125114284D01*
X135506065Y-125115706D01*
X135506067Y-125115707D01*
X135716598Y-125172119D01*
X135716600Y-125172119D01*
X135721913Y-125173543D01*
X135950000Y-125193498D01*
X136178087Y-125173543D01*
X136183400Y-125172119D01*
X136183402Y-125172119D01*
X136393933Y-125115707D01*
X136393935Y-125115706D01*
X136399243Y-125114284D01*
X136414135Y-125107340D01*
X136601762Y-125019849D01*
X136601767Y-125019846D01*
X136606749Y-125017523D01*
X136748458Y-124918297D01*
X136789789Y-124889357D01*
X136789792Y-124889355D01*
X136794300Y-124886198D01*
X136956198Y-124724300D01*
X137087523Y-124536749D01*
X137089846Y-124531767D01*
X137089849Y-124531762D01*
X137105805Y-124497543D01*
X137152722Y-124444258D01*
X137220999Y-124424797D01*
X137288959Y-124445339D01*
X137334195Y-124497543D01*
X137350151Y-124531762D01*
X137350154Y-124531767D01*
X137352477Y-124536749D01*
X137483802Y-124724300D01*
X137645700Y-124886198D01*
X137650208Y-124889355D01*
X137650211Y-124889357D01*
X137691542Y-124918297D01*
X137833251Y-125017523D01*
X137838233Y-125019846D01*
X137838238Y-125019849D01*
X138025865Y-125107340D01*
X138040757Y-125114284D01*
X138046065Y-125115706D01*
X138046067Y-125115707D01*
X138256598Y-125172119D01*
X138256600Y-125172119D01*
X138261913Y-125173543D01*
X138490000Y-125193498D01*
X138718087Y-125173543D01*
X138723400Y-125172119D01*
X138723402Y-125172119D01*
X138933933Y-125115707D01*
X138933935Y-125115706D01*
X138939243Y-125114284D01*
X138954135Y-125107340D01*
X139141762Y-125019849D01*
X139141767Y-125019846D01*
X139146749Y-125017523D01*
X139288458Y-124918297D01*
X139329789Y-124889357D01*
X139329792Y-124889355D01*
X139334300Y-124886198D01*
X139496198Y-124724300D01*
X139627523Y-124536749D01*
X139629846Y-124531767D01*
X139629849Y-124531762D01*
X139645805Y-124497543D01*
X139692722Y-124444258D01*
X139760999Y-124424797D01*
X139828959Y-124445339D01*
X139874195Y-124497543D01*
X139890151Y-124531762D01*
X139890154Y-124531767D01*
X139892477Y-124536749D01*
X140023802Y-124724300D01*
X140185700Y-124886198D01*
X140190208Y-124889355D01*
X140190211Y-124889357D01*
X140231542Y-124918297D01*
X140373251Y-125017523D01*
X140378233Y-125019846D01*
X140378238Y-125019849D01*
X140565865Y-125107340D01*
X140580757Y-125114284D01*
X140586065Y-125115706D01*
X140586067Y-125115707D01*
X140796598Y-125172119D01*
X140796600Y-125172119D01*
X140801913Y-125173543D01*
X141030000Y-125193498D01*
X141258087Y-125173543D01*
X141263400Y-125172119D01*
X141263402Y-125172119D01*
X141473933Y-125115707D01*
X141473935Y-125115706D01*
X141479243Y-125114284D01*
X141494135Y-125107340D01*
X141681762Y-125019849D01*
X141681767Y-125019846D01*
X141686749Y-125017523D01*
X141828458Y-124918297D01*
X141869789Y-124889357D01*
X141869792Y-124889355D01*
X141874300Y-124886198D01*
X142036198Y-124724300D01*
X142167523Y-124536749D01*
X142169846Y-124531767D01*
X142169849Y-124531762D01*
X142185805Y-124497543D01*
X142232722Y-124444258D01*
X142300999Y-124424797D01*
X142368959Y-124445339D01*
X142414195Y-124497543D01*
X142430151Y-124531762D01*
X142430154Y-124531767D01*
X142432477Y-124536749D01*
X142563802Y-124724300D01*
X142725700Y-124886198D01*
X142730208Y-124889355D01*
X142730211Y-124889357D01*
X142771542Y-124918297D01*
X142913251Y-125017523D01*
X142918233Y-125019846D01*
X142918238Y-125019849D01*
X143105865Y-125107340D01*
X143120757Y-125114284D01*
X143126065Y-125115706D01*
X143126067Y-125115707D01*
X143336598Y-125172119D01*
X143336600Y-125172119D01*
X143341913Y-125173543D01*
X143570000Y-125193498D01*
X143798087Y-125173543D01*
X143803400Y-125172119D01*
X143803402Y-125172119D01*
X144013933Y-125115707D01*
X144013935Y-125115706D01*
X144019243Y-125114284D01*
X144034135Y-125107340D01*
X144221762Y-125019849D01*
X144221767Y-125019846D01*
X144226749Y-125017523D01*
X144368458Y-124918297D01*
X144409789Y-124889357D01*
X144409792Y-124889355D01*
X144414300Y-124886198D01*
X144576198Y-124724300D01*
X144707523Y-124536749D01*
X144709846Y-124531767D01*
X144709849Y-124531762D01*
X144726081Y-124496951D01*
X144772998Y-124443666D01*
X144841275Y-124424205D01*
X144909235Y-124444747D01*
X144954471Y-124496951D01*
X144970586Y-124531511D01*
X144976069Y-124541007D01*
X145101028Y-124719467D01*
X145108084Y-124727875D01*
X145262125Y-124881916D01*
X145270533Y-124888972D01*
X145448993Y-125013931D01*
X145458489Y-125019414D01*
X145655947Y-125111490D01*
X145666239Y-125115236D01*
X145838503Y-125161394D01*
X145852599Y-125161058D01*
X145856000Y-125153116D01*
X145856000Y-125147967D01*
X146364000Y-125147967D01*
X146367973Y-125161498D01*
X146376522Y-125162727D01*
X146553761Y-125115236D01*
X146564053Y-125111490D01*
X146761511Y-125019414D01*
X146771007Y-125013931D01*
X146949467Y-124888972D01*
X146957875Y-124881916D01*
X147111916Y-124727875D01*
X147118972Y-124719467D01*
X147243931Y-124541007D01*
X147249414Y-124531511D01*
X147265529Y-124496951D01*
X147312446Y-124443666D01*
X147380723Y-124424205D01*
X147448683Y-124444747D01*
X147493919Y-124496951D01*
X147510151Y-124531762D01*
X147510154Y-124531767D01*
X147512477Y-124536749D01*
X147643802Y-124724300D01*
X147805700Y-124886198D01*
X147810208Y-124889355D01*
X147810211Y-124889357D01*
X147851542Y-124918297D01*
X147993251Y-125017523D01*
X147998233Y-125019846D01*
X147998238Y-125019849D01*
X148185865Y-125107340D01*
X148200757Y-125114284D01*
X148206065Y-125115706D01*
X148206067Y-125115707D01*
X148416598Y-125172119D01*
X148416600Y-125172119D01*
X148421913Y-125173543D01*
X148650000Y-125193498D01*
X148878087Y-125173543D01*
X148883400Y-125172119D01*
X148883402Y-125172119D01*
X149093933Y-125115707D01*
X149093935Y-125115706D01*
X149099243Y-125114284D01*
X149114135Y-125107340D01*
X149301762Y-125019849D01*
X149301767Y-125019846D01*
X149306749Y-125017523D01*
X149448458Y-124918297D01*
X149489789Y-124889357D01*
X149489792Y-124889355D01*
X149494300Y-124886198D01*
X149656198Y-124724300D01*
X149787523Y-124536749D01*
X149789846Y-124531767D01*
X149789849Y-124531762D01*
X149805805Y-124497543D01*
X149852722Y-124444258D01*
X149920999Y-124424797D01*
X149988959Y-124445339D01*
X150034195Y-124497543D01*
X150050151Y-124531762D01*
X150050154Y-124531767D01*
X150052477Y-124536749D01*
X150183802Y-124724300D01*
X150345700Y-124886198D01*
X150350208Y-124889355D01*
X150350211Y-124889357D01*
X150391542Y-124918297D01*
X150533251Y-125017523D01*
X150538233Y-125019846D01*
X150538238Y-125019849D01*
X150725865Y-125107340D01*
X150740757Y-125114284D01*
X150746065Y-125115706D01*
X150746067Y-125115707D01*
X150956598Y-125172119D01*
X150956600Y-125172119D01*
X150961913Y-125173543D01*
X151190000Y-125193498D01*
X151418087Y-125173543D01*
X151423400Y-125172119D01*
X151423402Y-125172119D01*
X151633933Y-125115707D01*
X151633935Y-125115706D01*
X151639243Y-125114284D01*
X151654135Y-125107340D01*
X151841762Y-125019849D01*
X151841767Y-125019846D01*
X151846749Y-125017523D01*
X151988458Y-124918297D01*
X152029789Y-124889357D01*
X152029792Y-124889355D01*
X152034300Y-124886198D01*
X152196198Y-124724300D01*
X152327523Y-124536749D01*
X152329846Y-124531767D01*
X152329849Y-124531762D01*
X152345805Y-124497543D01*
X152392722Y-124444258D01*
X152460999Y-124424797D01*
X152528959Y-124445339D01*
X152574195Y-124497543D01*
X152590151Y-124531762D01*
X152590154Y-124531767D01*
X152592477Y-124536749D01*
X152723802Y-124724300D01*
X152885700Y-124886198D01*
X152890208Y-124889355D01*
X152890211Y-124889357D01*
X152931542Y-124918297D01*
X153073251Y-125017523D01*
X153078233Y-125019846D01*
X153078238Y-125019849D01*
X153265865Y-125107340D01*
X153280757Y-125114284D01*
X153286065Y-125115706D01*
X153286067Y-125115707D01*
X153496598Y-125172119D01*
X153496600Y-125172119D01*
X153501913Y-125173543D01*
X153730000Y-125193498D01*
X153958087Y-125173543D01*
X153963400Y-125172119D01*
X153963402Y-125172119D01*
X154173933Y-125115707D01*
X154173935Y-125115706D01*
X154179243Y-125114284D01*
X154194135Y-125107340D01*
X154381762Y-125019849D01*
X154381767Y-125019846D01*
X154386749Y-125017523D01*
X154528458Y-124918297D01*
X154569789Y-124889357D01*
X154569792Y-124889355D01*
X154574300Y-124886198D01*
X154736198Y-124724300D01*
X154867523Y-124536749D01*
X154869846Y-124531767D01*
X154869849Y-124531762D01*
X154885805Y-124497543D01*
X154932722Y-124444258D01*
X155000999Y-124424797D01*
X155068959Y-124445339D01*
X155114195Y-124497543D01*
X155130151Y-124531762D01*
X155130154Y-124531767D01*
X155132477Y-124536749D01*
X155263802Y-124724300D01*
X155425700Y-124886198D01*
X155430208Y-124889355D01*
X155430211Y-124889357D01*
X155471542Y-124918297D01*
X155613251Y-125017523D01*
X155618233Y-125019846D01*
X155618238Y-125019849D01*
X155805865Y-125107340D01*
X155820757Y-125114284D01*
X155826065Y-125115706D01*
X155826067Y-125115707D01*
X156036598Y-125172119D01*
X156036600Y-125172119D01*
X156041913Y-125173543D01*
X156270000Y-125193498D01*
X156498087Y-125173543D01*
X156503400Y-125172119D01*
X156503402Y-125172119D01*
X156713933Y-125115707D01*
X156713935Y-125115706D01*
X156719243Y-125114284D01*
X156734135Y-125107340D01*
X156921762Y-125019849D01*
X156921767Y-125019846D01*
X156926749Y-125017523D01*
X157068458Y-124918297D01*
X157109789Y-124889357D01*
X157109792Y-124889355D01*
X157114300Y-124886198D01*
X157276198Y-124724300D01*
X157407523Y-124536749D01*
X157409846Y-124531767D01*
X157409849Y-124531762D01*
X157425805Y-124497543D01*
X157472722Y-124444258D01*
X157540999Y-124424797D01*
X157608959Y-124445339D01*
X157654195Y-124497543D01*
X157670151Y-124531762D01*
X157670154Y-124531767D01*
X157672477Y-124536749D01*
X157803802Y-124724300D01*
X157965700Y-124886198D01*
X157970208Y-124889355D01*
X157970211Y-124889357D01*
X158011542Y-124918297D01*
X158153251Y-125017523D01*
X158158233Y-125019846D01*
X158158238Y-125019849D01*
X158345865Y-125107340D01*
X158360757Y-125114284D01*
X158366065Y-125115706D01*
X158366067Y-125115707D01*
X158576598Y-125172119D01*
X158576600Y-125172119D01*
X158581913Y-125173543D01*
X158810000Y-125193498D01*
X159038087Y-125173543D01*
X159043400Y-125172119D01*
X159043402Y-125172119D01*
X159253933Y-125115707D01*
X159253935Y-125115706D01*
X159259243Y-125114284D01*
X159274135Y-125107340D01*
X159461762Y-125019849D01*
X159461767Y-125019846D01*
X159466749Y-125017523D01*
X159608458Y-124918297D01*
X159649789Y-124889357D01*
X159649792Y-124889355D01*
X159654300Y-124886198D01*
X159816198Y-124724300D01*
X159947523Y-124536749D01*
X159949846Y-124531767D01*
X159949849Y-124531762D01*
X160041961Y-124334225D01*
X160041961Y-124334224D01*
X160044284Y-124329243D01*
X160103543Y-124108087D01*
X160123498Y-123880000D01*
X160103543Y-123651913D01*
X160067712Y-123518192D01*
X160045707Y-123436067D01*
X160045706Y-123436065D01*
X160044284Y-123430757D01*
X160041500Y-123424787D01*
X159949849Y-123228238D01*
X159949846Y-123228233D01*
X159947523Y-123223251D01*
X159816198Y-123035700D01*
X159654300Y-122873802D01*
X159649792Y-122870645D01*
X159649789Y-122870643D01*
X159477294Y-122749861D01*
X159466749Y-122742477D01*
X159461767Y-122740154D01*
X159461762Y-122740151D01*
X159264225Y-122648039D01*
X159264224Y-122648039D01*
X159259243Y-122645716D01*
X159253935Y-122644294D01*
X159253933Y-122644293D01*
X159043402Y-122587881D01*
X159043400Y-122587881D01*
X159038087Y-122586457D01*
X158810000Y-122566502D01*
X158581913Y-122586457D01*
X158576600Y-122587881D01*
X158576598Y-122587881D01*
X158366067Y-122644293D01*
X158366065Y-122644294D01*
X158360757Y-122645716D01*
X158355776Y-122648039D01*
X158355775Y-122648039D01*
X158158238Y-122740151D01*
X158158233Y-122740154D01*
X158153251Y-122742477D01*
X158142706Y-122749861D01*
X157970211Y-122870643D01*
X157970208Y-122870645D01*
X157965700Y-122873802D01*
X157803802Y-123035700D01*
X157672477Y-123223251D01*
X157670154Y-123228233D01*
X157670151Y-123228238D01*
X157654195Y-123262457D01*
X157607278Y-123315742D01*
X157539001Y-123335203D01*
X157471041Y-123314661D01*
X157425805Y-123262457D01*
X157409849Y-123228238D01*
X157409846Y-123228233D01*
X157407523Y-123223251D01*
X157276198Y-123035700D01*
X157114300Y-122873802D01*
X157109792Y-122870645D01*
X157109789Y-122870643D01*
X156937294Y-122749861D01*
X156926749Y-122742477D01*
X156921767Y-122740154D01*
X156921762Y-122740151D01*
X156724225Y-122648039D01*
X156724224Y-122648039D01*
X156719243Y-122645716D01*
X156713935Y-122644294D01*
X156713933Y-122644293D01*
X156503402Y-122587881D01*
X156503400Y-122587881D01*
X156498087Y-122586457D01*
X156270000Y-122566502D01*
X156041913Y-122586457D01*
X156036600Y-122587881D01*
X156036598Y-122587881D01*
X155826067Y-122644293D01*
X155826065Y-122644294D01*
X155820757Y-122645716D01*
X155815776Y-122648039D01*
X155815775Y-122648039D01*
X155618238Y-122740151D01*
X155618233Y-122740154D01*
X155613251Y-122742477D01*
X155602706Y-122749861D01*
X155430211Y-122870643D01*
X155430208Y-122870645D01*
X155425700Y-122873802D01*
X155263802Y-123035700D01*
X155132477Y-123223251D01*
X155130154Y-123228233D01*
X155130151Y-123228238D01*
X155114195Y-123262457D01*
X155067278Y-123315742D01*
X154999001Y-123335203D01*
X154931041Y-123314661D01*
X154885805Y-123262457D01*
X154869849Y-123228238D01*
X154869846Y-123228233D01*
X154867523Y-123223251D01*
X154736198Y-123035700D01*
X154574300Y-122873802D01*
X154569792Y-122870645D01*
X154569789Y-122870643D01*
X154397294Y-122749861D01*
X154386749Y-122742477D01*
X154381767Y-122740154D01*
X154381762Y-122740151D01*
X154184225Y-122648039D01*
X154184224Y-122648039D01*
X154179243Y-122645716D01*
X154173935Y-122644294D01*
X154173933Y-122644293D01*
X153963402Y-122587881D01*
X153963400Y-122587881D01*
X153958087Y-122586457D01*
X153730000Y-122566502D01*
X153501913Y-122586457D01*
X153496600Y-122587881D01*
X153496598Y-122587881D01*
X153286067Y-122644293D01*
X153286065Y-122644294D01*
X153280757Y-122645716D01*
X153275776Y-122648039D01*
X153275775Y-122648039D01*
X153078238Y-122740151D01*
X153078233Y-122740154D01*
X153073251Y-122742477D01*
X153062706Y-122749861D01*
X152890211Y-122870643D01*
X152890208Y-122870645D01*
X152885700Y-122873802D01*
X152723802Y-123035700D01*
X152592477Y-123223251D01*
X152590154Y-123228233D01*
X152590151Y-123228238D01*
X152574195Y-123262457D01*
X152527278Y-123315742D01*
X152459001Y-123335203D01*
X152391041Y-123314661D01*
X152345805Y-123262457D01*
X152329849Y-123228238D01*
X152329846Y-123228233D01*
X152327523Y-123223251D01*
X152196198Y-123035700D01*
X152034300Y-122873802D01*
X152029792Y-122870645D01*
X152029789Y-122870643D01*
X151857294Y-122749861D01*
X151846749Y-122742477D01*
X151841767Y-122740154D01*
X151841762Y-122740151D01*
X151644225Y-122648039D01*
X151644224Y-122648039D01*
X151639243Y-122645716D01*
X151633935Y-122644294D01*
X151633933Y-122644293D01*
X151423402Y-122587881D01*
X151423400Y-122587881D01*
X151418087Y-122586457D01*
X151190000Y-122566502D01*
X150961913Y-122586457D01*
X150956600Y-122587881D01*
X150956598Y-122587881D01*
X150746067Y-122644293D01*
X150746065Y-122644294D01*
X150740757Y-122645716D01*
X150735776Y-122648039D01*
X150735775Y-122648039D01*
X150538238Y-122740151D01*
X150538233Y-122740154D01*
X150533251Y-122742477D01*
X150522706Y-122749861D01*
X150350211Y-122870643D01*
X150350208Y-122870645D01*
X150345700Y-122873802D01*
X150183802Y-123035700D01*
X150052477Y-123223251D01*
X150050154Y-123228233D01*
X150050151Y-123228238D01*
X150034195Y-123262457D01*
X149987278Y-123315742D01*
X149919001Y-123335203D01*
X149851041Y-123314661D01*
X149805805Y-123262457D01*
X149789849Y-123228238D01*
X149789846Y-123228233D01*
X149787523Y-123223251D01*
X149656198Y-123035700D01*
X149494300Y-122873802D01*
X149489792Y-122870645D01*
X149489789Y-122870643D01*
X149317294Y-122749861D01*
X149306749Y-122742477D01*
X149301767Y-122740154D01*
X149301762Y-122740151D01*
X149104225Y-122648039D01*
X149104224Y-122648039D01*
X149099243Y-122645716D01*
X149093935Y-122644294D01*
X149093933Y-122644293D01*
X148883402Y-122587881D01*
X148883400Y-122587881D01*
X148878087Y-122586457D01*
X148650000Y-122566502D01*
X148421913Y-122586457D01*
X148416600Y-122587881D01*
X148416598Y-122587881D01*
X148206067Y-122644293D01*
X148206065Y-122644294D01*
X148200757Y-122645716D01*
X148195776Y-122648039D01*
X148195775Y-122648039D01*
X147998238Y-122740151D01*
X147998233Y-122740154D01*
X147993251Y-122742477D01*
X147982706Y-122749861D01*
X147810211Y-122870643D01*
X147810208Y-122870645D01*
X147805700Y-122873802D01*
X147643802Y-123035700D01*
X147512477Y-123223251D01*
X147510154Y-123228233D01*
X147510151Y-123228238D01*
X147493919Y-123263049D01*
X147447002Y-123316334D01*
X147378725Y-123335795D01*
X147310765Y-123315253D01*
X147265529Y-123263049D01*
X147249414Y-123228489D01*
X147243931Y-123218993D01*
X147118972Y-123040533D01*
X147111916Y-123032125D01*
X146957875Y-122878084D01*
X146949467Y-122871028D01*
X146771007Y-122746069D01*
X146761511Y-122740586D01*
X146564053Y-122648510D01*
X146553761Y-122644764D01*
X146381497Y-122598606D01*
X146367401Y-122598942D01*
X146364000Y-122606884D01*
X146364000Y-125147967D01*
X145856000Y-125147967D01*
X145856000Y-122612033D01*
X145852027Y-122598502D01*
X145843478Y-122597273D01*
X145666239Y-122644764D01*
X145655947Y-122648510D01*
X145458489Y-122740586D01*
X145448993Y-122746069D01*
X145270533Y-122871028D01*
X145262125Y-122878084D01*
X145108084Y-123032125D01*
X145101028Y-123040533D01*
X144976069Y-123218993D01*
X144970586Y-123228489D01*
X144954471Y-123263049D01*
X144907554Y-123316334D01*
X144839277Y-123335795D01*
X144771317Y-123315253D01*
X144726081Y-123263049D01*
X144709849Y-123228238D01*
X144709846Y-123228233D01*
X144707523Y-123223251D01*
X144576198Y-123035700D01*
X144414300Y-122873802D01*
X144409792Y-122870645D01*
X144409789Y-122870643D01*
X144237294Y-122749861D01*
X144226749Y-122742477D01*
X144221767Y-122740154D01*
X144221762Y-122740151D01*
X144024225Y-122648039D01*
X144024224Y-122648039D01*
X144019243Y-122645716D01*
X144013935Y-122644294D01*
X144013933Y-122644293D01*
X143803402Y-122587881D01*
X143803400Y-122587881D01*
X143798087Y-122586457D01*
X143570000Y-122566502D01*
X143341913Y-122586457D01*
X143336600Y-122587881D01*
X143336598Y-122587881D01*
X143126067Y-122644293D01*
X143126065Y-122644294D01*
X143120757Y-122645716D01*
X143115776Y-122648039D01*
X143115775Y-122648039D01*
X142918238Y-122740151D01*
X142918233Y-122740154D01*
X142913251Y-122742477D01*
X142902706Y-122749861D01*
X142730211Y-122870643D01*
X142730208Y-122870645D01*
X142725700Y-122873802D01*
X142563802Y-123035700D01*
X142432477Y-123223251D01*
X142430154Y-123228233D01*
X142430151Y-123228238D01*
X142414195Y-123262457D01*
X142367278Y-123315742D01*
X142299001Y-123335203D01*
X142231041Y-123314661D01*
X142185805Y-123262457D01*
X142169849Y-123228238D01*
X142169846Y-123228233D01*
X142167523Y-123223251D01*
X142036198Y-123035700D01*
X141874300Y-122873802D01*
X141869792Y-122870645D01*
X141869789Y-122870643D01*
X141697294Y-122749861D01*
X141686749Y-122742477D01*
X141681767Y-122740154D01*
X141681762Y-122740151D01*
X141484225Y-122648039D01*
X141484224Y-122648039D01*
X141479243Y-122645716D01*
X141473935Y-122644294D01*
X141473933Y-122644293D01*
X141263402Y-122587881D01*
X141263400Y-122587881D01*
X141258087Y-122586457D01*
X141030000Y-122566502D01*
X140801913Y-122586457D01*
X140796600Y-122587881D01*
X140796598Y-122587881D01*
X140586067Y-122644293D01*
X140586065Y-122644294D01*
X140580757Y-122645716D01*
X140575776Y-122648039D01*
X140575775Y-122648039D01*
X140378238Y-122740151D01*
X140378233Y-122740154D01*
X140373251Y-122742477D01*
X140362706Y-122749861D01*
X140190211Y-122870643D01*
X140190208Y-122870645D01*
X140185700Y-122873802D01*
X140023802Y-123035700D01*
X139892477Y-123223251D01*
X139890154Y-123228233D01*
X139890151Y-123228238D01*
X139874195Y-123262457D01*
X139827278Y-123315742D01*
X139759001Y-123335203D01*
X139691041Y-123314661D01*
X139645805Y-123262457D01*
X139629849Y-123228238D01*
X139629846Y-123228233D01*
X139627523Y-123223251D01*
X139496198Y-123035700D01*
X139334300Y-122873802D01*
X139329792Y-122870645D01*
X139329789Y-122870643D01*
X139157294Y-122749861D01*
X139146749Y-122742477D01*
X139141767Y-122740154D01*
X139141762Y-122740151D01*
X138944225Y-122648039D01*
X138944224Y-122648039D01*
X138939243Y-122645716D01*
X138933935Y-122644294D01*
X138933933Y-122644293D01*
X138723402Y-122587881D01*
X138723400Y-122587881D01*
X138718087Y-122586457D01*
X138490000Y-122566502D01*
X138484525Y-122566981D01*
X138484514Y-122566981D01*
X138472570Y-122568026D01*
X138402965Y-122554038D01*
X138351973Y-122504639D01*
X138335782Y-122435513D01*
X138359534Y-122368607D01*
X138372493Y-122353411D01*
X140675500Y-120050405D01*
X140737812Y-120016379D01*
X140764595Y-120013500D01*
X159941233Y-120013500D01*
X159952416Y-120014027D01*
X159959909Y-120015702D01*
X159967835Y-120015453D01*
X159967836Y-120015453D01*
X160027986Y-120013562D01*
X160031945Y-120013500D01*
X160059856Y-120013500D01*
X160063791Y-120013003D01*
X160063856Y-120012995D01*
X160075693Y-120012062D01*
X160107951Y-120011048D01*
X160111970Y-120010922D01*
X160119889Y-120010673D01*
X160139343Y-120005021D01*
X160158700Y-120001013D01*
X160170930Y-119999468D01*
X160170931Y-119999468D01*
X160178797Y-119998474D01*
X160186168Y-119995555D01*
X160186170Y-119995555D01*
X160219912Y-119982196D01*
X160231142Y-119978351D01*
X160265983Y-119968229D01*
X160265984Y-119968229D01*
X160273593Y-119966018D01*
X160280412Y-119961985D01*
X160280417Y-119961983D01*
X160291028Y-119955707D01*
X160308776Y-119947012D01*
X160327617Y-119939552D01*
X160363387Y-119913564D01*
X160373307Y-119907048D01*
X160404535Y-119888580D01*
X160404538Y-119888578D01*
X160411362Y-119884542D01*
X160425683Y-119870221D01*
X160440717Y-119857380D01*
X160450694Y-119850131D01*
X160457107Y-119845472D01*
X160485298Y-119811395D01*
X160493288Y-119802616D01*
X170572253Y-109723652D01*
X170580539Y-109716112D01*
X170587018Y-109712000D01*
X170633644Y-109662348D01*
X170636398Y-109659507D01*
X170656135Y-109639770D01*
X170658615Y-109636573D01*
X170666320Y-109627551D01*
X170691159Y-109601100D01*
X170696586Y-109595321D01*
X170700405Y-109588375D01*
X170700407Y-109588372D01*
X170706348Y-109577566D01*
X170717199Y-109561047D01*
X170724758Y-109551301D01*
X170729614Y-109545041D01*
X170732759Y-109537772D01*
X170732762Y-109537768D01*
X170747174Y-109504463D01*
X170752391Y-109493813D01*
X170773695Y-109455060D01*
X170778733Y-109435437D01*
X170785137Y-109416734D01*
X170790033Y-109405420D01*
X170790033Y-109405419D01*
X170793181Y-109398145D01*
X170794420Y-109390322D01*
X170794423Y-109390312D01*
X170800099Y-109354476D01*
X170802505Y-109342856D01*
X170811528Y-109307711D01*
X170811528Y-109307710D01*
X170813500Y-109300030D01*
X170813500Y-109279776D01*
X170815051Y-109260065D01*
X170816980Y-109247886D01*
X170818220Y-109240057D01*
X170814059Y-109196038D01*
X170813500Y-109184181D01*
X170813500Y-87708763D01*
X170814027Y-87697579D01*
X170815701Y-87690091D01*
X170813562Y-87622032D01*
X170813500Y-87618075D01*
X170813500Y-87590144D01*
X170812994Y-87586138D01*
X170812061Y-87574292D01*
X170810922Y-87538037D01*
X170810673Y-87530110D01*
X170805022Y-87510658D01*
X170801014Y-87491306D01*
X170799467Y-87479063D01*
X170798474Y-87471203D01*
X170795556Y-87463832D01*
X170782200Y-87430097D01*
X170778355Y-87418870D01*
X170773553Y-87402342D01*
X170766018Y-87376407D01*
X170761984Y-87369585D01*
X170761981Y-87369579D01*
X170755706Y-87358968D01*
X170747010Y-87341218D01*
X170742472Y-87329756D01*
X170742469Y-87329751D01*
X170739552Y-87322383D01*
X170713573Y-87286625D01*
X170707057Y-87276707D01*
X170688575Y-87245457D01*
X170684542Y-87238637D01*
X170670218Y-87224313D01*
X170657376Y-87209278D01*
X170645472Y-87192893D01*
X170611406Y-87164711D01*
X170602627Y-87156722D01*
X163911218Y-80465313D01*
X163877192Y-80403001D01*
X163879755Y-80339589D01*
X163890865Y-80303022D01*
X163892370Y-80298069D01*
X163921529Y-80076590D01*
X163923156Y-80010000D01*
X163904852Y-79787361D01*
X163850431Y-79570702D01*
X163761354Y-79365840D01*
X163640014Y-79178277D01*
X163489670Y-79013051D01*
X163485619Y-79009852D01*
X163485615Y-79009848D01*
X163318414Y-78877800D01*
X163318410Y-78877798D01*
X163314359Y-78874598D01*
X163278028Y-78854542D01*
X163262135Y-78845769D01*
X163118789Y-78766638D01*
X163113920Y-78764914D01*
X163113916Y-78764912D01*
X162913087Y-78693795D01*
X162913083Y-78693794D01*
X162908212Y-78692069D01*
X162903119Y-78691162D01*
X162903116Y-78691161D01*
X162693373Y-78653800D01*
X162693367Y-78653799D01*
X162688284Y-78652894D01*
X162614452Y-78651992D01*
X162470081Y-78650228D01*
X162470079Y-78650228D01*
X162464911Y-78650165D01*
X162244091Y-78683955D01*
X162031756Y-78753357D01*
X161833607Y-78856507D01*
X161829474Y-78859610D01*
X161829471Y-78859612D01*
X161805247Y-78877800D01*
X161654965Y-78990635D01*
X161500629Y-79152138D01*
X161393201Y-79309621D01*
X161338293Y-79354621D01*
X161267768Y-79362792D01*
X161204021Y-79331538D01*
X161183324Y-79307054D01*
X161102822Y-79182617D01*
X161102820Y-79182614D01*
X161100014Y-79178277D01*
X160949670Y-79013051D01*
X160945619Y-79009852D01*
X160945615Y-79009848D01*
X160778414Y-78877800D01*
X160778410Y-78877798D01*
X160774359Y-78874598D01*
X160738028Y-78854542D01*
X160722135Y-78845769D01*
X160578789Y-78766638D01*
X160573920Y-78764914D01*
X160573916Y-78764912D01*
X160373087Y-78693795D01*
X160373083Y-78693794D01*
X160368212Y-78692069D01*
X160363119Y-78691162D01*
X160363116Y-78691161D01*
X160153373Y-78653800D01*
X160153367Y-78653799D01*
X160148284Y-78652894D01*
X160074452Y-78651992D01*
X159930081Y-78650228D01*
X159930079Y-78650228D01*
X159924911Y-78650165D01*
X159704091Y-78683955D01*
X159491756Y-78753357D01*
X159293607Y-78856507D01*
X159289474Y-78859610D01*
X159289471Y-78859612D01*
X159265247Y-78877800D01*
X159114965Y-78990635D01*
X158960629Y-79152138D01*
X158957720Y-79156403D01*
X158957714Y-79156411D01*
X158945404Y-79174457D01*
X158853204Y-79309618D01*
X158852898Y-79310066D01*
X158797987Y-79355069D01*
X158727462Y-79363240D01*
X158663715Y-79331986D01*
X158643018Y-79307502D01*
X158562426Y-79182926D01*
X158556136Y-79174757D01*
X158412806Y-79017240D01*
X158405273Y-79010215D01*
X158238139Y-78878222D01*
X158229552Y-78872517D01*
X158043117Y-78769599D01*
X158033705Y-78765369D01*
X157832959Y-78694280D01*
X157822988Y-78691646D01*
X157751837Y-78678972D01*
X157738540Y-78680432D01*
X157734000Y-78694989D01*
X157734000Y-81346632D01*
X157729185Y-81346632D01*
X157729187Y-81383106D01*
X157697384Y-81436711D01*
X148197747Y-90936348D01*
X148189461Y-90943888D01*
X148182982Y-90948000D01*
X148177557Y-90953777D01*
X148136357Y-90997651D01*
X148133602Y-91000493D01*
X148113865Y-91020230D01*
X148111385Y-91023427D01*
X148103682Y-91032447D01*
X148073414Y-91064679D01*
X148069595Y-91071625D01*
X148069593Y-91071628D01*
X148063652Y-91082434D01*
X148052801Y-91098953D01*
X148040386Y-91114959D01*
X148037241Y-91122228D01*
X148037238Y-91122232D01*
X148022826Y-91155537D01*
X148017609Y-91166187D01*
X147996305Y-91204940D01*
X147994334Y-91212615D01*
X147994334Y-91212616D01*
X147991267Y-91224562D01*
X147984863Y-91243266D01*
X147976819Y-91261855D01*
X147975580Y-91269678D01*
X147975577Y-91269688D01*
X147969901Y-91305524D01*
X147967495Y-91317144D01*
X147956500Y-91359970D01*
X147956500Y-91380224D01*
X147954949Y-91399934D01*
X147951780Y-91419943D01*
X147952526Y-91427835D01*
X147955941Y-91463961D01*
X147956500Y-91475819D01*
X147956500Y-94935405D01*
X147936498Y-95003526D01*
X147919595Y-95024500D01*
X147094500Y-95849595D01*
X147032188Y-95883621D01*
X147005405Y-95886500D01*
X117154595Y-95886500D01*
X117086474Y-95866498D01*
X117065500Y-95849595D01*
X114803652Y-93587747D01*
X114796112Y-93579461D01*
X114792000Y-93572982D01*
X114742348Y-93526356D01*
X114739507Y-93523602D01*
X114719770Y-93503865D01*
X114716573Y-93501385D01*
X114707551Y-93493680D01*
X114681100Y-93468841D01*
X114675321Y-93463414D01*
X114668375Y-93459595D01*
X114668372Y-93459593D01*
X114657566Y-93453652D01*
X114641047Y-93442801D01*
X114640583Y-93442441D01*
X114625041Y-93430386D01*
X114617772Y-93427241D01*
X114617768Y-93427238D01*
X114584463Y-93412826D01*
X114573813Y-93407609D01*
X114535060Y-93386305D01*
X114515437Y-93381267D01*
X114496734Y-93374863D01*
X114485420Y-93369967D01*
X114485419Y-93369967D01*
X114478145Y-93366819D01*
X114470322Y-93365580D01*
X114470312Y-93365577D01*
X114434476Y-93359901D01*
X114422856Y-93357495D01*
X114387711Y-93348472D01*
X114387710Y-93348472D01*
X114380030Y-93346500D01*
X114359776Y-93346500D01*
X114340065Y-93344949D01*
X114327886Y-93343020D01*
X114320057Y-93341780D01*
X114276568Y-93345891D01*
X114276039Y-93345941D01*
X114264181Y-93346500D01*
X107709067Y-93346500D01*
X107640946Y-93326498D01*
X107597815Y-93279653D01*
X107547883Y-93185743D01*
X107544990Y-93180302D01*
X107416890Y-93023237D01*
X107379066Y-92991946D01*
X107265472Y-92897973D01*
X107265469Y-92897971D01*
X107260722Y-92894044D01*
X107082435Y-92797644D01*
X106985628Y-92767677D01*
X106894707Y-92739532D01*
X106894704Y-92739531D01*
X106888820Y-92737710D01*
X106882695Y-92737066D01*
X106882694Y-92737066D01*
X106693378Y-92717168D01*
X106693377Y-92717168D01*
X106687250Y-92716524D01*
X106607183Y-92723811D01*
X106537531Y-92710066D01*
X106486366Y-92660845D01*
X106469935Y-92591776D01*
X106493453Y-92524788D01*
X106506669Y-92509235D01*
X109445499Y-89570405D01*
X109507811Y-89536379D01*
X109534594Y-89533500D01*
X119301233Y-89533500D01*
X119312416Y-89534027D01*
X119319909Y-89535702D01*
X119327835Y-89535453D01*
X119327836Y-89535453D01*
X119387986Y-89533562D01*
X119391945Y-89533500D01*
X119419856Y-89533500D01*
X119423791Y-89533003D01*
X119423856Y-89532995D01*
X119435693Y-89532062D01*
X119467951Y-89531048D01*
X119471970Y-89530922D01*
X119479889Y-89530673D01*
X119499343Y-89525021D01*
X119518700Y-89521013D01*
X119530930Y-89519468D01*
X119530931Y-89519468D01*
X119538797Y-89518474D01*
X119546168Y-89515555D01*
X119546170Y-89515555D01*
X119579912Y-89502196D01*
X119591142Y-89498351D01*
X119625983Y-89488229D01*
X119625984Y-89488229D01*
X119633593Y-89486018D01*
X119640412Y-89481985D01*
X119640417Y-89481983D01*
X119651028Y-89475707D01*
X119668776Y-89467012D01*
X119687617Y-89459552D01*
X119723387Y-89433564D01*
X119733307Y-89427048D01*
X119764535Y-89408580D01*
X119764538Y-89408578D01*
X119771362Y-89404542D01*
X119785683Y-89390221D01*
X119800717Y-89377380D01*
X119810694Y-89370131D01*
X119817107Y-89365472D01*
X119845298Y-89331395D01*
X119853288Y-89322616D01*
X123960500Y-85215405D01*
X124022812Y-85181379D01*
X124049595Y-85178500D01*
X125358134Y-85178500D01*
X125420316Y-85171745D01*
X125556705Y-85120615D01*
X125673261Y-85033261D01*
X125760615Y-84916705D01*
X125811745Y-84780316D01*
X125818500Y-84718134D01*
X125818500Y-84714669D01*
X143422001Y-84714669D01*
X143422371Y-84721490D01*
X143427895Y-84772352D01*
X143431521Y-84787604D01*
X143476676Y-84908054D01*
X143485214Y-84923649D01*
X143561715Y-85025724D01*
X143574276Y-85038285D01*
X143676351Y-85114786D01*
X143691946Y-85123324D01*
X143812394Y-85168478D01*
X143827649Y-85172105D01*
X143878514Y-85177631D01*
X143885328Y-85178000D01*
X144507885Y-85178000D01*
X144523124Y-85173525D01*
X144524329Y-85172135D01*
X144526000Y-85164452D01*
X144526000Y-85159884D01*
X145034000Y-85159884D01*
X145038475Y-85175123D01*
X145039865Y-85176328D01*
X145047548Y-85177999D01*
X145674669Y-85177999D01*
X145681490Y-85177629D01*
X145732352Y-85172105D01*
X145747604Y-85168479D01*
X145868054Y-85123324D01*
X145883649Y-85114786D01*
X145985724Y-85038285D01*
X145998285Y-85025724D01*
X146074786Y-84923649D01*
X146083324Y-84908054D01*
X146128478Y-84787606D01*
X146132105Y-84772351D01*
X146137631Y-84721486D01*
X146138000Y-84714672D01*
X146138000Y-84092115D01*
X146133525Y-84076876D01*
X146132135Y-84075671D01*
X146124452Y-84074000D01*
X145052115Y-84074000D01*
X145036876Y-84078475D01*
X145035671Y-84079865D01*
X145034000Y-84087548D01*
X145034000Y-85159884D01*
X144526000Y-85159884D01*
X144526000Y-84092115D01*
X144521525Y-84076876D01*
X144520135Y-84075671D01*
X144512452Y-84074000D01*
X143440116Y-84074000D01*
X143424877Y-84078475D01*
X143423672Y-84079865D01*
X143422001Y-84087548D01*
X143422001Y-84714669D01*
X125818500Y-84714669D01*
X125818500Y-83547885D01*
X143422000Y-83547885D01*
X143426475Y-83563124D01*
X143427865Y-83564329D01*
X143435548Y-83566000D01*
X144507885Y-83566000D01*
X144523124Y-83561525D01*
X144524329Y-83560135D01*
X144526000Y-83552452D01*
X144526000Y-83547885D01*
X145034000Y-83547885D01*
X145038475Y-83563124D01*
X145039865Y-83564329D01*
X145047548Y-83566000D01*
X146119884Y-83566000D01*
X146135123Y-83561525D01*
X146136328Y-83560135D01*
X146137999Y-83552452D01*
X146137999Y-82925331D01*
X146137629Y-82918510D01*
X146132105Y-82867648D01*
X146128479Y-82852396D01*
X146083324Y-82731946D01*
X146074786Y-82716351D01*
X145998285Y-82614276D01*
X145985724Y-82601715D01*
X145883649Y-82525214D01*
X145868054Y-82516676D01*
X145747606Y-82471522D01*
X145732351Y-82467895D01*
X145681486Y-82462369D01*
X145674672Y-82462000D01*
X145052115Y-82462000D01*
X145036876Y-82466475D01*
X145035671Y-82467865D01*
X145034000Y-82475548D01*
X145034000Y-83547885D01*
X144526000Y-83547885D01*
X144526000Y-82480116D01*
X144521525Y-82464877D01*
X144520135Y-82463672D01*
X144512452Y-82462001D01*
X143885331Y-82462001D01*
X143878510Y-82462371D01*
X143827648Y-82467895D01*
X143812396Y-82471521D01*
X143691946Y-82516676D01*
X143676351Y-82525214D01*
X143574276Y-82601715D01*
X143561715Y-82614276D01*
X143485214Y-82716351D01*
X143476676Y-82731946D01*
X143431522Y-82852394D01*
X143427895Y-82867649D01*
X143422369Y-82918514D01*
X143422000Y-82925328D01*
X143422000Y-83547885D01*
X125818500Y-83547885D01*
X125818500Y-82921866D01*
X125811745Y-82859684D01*
X125760615Y-82723295D01*
X125673261Y-82606739D01*
X125556705Y-82519385D01*
X125420316Y-82468255D01*
X125358134Y-82461500D01*
X123561866Y-82461500D01*
X123499684Y-82468255D01*
X123363295Y-82519385D01*
X123246739Y-82606739D01*
X123159385Y-82723295D01*
X123108255Y-82859684D01*
X123101500Y-82921866D01*
X123101500Y-84230406D01*
X123081498Y-84298527D01*
X123064595Y-84319501D01*
X119154500Y-88229595D01*
X119092188Y-88263621D01*
X119065405Y-88266500D01*
X109298768Y-88266500D01*
X109287585Y-88265973D01*
X109280092Y-88264298D01*
X109272166Y-88264547D01*
X109272165Y-88264547D01*
X109212002Y-88266438D01*
X109208044Y-88266500D01*
X109180144Y-88266500D01*
X109176154Y-88267004D01*
X109164320Y-88267936D01*
X109120111Y-88269326D01*
X109112495Y-88271539D01*
X109112493Y-88271539D01*
X109100652Y-88274979D01*
X109081293Y-88278988D01*
X109079983Y-88279154D01*
X109061203Y-88281526D01*
X109053837Y-88284442D01*
X109053831Y-88284444D01*
X109020098Y-88297800D01*
X109008868Y-88301645D01*
X108974017Y-88311770D01*
X108966407Y-88313981D01*
X108959584Y-88318016D01*
X108948966Y-88324295D01*
X108931213Y-88332992D01*
X108923568Y-88336019D01*
X108912383Y-88340448D01*
X108905968Y-88345109D01*
X108876612Y-88366437D01*
X108866695Y-88372951D01*
X108828638Y-88395458D01*
X108814317Y-88409779D01*
X108799284Y-88422619D01*
X108782893Y-88434528D01*
X108777842Y-88440634D01*
X108754702Y-88468605D01*
X108746712Y-88477384D01*
X105017747Y-92206348D01*
X105009461Y-92213888D01*
X105002982Y-92218000D01*
X104997557Y-92223777D01*
X104956357Y-92267651D01*
X104953602Y-92270493D01*
X104933865Y-92290230D01*
X104931385Y-92293427D01*
X104923682Y-92302447D01*
X104893414Y-92334679D01*
X104889595Y-92341625D01*
X104889593Y-92341628D01*
X104883652Y-92352434D01*
X104872801Y-92368953D01*
X104860386Y-92384959D01*
X104857241Y-92392228D01*
X104857238Y-92392232D01*
X104842826Y-92425537D01*
X104837609Y-92436187D01*
X104816305Y-92474940D01*
X104814334Y-92482615D01*
X104814334Y-92482616D01*
X104811267Y-92494562D01*
X104804863Y-92513266D01*
X104796819Y-92531855D01*
X104795580Y-92539678D01*
X104795577Y-92539688D01*
X104789901Y-92575524D01*
X104787495Y-92587144D01*
X104777177Y-92627333D01*
X104740864Y-92688340D01*
X104677332Y-92720029D01*
X104655135Y-92722000D01*
X104412115Y-92722000D01*
X104396876Y-92726475D01*
X104395671Y-92727865D01*
X104394000Y-92735548D01*
X104394000Y-93533758D01*
X104393215Y-93547803D01*
X104376500Y-93696817D01*
X104376500Y-94256004D01*
X104391277Y-94406713D01*
X104391968Y-94409002D01*
X104394000Y-94429724D01*
X104394000Y-95219884D01*
X104398475Y-95235123D01*
X104399865Y-95236328D01*
X104407548Y-95237999D01*
X104709669Y-95237999D01*
X104716490Y-95237629D01*
X104767352Y-95232105D01*
X104782604Y-95228479D01*
X104903056Y-95183323D01*
X104918466Y-95174886D01*
X104987823Y-95159716D01*
X105016235Y-95165040D01*
X105201180Y-95222290D01*
X105207305Y-95222934D01*
X105207306Y-95222934D01*
X105396622Y-95242832D01*
X105396623Y-95242832D01*
X105402750Y-95243476D01*
X105512090Y-95233525D01*
X105598457Y-95225665D01*
X105598460Y-95225664D01*
X105604596Y-95225106D01*
X105610502Y-95223368D01*
X105610506Y-95223367D01*
X105793120Y-95169620D01*
X105793119Y-95169620D01*
X105799029Y-95167881D01*
X105804489Y-95165027D01*
X105804493Y-95165025D01*
X105862126Y-95134896D01*
X105931762Y-95121062D01*
X105997822Y-95147073D01*
X106039333Y-95204669D01*
X106046500Y-95246558D01*
X106046500Y-100353768D01*
X106026498Y-100421889D01*
X105984578Y-100461858D01*
X105983251Y-100462477D01*
X105978747Y-100465630D01*
X105978743Y-100465633D01*
X105800211Y-100590643D01*
X105800208Y-100590645D01*
X105795700Y-100593802D01*
X105633802Y-100755700D01*
X105502477Y-100943251D01*
X105500153Y-100948235D01*
X105498829Y-100950528D01*
X105447447Y-100999521D01*
X105377733Y-101012957D01*
X105311822Y-100986571D01*
X105280591Y-100950528D01*
X105273934Y-100938998D01*
X105237491Y-100886952D01*
X105227012Y-100878576D01*
X105213566Y-100885644D01*
X103424923Y-102674287D01*
X103418493Y-102686062D01*
X103427789Y-102698077D01*
X103478994Y-102733931D01*
X103488489Y-102739414D01*
X103685947Y-102831490D01*
X103696239Y-102835236D01*
X103906688Y-102891625D01*
X103917480Y-102893528D01*
X104138501Y-102912865D01*
X104204619Y-102938728D01*
X104246258Y-102996232D01*
X104250199Y-103067119D01*
X104216614Y-103127481D01*
X101207747Y-106136348D01*
X101199461Y-106143888D01*
X101192982Y-106148000D01*
X101187557Y-106153777D01*
X101146357Y-106197651D01*
X101143602Y-106200493D01*
X101123865Y-106220230D01*
X101121385Y-106223427D01*
X101113682Y-106232447D01*
X101083414Y-106264679D01*
X101079595Y-106271625D01*
X101079593Y-106271628D01*
X101073652Y-106282434D01*
X101062801Y-106298953D01*
X101050386Y-106314959D01*
X101047239Y-106322232D01*
X101045628Y-106325955D01*
X101019086Y-106365010D01*
X100445742Y-106938353D01*
X100437463Y-106945887D01*
X100430982Y-106950000D01*
X100410336Y-106971986D01*
X100384357Y-106999651D01*
X100381602Y-107002493D01*
X100361865Y-107022230D01*
X100359385Y-107025427D01*
X100351682Y-107034447D01*
X100321414Y-107066679D01*
X100317595Y-107073625D01*
X100317593Y-107073628D01*
X100311652Y-107084434D01*
X100300801Y-107100953D01*
X100288386Y-107116959D01*
X100285241Y-107124228D01*
X100285238Y-107124232D01*
X100270826Y-107157537D01*
X100265609Y-107168187D01*
X100244305Y-107206940D01*
X100242334Y-107214615D01*
X100242334Y-107214616D01*
X100239267Y-107226562D01*
X100232863Y-107245266D01*
X100224819Y-107263855D01*
X100223580Y-107271678D01*
X100223577Y-107271688D01*
X100217901Y-107307524D01*
X100215495Y-107319144D01*
X100204500Y-107361970D01*
X100204500Y-107382224D01*
X100202949Y-107401934D01*
X100199780Y-107421943D01*
X100200526Y-107429835D01*
X100203941Y-107465961D01*
X100204500Y-107477819D01*
X100204500Y-108449692D01*
X100184498Y-108517813D01*
X100136683Y-108561453D01*
X100111607Y-108574507D01*
X100107474Y-108577610D01*
X100107471Y-108577612D01*
X100024450Y-108639946D01*
X99932965Y-108708635D01*
X99929393Y-108712373D01*
X99851898Y-108793466D01*
X99790374Y-108828895D01*
X99719462Y-108825438D01*
X99661676Y-108784192D01*
X99642823Y-108750644D01*
X99601324Y-108639946D01*
X99592786Y-108624351D01*
X99516285Y-108522276D01*
X99503724Y-108509715D01*
X99401649Y-108433214D01*
X99386054Y-108424676D01*
X99265606Y-108379522D01*
X99250351Y-108375895D01*
X99199486Y-108370369D01*
X99192672Y-108370000D01*
X98570115Y-108370000D01*
X98554876Y-108374475D01*
X98553671Y-108375865D01*
X98552000Y-108383548D01*
X98552000Y-111067884D01*
X98044000Y-111067884D01*
X98044000Y-110000115D01*
X98039525Y-109984876D01*
X98038135Y-109983671D01*
X98030452Y-109982000D01*
X96958116Y-109982000D01*
X96942877Y-109986475D01*
X96941672Y-109987865D01*
X96940001Y-109995548D01*
X96940001Y-110622669D01*
X95443687Y-110622669D01*
X95169757Y-109982000D01*
X95045663Y-109691768D01*
X95044250Y-109688324D01*
X95035450Y-109665927D01*
X94952924Y-109455885D01*
X96940000Y-109455885D01*
X96944475Y-109471124D01*
X96945865Y-109472329D01*
X96953548Y-109474000D01*
X98025885Y-109474000D01*
X98041124Y-109469525D01*
X98042329Y-109468135D01*
X98044000Y-109460452D01*
X98044000Y-108388116D01*
X98039525Y-108372877D01*
X98038135Y-108371672D01*
X98030452Y-108370001D01*
X97403331Y-108370001D01*
X97396510Y-108370371D01*
X97345648Y-108375895D01*
X97330396Y-108379521D01*
X97209946Y-108424676D01*
X97194351Y-108433214D01*
X97092276Y-108509715D01*
X97079715Y-108522276D01*
X97003214Y-108624351D01*
X96994676Y-108639946D01*
X96949522Y-108760394D01*
X96945895Y-108775649D01*
X96940369Y-108826514D01*
X96940000Y-108833328D01*
X96940000Y-109455885D01*
X94952924Y-109455885D01*
X94596400Y-108548475D01*
X94595109Y-108545039D01*
X94181264Y-107392387D01*
X94180071Y-107388901D01*
X94177896Y-107382224D01*
X93811821Y-106258900D01*
X93800628Y-106224552D01*
X93799522Y-106220981D01*
X93534372Y-105317169D01*
X93454769Y-105045824D01*
X93453788Y-105042289D01*
X93144052Y-103857432D01*
X93143161Y-103853802D01*
X92868728Y-102660352D01*
X92867944Y-102656696D01*
X92658844Y-101605475D01*
X102827483Y-101605475D01*
X102846472Y-101822519D01*
X102848375Y-101833312D01*
X102904764Y-102043761D01*
X102908510Y-102054053D01*
X103000586Y-102251511D01*
X103006069Y-102261006D01*
X103042509Y-102313048D01*
X103052988Y-102321424D01*
X103066434Y-102314356D01*
X103767978Y-101612812D01*
X103775592Y-101598868D01*
X103775461Y-101597035D01*
X103771210Y-101590420D01*
X103065713Y-100884923D01*
X103053938Y-100878493D01*
X103041923Y-100887789D01*
X103006069Y-100938994D01*
X103000586Y-100948489D01*
X102908510Y-101145947D01*
X102904764Y-101156239D01*
X102848375Y-101366688D01*
X102846472Y-101377481D01*
X102827483Y-101594525D01*
X102827483Y-101605475D01*
X92658844Y-101605475D01*
X92629033Y-101455607D01*
X92628358Y-101451931D01*
X92470390Y-100512988D01*
X103418576Y-100512988D01*
X103425644Y-100526434D01*
X104127188Y-101227978D01*
X104141132Y-101235592D01*
X104142965Y-101235461D01*
X104149580Y-101231210D01*
X104855077Y-100525713D01*
X104861507Y-100513938D01*
X104852211Y-100501923D01*
X104801006Y-100466069D01*
X104791511Y-100460586D01*
X104594053Y-100368510D01*
X104583761Y-100364764D01*
X104373312Y-100308375D01*
X104362519Y-100306472D01*
X104145475Y-100287483D01*
X104134525Y-100287483D01*
X103917481Y-100306472D01*
X103906688Y-100308375D01*
X103696239Y-100364764D01*
X103685947Y-100368510D01*
X103488489Y-100460586D01*
X103478994Y-100466069D01*
X103426952Y-100502509D01*
X103418576Y-100512988D01*
X92470390Y-100512988D01*
X92425177Y-100244250D01*
X92424612Y-100240554D01*
X92416292Y-100180211D01*
X92257355Y-99027414D01*
X92256902Y-99023731D01*
X92210704Y-98594981D01*
X92125703Y-97806127D01*
X92125358Y-97802404D01*
X92030342Y-96581495D01*
X92030107Y-96577764D01*
X91971352Y-95354543D01*
X91971228Y-95350807D01*
X91960668Y-94774669D01*
X103107001Y-94774669D01*
X103107371Y-94781490D01*
X103112895Y-94832352D01*
X103116521Y-94847604D01*
X103161676Y-94968054D01*
X103170214Y-94983649D01*
X103246715Y-95085724D01*
X103259276Y-95098285D01*
X103361351Y-95174786D01*
X103376946Y-95183324D01*
X103497394Y-95228478D01*
X103512649Y-95232105D01*
X103563514Y-95237631D01*
X103570328Y-95238000D01*
X103867885Y-95238000D01*
X103883124Y-95233525D01*
X103884329Y-95232135D01*
X103886000Y-95224452D01*
X103886000Y-94252115D01*
X103881525Y-94236876D01*
X103880135Y-94235671D01*
X103872452Y-94234000D01*
X103125116Y-94234000D01*
X103109877Y-94238475D01*
X103108672Y-94239865D01*
X103107001Y-94247548D01*
X103107001Y-94774669D01*
X91960668Y-94774669D01*
X91951105Y-94252921D01*
X91948786Y-94126370D01*
X91948773Y-94122647D01*
X91950392Y-93980000D01*
X91953479Y-93707885D01*
X103107000Y-93707885D01*
X103111475Y-93723124D01*
X103112865Y-93724329D01*
X103120548Y-93726000D01*
X103867885Y-93726000D01*
X103883124Y-93721525D01*
X103884329Y-93720135D01*
X103886000Y-93712452D01*
X103886000Y-92740116D01*
X103881525Y-92724877D01*
X103880135Y-92723672D01*
X103872452Y-92722001D01*
X103570331Y-92722001D01*
X103563510Y-92722371D01*
X103512648Y-92727895D01*
X103497396Y-92731521D01*
X103376946Y-92776676D01*
X103361351Y-92785214D01*
X103259276Y-92861715D01*
X103246715Y-92874276D01*
X103170214Y-92976351D01*
X103161676Y-92991946D01*
X103116522Y-93112394D01*
X103112895Y-93127649D01*
X103107369Y-93178514D01*
X103107000Y-93185328D01*
X103107000Y-93707885D01*
X91953479Y-93707885D01*
X91962666Y-92898101D01*
X91962764Y-92894363D01*
X92012979Y-91670762D01*
X92013188Y-91667030D01*
X92099677Y-90445487D01*
X92099996Y-90441762D01*
X92108600Y-90356321D01*
X92222691Y-89223276D01*
X92223121Y-89219564D01*
X92241646Y-89077898D01*
X92381905Y-88005296D01*
X92382441Y-88001617D01*
X92401116Y-87885671D01*
X92577188Y-86792530D01*
X92577827Y-86788904D01*
X92808364Y-85586093D01*
X92809119Y-85582450D01*
X92840605Y-85441009D01*
X93075217Y-84387094D01*
X93076077Y-84383484D01*
X93097654Y-84298527D01*
X93377529Y-83196518D01*
X93378498Y-83192927D01*
X93417844Y-83055260D01*
X93715023Y-82015447D01*
X93716101Y-82011877D01*
X93809518Y-81718279D01*
X94087417Y-80844873D01*
X94088581Y-80841394D01*
X94286443Y-80277966D01*
X156148257Y-80277966D01*
X156178565Y-80412446D01*
X156181645Y-80422275D01*
X156261770Y-80619603D01*
X156266413Y-80628794D01*
X156377694Y-80810388D01*
X156383777Y-80818699D01*
X156523213Y-80979667D01*
X156530580Y-80986883D01*
X156694434Y-81122916D01*
X156702881Y-81128831D01*
X156886756Y-81236279D01*
X156896042Y-81240729D01*
X157095001Y-81316703D01*
X157104899Y-81319579D01*
X157208250Y-81340606D01*
X157222299Y-81339410D01*
X157226000Y-81329065D01*
X157226000Y-80282115D01*
X157221525Y-80266876D01*
X157220135Y-80265671D01*
X157212452Y-80264000D01*
X156163225Y-80264000D01*
X156149694Y-80267973D01*
X156148257Y-80277966D01*
X94286443Y-80277966D01*
X94473895Y-79744183D01*
X156144389Y-79744183D01*
X156145912Y-79752607D01*
X156158292Y-79756000D01*
X157207885Y-79756000D01*
X157223124Y-79751525D01*
X157224329Y-79750135D01*
X157226000Y-79742452D01*
X157226000Y-78693102D01*
X157222082Y-78679758D01*
X157207806Y-78677771D01*
X157169324Y-78683660D01*
X157159288Y-78686051D01*
X156956868Y-78752212D01*
X156947359Y-78756209D01*
X156758463Y-78854542D01*
X156749738Y-78860036D01*
X156579433Y-78987905D01*
X156571726Y-78994748D01*
X156424590Y-79148717D01*
X156418104Y-79156727D01*
X156298098Y-79332649D01*
X156293000Y-79341623D01*
X156203338Y-79534783D01*
X156199775Y-79544470D01*
X156144389Y-79744183D01*
X94473895Y-79744183D01*
X94494366Y-79685889D01*
X94495656Y-79682383D01*
X94540466Y-79565954D01*
X94628705Y-79336680D01*
X94935521Y-78539477D01*
X94936916Y-78536008D01*
X95410481Y-77406683D01*
X95411977Y-77403258D01*
X95470601Y-77274323D01*
X95830576Y-76482599D01*
X95915603Y-76295592D01*
X127360500Y-76295592D01*
X127400249Y-76482599D01*
X127478011Y-76657255D01*
X127590387Y-76811927D01*
X127732465Y-76939854D01*
X127898035Y-77035446D01*
X128079863Y-77094526D01*
X128086424Y-77095216D01*
X128086426Y-77095216D01*
X128139628Y-77100807D01*
X128222333Y-77109500D01*
X128317667Y-77109500D01*
X128400372Y-77100807D01*
X128453574Y-77095216D01*
X128453576Y-77095216D01*
X128460137Y-77094526D01*
X128641965Y-77035446D01*
X128807535Y-76939854D01*
X128949613Y-76811927D01*
X129061989Y-76657255D01*
X129139751Y-76482599D01*
X129179500Y-76295592D01*
X129900500Y-76295592D01*
X129940249Y-76482599D01*
X130018011Y-76657255D01*
X130130387Y-76811927D01*
X130272465Y-76939854D01*
X130438035Y-77035446D01*
X130619863Y-77094526D01*
X130626424Y-77095216D01*
X130626426Y-77095216D01*
X130679628Y-77100807D01*
X130762333Y-77109500D01*
X130857667Y-77109500D01*
X130940372Y-77100807D01*
X130993574Y-77095216D01*
X130993576Y-77095216D01*
X131000137Y-77094526D01*
X131181965Y-77035446D01*
X131347535Y-76939854D01*
X131489613Y-76811927D01*
X131601989Y-76657255D01*
X131679751Y-76482599D01*
X131719500Y-76295592D01*
X137520500Y-76295592D01*
X137560249Y-76482599D01*
X137638011Y-76657255D01*
X137750387Y-76811927D01*
X137892465Y-76939854D01*
X138058035Y-77035446D01*
X138239863Y-77094526D01*
X138246424Y-77095216D01*
X138246426Y-77095216D01*
X138299628Y-77100807D01*
X138382333Y-77109500D01*
X138477667Y-77109500D01*
X138560372Y-77100807D01*
X138613574Y-77095216D01*
X138613576Y-77095216D01*
X138620137Y-77094526D01*
X138801965Y-77035446D01*
X138967535Y-76939854D01*
X139109613Y-76811927D01*
X139221989Y-76657255D01*
X139299751Y-76482599D01*
X139339500Y-76295592D01*
X140060500Y-76295592D01*
X140100249Y-76482599D01*
X140178011Y-76657255D01*
X140290387Y-76811927D01*
X140432465Y-76939854D01*
X140598035Y-77035446D01*
X140779863Y-77094526D01*
X140786424Y-77095216D01*
X140786426Y-77095216D01*
X140839628Y-77100807D01*
X140922333Y-77109500D01*
X141017667Y-77109500D01*
X141100372Y-77100807D01*
X141153574Y-77095216D01*
X141153576Y-77095216D01*
X141160137Y-77094526D01*
X141341965Y-77035446D01*
X141507535Y-76939854D01*
X141649613Y-76811927D01*
X141761989Y-76657255D01*
X141839751Y-76482599D01*
X141879500Y-76295592D01*
X141879500Y-76104408D01*
X141839751Y-75917401D01*
X141837066Y-75911370D01*
X141764674Y-75748775D01*
X141764673Y-75748773D01*
X141761989Y-75742745D01*
X141649613Y-75588073D01*
X141507535Y-75460146D01*
X141341965Y-75364554D01*
X141160137Y-75305474D01*
X141153576Y-75304784D01*
X141153574Y-75304784D01*
X141100372Y-75299193D01*
X141017667Y-75290500D01*
X140922333Y-75290500D01*
X140839628Y-75299193D01*
X140786426Y-75304784D01*
X140786424Y-75304784D01*
X140779863Y-75305474D01*
X140598035Y-75364554D01*
X140432465Y-75460146D01*
X140290387Y-75588073D01*
X140178011Y-75742745D01*
X140175327Y-75748773D01*
X140175326Y-75748775D01*
X140102934Y-75911370D01*
X140100249Y-75917401D01*
X140060500Y-76104408D01*
X140060500Y-76295592D01*
X139339500Y-76295592D01*
X139339500Y-76104408D01*
X139299751Y-75917401D01*
X139297066Y-75911370D01*
X139224674Y-75748775D01*
X139224673Y-75748773D01*
X139221989Y-75742745D01*
X139109613Y-75588073D01*
X138967535Y-75460146D01*
X138801965Y-75364554D01*
X138620137Y-75305474D01*
X138613576Y-75304784D01*
X138613574Y-75304784D01*
X138560372Y-75299193D01*
X138477667Y-75290500D01*
X138382333Y-75290500D01*
X138299628Y-75299193D01*
X138246426Y-75304784D01*
X138246424Y-75304784D01*
X138239863Y-75305474D01*
X138058035Y-75364554D01*
X137892465Y-75460146D01*
X137750387Y-75588073D01*
X137638011Y-75742745D01*
X137635327Y-75748773D01*
X137635326Y-75748775D01*
X137562934Y-75911370D01*
X137560249Y-75917401D01*
X137520500Y-76104408D01*
X137520500Y-76295592D01*
X131719500Y-76295592D01*
X131719500Y-76104408D01*
X131679751Y-75917401D01*
X131677066Y-75911370D01*
X131604674Y-75748775D01*
X131604673Y-75748773D01*
X131601989Y-75742745D01*
X131489613Y-75588073D01*
X131347535Y-75460146D01*
X131181965Y-75364554D01*
X131000137Y-75305474D01*
X130993576Y-75304784D01*
X130993574Y-75304784D01*
X130940372Y-75299193D01*
X130857667Y-75290500D01*
X130762333Y-75290500D01*
X130679628Y-75299193D01*
X130626426Y-75304784D01*
X130626424Y-75304784D01*
X130619863Y-75305474D01*
X130438035Y-75364554D01*
X130272465Y-75460146D01*
X130130387Y-75588073D01*
X130018011Y-75742745D01*
X130015327Y-75748773D01*
X130015326Y-75748775D01*
X129942934Y-75911370D01*
X129940249Y-75917401D01*
X129900500Y-76104408D01*
X129900500Y-76295592D01*
X129179500Y-76295592D01*
X129179500Y-76104408D01*
X129139751Y-75917401D01*
X129137066Y-75911370D01*
X129064674Y-75748775D01*
X129064673Y-75748773D01*
X129061989Y-75742745D01*
X128949613Y-75588073D01*
X128807535Y-75460146D01*
X128641965Y-75364554D01*
X128460137Y-75305474D01*
X128453576Y-75304784D01*
X128453574Y-75304784D01*
X128400372Y-75299193D01*
X128317667Y-75290500D01*
X128222333Y-75290500D01*
X128139628Y-75299193D01*
X128086426Y-75304784D01*
X128086424Y-75304784D01*
X128079863Y-75305474D01*
X127898035Y-75364554D01*
X127732465Y-75460146D01*
X127590387Y-75588073D01*
X127478011Y-75742745D01*
X127475327Y-75748773D01*
X127475326Y-75748775D01*
X127402934Y-75911370D01*
X127400249Y-75917401D01*
X127360500Y-76104408D01*
X127360500Y-76295592D01*
X95915603Y-76295592D01*
X95918856Y-76288437D01*
X95920454Y-76285057D01*
X96323297Y-75464565D01*
X96460171Y-75185786D01*
X96461863Y-75182465D01*
X96775775Y-74588337D01*
X97033957Y-74099685D01*
X97035752Y-74096406D01*
X97639725Y-73031057D01*
X97641617Y-73027833D01*
X98276917Y-71980892D01*
X98278904Y-71977725D01*
X98358167Y-71855438D01*
X98944965Y-70950118D01*
X98947044Y-70947011D01*
X99643340Y-69939555D01*
X99645511Y-69936512D01*
X100371352Y-68950205D01*
X100373612Y-68947227D01*
X101128426Y-67982844D01*
X101130774Y-67979935D01*
X101913828Y-67038415D01*
X101916261Y-67035576D01*
X102013013Y-66926025D01*
X102726945Y-66117651D01*
X102729423Y-66114928D01*
X103566981Y-65221458D01*
X103569576Y-65218771D01*
X104433232Y-64350582D01*
X104435907Y-64347971D01*
X105324974Y-63505751D01*
X105327726Y-63503221D01*
X106241352Y-62687779D01*
X106244178Y-62685331D01*
X107181603Y-61897343D01*
X107184500Y-61894980D01*
X108144921Y-61135124D01*
X108147845Y-61132880D01*
X109130370Y-60401861D01*
X109133403Y-60399674D01*
X110137177Y-59698129D01*
X110140272Y-59696033D01*
X110652336Y-59360308D01*
X111164418Y-59024573D01*
X111167539Y-59022592D01*
X112211178Y-58381795D01*
X112214360Y-58379906D01*
X112734213Y-58081581D01*
X113276549Y-57770354D01*
X113279818Y-57768542D01*
X113406956Y-57700514D01*
X114359624Y-57190768D01*
X114362847Y-57189105D01*
X115310835Y-56717488D01*
X115459332Y-56643612D01*
X115462703Y-56641997D01*
X116244017Y-56281806D01*
X116574845Y-56129292D01*
X116578219Y-56127797D01*
X116935923Y-55975592D01*
X127360500Y-55975592D01*
X127400249Y-56162599D01*
X127478011Y-56337255D01*
X127590387Y-56491927D01*
X127595297Y-56496348D01*
X127595298Y-56496349D01*
X127689740Y-56581384D01*
X127732465Y-56619854D01*
X127898035Y-56715446D01*
X128079863Y-56774526D01*
X128086424Y-56775216D01*
X128086426Y-56775216D01*
X128139628Y-56780807D01*
X128222333Y-56789500D01*
X128317667Y-56789500D01*
X128400372Y-56780807D01*
X128453574Y-56775216D01*
X128453576Y-56775216D01*
X128460137Y-56774526D01*
X128641965Y-56715446D01*
X128807535Y-56619854D01*
X128850261Y-56581384D01*
X128944702Y-56496349D01*
X128944703Y-56496348D01*
X128949613Y-56491927D01*
X129061989Y-56337255D01*
X129139751Y-56162599D01*
X129179500Y-55975592D01*
X140060500Y-55975592D01*
X140100249Y-56162599D01*
X140178011Y-56337255D01*
X140290387Y-56491927D01*
X140295297Y-56496348D01*
X140295298Y-56496349D01*
X140389740Y-56581384D01*
X140432465Y-56619854D01*
X140598035Y-56715446D01*
X140779863Y-56774526D01*
X140786424Y-56775216D01*
X140786426Y-56775216D01*
X140839628Y-56780807D01*
X140922333Y-56789500D01*
X141017667Y-56789500D01*
X141100372Y-56780807D01*
X141153574Y-56775216D01*
X141153576Y-56775216D01*
X141160137Y-56774526D01*
X141341965Y-56715446D01*
X141507535Y-56619854D01*
X141550261Y-56581384D01*
X141644702Y-56496349D01*
X141644703Y-56496348D01*
X141649613Y-56491927D01*
X141761989Y-56337255D01*
X141839751Y-56162599D01*
X141879500Y-55975592D01*
X141879500Y-55784408D01*
X141839751Y-55597401D01*
X141761989Y-55422745D01*
X141649613Y-55268073D01*
X141575168Y-55201043D01*
X141512443Y-55144565D01*
X141512442Y-55144564D01*
X141507535Y-55140146D01*
X141341965Y-55044554D01*
X141160137Y-54985474D01*
X141153576Y-54984784D01*
X141153574Y-54984784D01*
X141100372Y-54979193D01*
X141017667Y-54970500D01*
X140922333Y-54970500D01*
X140839628Y-54979193D01*
X140786426Y-54984784D01*
X140786424Y-54984784D01*
X140779863Y-54985474D01*
X140598035Y-55044554D01*
X140432465Y-55140146D01*
X140427558Y-55144564D01*
X140427557Y-55144565D01*
X140364832Y-55201043D01*
X140290387Y-55268073D01*
X140178011Y-55422745D01*
X140100249Y-55597401D01*
X140060500Y-55784408D01*
X140060500Y-55975592D01*
X129179500Y-55975592D01*
X129179500Y-55784408D01*
X129139751Y-55597401D01*
X129061989Y-55422745D01*
X128949613Y-55268073D01*
X128875168Y-55201043D01*
X128812443Y-55144565D01*
X128812442Y-55144564D01*
X128807535Y-55140146D01*
X128641965Y-55044554D01*
X128460137Y-54985474D01*
X128453576Y-54984784D01*
X128453574Y-54984784D01*
X128400372Y-54979193D01*
X128317667Y-54970500D01*
X128222333Y-54970500D01*
X128139628Y-54979193D01*
X128086426Y-54984784D01*
X128086424Y-54984784D01*
X128079863Y-54985474D01*
X127898035Y-55044554D01*
X127732465Y-55140146D01*
X127727558Y-55144564D01*
X127727557Y-55144565D01*
X127664832Y-55201043D01*
X127590387Y-55268073D01*
X127478011Y-55422745D01*
X127400249Y-55597401D01*
X127360500Y-55784408D01*
X127360500Y-55975592D01*
X116935923Y-55975592D01*
X117533857Y-55721168D01*
X117705117Y-55648296D01*
X117708578Y-55646884D01*
X118849158Y-55201043D01*
X118852660Y-55199734D01*
X120005940Y-54787936D01*
X120009478Y-54786731D01*
X121174526Y-54409306D01*
X121178100Y-54408207D01*
X121321253Y-54366482D01*
X121921480Y-54191532D01*
X122353774Y-54065530D01*
X122357378Y-54064537D01*
X122730368Y-53967728D01*
X123542774Y-53756869D01*
X123546353Y-53755996D01*
X124740308Y-53483641D01*
X124743934Y-53482869D01*
X125945499Y-53246043D01*
X125949177Y-53245375D01*
X126259065Y-53193795D01*
X127157189Y-53044306D01*
X127160851Y-53043753D01*
X127682815Y-52972716D01*
X128374306Y-52878609D01*
X128378017Y-52878160D01*
X129595810Y-52749090D01*
X129599533Y-52748751D01*
X130288422Y-52696348D01*
X130820659Y-52655862D01*
X130824355Y-52655636D01*
X132047681Y-52599015D01*
X132051378Y-52598899D01*
X132663644Y-52588746D01*
X133275890Y-52578594D01*
X133279628Y-52578588D01*
X133831187Y-52585808D01*
G37*
G04 #@! TD.AperFunction*
G04 #@! TA.AperFunction,Conductor*
G36*
X161372026Y-80685144D02*
G01*
X161399875Y-80716994D01*
X161459987Y-80815088D01*
X161606250Y-80983938D01*
X161778126Y-81126632D01*
X161971000Y-81239338D01*
X162179692Y-81319030D01*
X162184760Y-81320061D01*
X162184763Y-81320062D01*
X162279862Y-81339410D01*
X162398597Y-81363567D01*
X162403772Y-81363757D01*
X162403774Y-81363757D01*
X162616673Y-81371564D01*
X162616677Y-81371564D01*
X162621837Y-81371753D01*
X162626957Y-81371097D01*
X162626959Y-81371097D01*
X162838288Y-81344025D01*
X162838289Y-81344025D01*
X162843416Y-81343368D01*
X162848367Y-81341883D01*
X162848370Y-81341882D01*
X162889829Y-81329444D01*
X162960825Y-81329028D01*
X163015131Y-81361035D01*
X169509595Y-87855499D01*
X169543621Y-87917811D01*
X169546500Y-87944594D01*
X169546500Y-108905406D01*
X169526498Y-108973527D01*
X169509595Y-108994501D01*
X159794500Y-118709595D01*
X159732188Y-118743621D01*
X159705405Y-118746500D01*
X140528767Y-118746500D01*
X140517584Y-118745973D01*
X140510091Y-118744298D01*
X140502165Y-118744547D01*
X140502164Y-118744547D01*
X140442014Y-118746438D01*
X140438055Y-118746500D01*
X140410144Y-118746500D01*
X140406210Y-118746997D01*
X140406209Y-118746997D01*
X140406144Y-118747005D01*
X140394307Y-118747938D01*
X140362049Y-118748952D01*
X140358030Y-118749078D01*
X140350111Y-118749327D01*
X140330657Y-118754979D01*
X140311300Y-118758987D01*
X140299070Y-118760532D01*
X140299069Y-118760532D01*
X140291203Y-118761526D01*
X140283832Y-118764445D01*
X140283830Y-118764445D01*
X140250088Y-118777804D01*
X140238858Y-118781649D01*
X140204017Y-118791771D01*
X140204016Y-118791771D01*
X140196407Y-118793982D01*
X140189588Y-118798015D01*
X140189583Y-118798017D01*
X140178972Y-118804293D01*
X140161224Y-118812988D01*
X140142383Y-118820448D01*
X140135967Y-118825110D01*
X140135966Y-118825110D01*
X140106613Y-118846436D01*
X140096693Y-118852952D01*
X140065465Y-118871420D01*
X140065462Y-118871422D01*
X140058638Y-118875458D01*
X140044317Y-118889779D01*
X140029284Y-118902619D01*
X140012893Y-118914528D01*
X140007842Y-118920634D01*
X139984702Y-118948605D01*
X139976712Y-118957384D01*
X136363248Y-122570848D01*
X136300936Y-122604874D01*
X136241541Y-122603459D01*
X136183409Y-122587882D01*
X136183398Y-122587880D01*
X136178087Y-122586457D01*
X135950000Y-122566502D01*
X135721913Y-122586457D01*
X135716600Y-122587881D01*
X135716598Y-122587881D01*
X135506067Y-122644293D01*
X135506065Y-122644294D01*
X135500757Y-122645716D01*
X135495776Y-122648039D01*
X135495775Y-122648039D01*
X135298238Y-122740151D01*
X135298233Y-122740154D01*
X135293251Y-122742477D01*
X135282706Y-122749861D01*
X135110211Y-122870643D01*
X135110208Y-122870645D01*
X135105700Y-122873802D01*
X134943802Y-123035700D01*
X134812477Y-123223251D01*
X134810154Y-123228233D01*
X134810151Y-123228238D01*
X134794195Y-123262457D01*
X134747278Y-123315742D01*
X134679001Y-123335203D01*
X134611041Y-123314661D01*
X134565805Y-123262457D01*
X134549849Y-123228238D01*
X134549846Y-123228233D01*
X134547523Y-123223251D01*
X134416198Y-123035700D01*
X134254300Y-122873802D01*
X134249792Y-122870645D01*
X134249789Y-122870643D01*
X134077294Y-122749861D01*
X134066749Y-122742477D01*
X134061767Y-122740154D01*
X134061762Y-122740151D01*
X133864225Y-122648039D01*
X133864224Y-122648039D01*
X133859243Y-122645716D01*
X133853935Y-122644294D01*
X133853933Y-122644293D01*
X133643402Y-122587881D01*
X133643400Y-122587881D01*
X133638087Y-122586457D01*
X133410000Y-122566502D01*
X133181913Y-122586457D01*
X133118458Y-122603460D01*
X133047482Y-122601770D01*
X132996753Y-122570848D01*
X119761652Y-109335747D01*
X119754112Y-109327461D01*
X119750000Y-109320982D01*
X119700348Y-109274356D01*
X119697507Y-109271602D01*
X119677770Y-109251865D01*
X119674573Y-109249385D01*
X119665551Y-109241680D01*
X119663823Y-109240057D01*
X119633321Y-109211414D01*
X119626375Y-109207595D01*
X119626372Y-109207593D01*
X119615566Y-109201652D01*
X119599047Y-109190801D01*
X119590512Y-109184181D01*
X119583041Y-109178386D01*
X119575772Y-109175241D01*
X119575768Y-109175238D01*
X119542463Y-109160826D01*
X119531813Y-109155609D01*
X119493060Y-109134305D01*
X119473437Y-109129267D01*
X119454734Y-109122863D01*
X119443420Y-109117967D01*
X119443419Y-109117967D01*
X119436145Y-109114819D01*
X119428322Y-109113580D01*
X119428312Y-109113577D01*
X119392476Y-109107901D01*
X119380856Y-109105495D01*
X119345711Y-109096472D01*
X119345710Y-109096472D01*
X119338030Y-109094500D01*
X119317776Y-109094500D01*
X119298065Y-109092949D01*
X119285886Y-109091020D01*
X119278057Y-109089780D01*
X119270165Y-109090526D01*
X119234039Y-109093941D01*
X119222181Y-109094500D01*
X107194805Y-109094500D01*
X107126684Y-109074498D01*
X107089013Y-109036940D01*
X107000822Y-108900617D01*
X107000820Y-108900614D01*
X106998014Y-108896277D01*
X106847670Y-108731051D01*
X106843619Y-108727852D01*
X106843615Y-108727848D01*
X106676414Y-108595800D01*
X106676410Y-108595798D01*
X106672359Y-108592598D01*
X106667831Y-108590098D01*
X106589345Y-108546772D01*
X106476789Y-108484638D01*
X106471920Y-108482914D01*
X106471916Y-108482912D01*
X106271087Y-108411795D01*
X106271083Y-108411794D01*
X106266212Y-108410069D01*
X106261119Y-108409162D01*
X106261116Y-108409161D01*
X106051373Y-108371800D01*
X106051367Y-108371799D01*
X106046284Y-108370894D01*
X105972452Y-108369992D01*
X105828081Y-108368228D01*
X105828079Y-108368228D01*
X105822911Y-108368165D01*
X105602091Y-108401955D01*
X105389756Y-108471357D01*
X105359443Y-108487137D01*
X105215975Y-108561822D01*
X105191607Y-108574507D01*
X105187474Y-108577610D01*
X105187471Y-108577612D01*
X105104450Y-108639946D01*
X105012965Y-108708635D01*
X104858629Y-108870138D01*
X104751201Y-109027621D01*
X104696293Y-109072621D01*
X104625768Y-109080792D01*
X104562021Y-109049538D01*
X104541324Y-109025054D01*
X104460822Y-108900617D01*
X104460820Y-108900614D01*
X104458014Y-108896277D01*
X104307670Y-108731051D01*
X104303619Y-108727852D01*
X104303615Y-108727848D01*
X104136414Y-108595800D01*
X104136410Y-108595798D01*
X104132359Y-108592598D01*
X104127831Y-108590098D01*
X104049345Y-108546772D01*
X103936789Y-108484638D01*
X103931920Y-108482914D01*
X103931916Y-108482912D01*
X103731087Y-108411795D01*
X103731083Y-108411794D01*
X103726212Y-108410069D01*
X103721119Y-108409162D01*
X103721116Y-108409161D01*
X103511373Y-108371800D01*
X103511367Y-108371799D01*
X103506284Y-108370894D01*
X103432452Y-108369992D01*
X103288081Y-108368228D01*
X103288079Y-108368228D01*
X103282911Y-108368165D01*
X103062091Y-108401955D01*
X102849756Y-108471357D01*
X102819443Y-108487137D01*
X102675975Y-108561822D01*
X102651607Y-108574507D01*
X102647474Y-108577610D01*
X102647471Y-108577612D01*
X102564450Y-108639946D01*
X102472965Y-108708635D01*
X102318629Y-108870138D01*
X102211201Y-109027621D01*
X102156293Y-109072621D01*
X102085768Y-109080792D01*
X102022021Y-109049538D01*
X102001324Y-109025054D01*
X101920822Y-108900617D01*
X101920820Y-108900614D01*
X101918014Y-108896277D01*
X101767670Y-108731051D01*
X101763619Y-108727852D01*
X101763615Y-108727848D01*
X101596414Y-108595800D01*
X101596410Y-108595798D01*
X101592359Y-108592598D01*
X101587835Y-108590101D01*
X101587831Y-108590098D01*
X101536608Y-108561822D01*
X101486636Y-108511390D01*
X101471500Y-108451513D01*
X101471500Y-107756595D01*
X101491502Y-107688474D01*
X101508405Y-107667499D01*
X101746070Y-107429835D01*
X101992258Y-107183647D01*
X102000537Y-107176113D01*
X102007018Y-107172000D01*
X102053644Y-107122348D01*
X102056398Y-107119507D01*
X102076135Y-107099770D01*
X102078615Y-107096573D01*
X102086320Y-107087551D01*
X102089247Y-107084434D01*
X102116586Y-107055321D01*
X102120405Y-107048375D01*
X102120407Y-107048372D01*
X102126348Y-107037566D01*
X102137199Y-107021047D01*
X102144756Y-107011304D01*
X102149614Y-107005041D01*
X102154374Y-106994042D01*
X102180915Y-106954989D01*
X106226752Y-102909152D01*
X106289064Y-102875126D01*
X106348459Y-102876541D01*
X106406591Y-102892118D01*
X106406602Y-102892120D01*
X106411913Y-102893543D01*
X106640000Y-102913498D01*
X106868087Y-102893543D01*
X106873400Y-102892119D01*
X106873402Y-102892119D01*
X107083933Y-102835707D01*
X107083935Y-102835706D01*
X107089243Y-102834284D01*
X107095235Y-102831490D01*
X107291762Y-102739849D01*
X107291767Y-102739846D01*
X107296749Y-102737523D01*
X107412182Y-102656696D01*
X107479789Y-102609357D01*
X107479792Y-102609355D01*
X107484300Y-102606198D01*
X107646198Y-102444300D01*
X107777523Y-102256749D01*
X107779846Y-102251767D01*
X107779849Y-102251762D01*
X107871961Y-102054225D01*
X107871961Y-102054224D01*
X107874284Y-102049243D01*
X107879613Y-102029357D01*
X107932119Y-101833402D01*
X107932119Y-101833400D01*
X107933543Y-101828087D01*
X107953498Y-101600000D01*
X107933543Y-101371913D01*
X107912161Y-101292115D01*
X107910662Y-101286522D01*
X111807273Y-101286522D01*
X111854764Y-101463761D01*
X111858510Y-101474053D01*
X111950586Y-101671511D01*
X111956069Y-101681007D01*
X112081028Y-101859467D01*
X112088084Y-101867875D01*
X112242125Y-102021916D01*
X112250533Y-102028972D01*
X112428993Y-102153931D01*
X112438489Y-102159414D01*
X112635947Y-102251490D01*
X112646239Y-102255236D01*
X112818503Y-102301394D01*
X112832599Y-102301058D01*
X112836000Y-102293116D01*
X112836000Y-101292115D01*
X112831525Y-101276876D01*
X112830135Y-101275671D01*
X112822452Y-101274000D01*
X111822033Y-101274000D01*
X111808502Y-101277973D01*
X111807273Y-101286522D01*
X107910662Y-101286522D01*
X107875707Y-101156067D01*
X107875706Y-101156065D01*
X107874284Y-101150757D01*
X107817394Y-101028755D01*
X107779849Y-100948238D01*
X107779846Y-100948233D01*
X107777523Y-100943251D01*
X107646198Y-100755700D01*
X107639001Y-100748503D01*
X111808606Y-100748503D01*
X111808942Y-100762599D01*
X111816884Y-100766000D01*
X112817885Y-100766000D01*
X112833124Y-100761525D01*
X112834329Y-100760135D01*
X112836000Y-100752452D01*
X112836000Y-99752033D01*
X112832027Y-99738502D01*
X112823478Y-99737273D01*
X112646239Y-99784764D01*
X112635947Y-99788510D01*
X112438489Y-99880586D01*
X112428993Y-99886069D01*
X112250533Y-100011028D01*
X112242125Y-100018084D01*
X112088084Y-100172125D01*
X112081028Y-100180533D01*
X111956069Y-100358993D01*
X111950586Y-100368489D01*
X111858510Y-100565947D01*
X111854764Y-100576239D01*
X111808606Y-100748503D01*
X107639001Y-100748503D01*
X107484300Y-100593802D01*
X107451389Y-100570757D01*
X107387059Y-100525713D01*
X107367228Y-100511827D01*
X107322901Y-100456371D01*
X107313500Y-100408615D01*
X107313500Y-95082206D01*
X107333502Y-95014085D01*
X107360547Y-94984010D01*
X107401800Y-94950842D01*
X107401805Y-94950837D01*
X107406601Y-94946981D01*
X107536881Y-94791719D01*
X107539845Y-94786327D01*
X107539848Y-94786323D01*
X107598959Y-94678799D01*
X107649304Y-94628741D01*
X107709374Y-94613500D01*
X113985406Y-94613500D01*
X114053527Y-94633502D01*
X114074501Y-94650405D01*
X116336343Y-96912247D01*
X116343887Y-96920537D01*
X116348000Y-96927018D01*
X116353777Y-96932443D01*
X116397667Y-96973658D01*
X116400509Y-96976413D01*
X116420230Y-96996134D01*
X116423425Y-96998612D01*
X116432447Y-97006318D01*
X116464679Y-97036586D01*
X116471628Y-97040406D01*
X116482432Y-97046346D01*
X116498956Y-97057199D01*
X116514959Y-97069613D01*
X116555543Y-97087176D01*
X116566173Y-97092383D01*
X116604940Y-97113695D01*
X116612617Y-97115666D01*
X116612622Y-97115668D01*
X116624558Y-97118732D01*
X116643266Y-97125137D01*
X116661855Y-97133181D01*
X116669680Y-97134420D01*
X116669682Y-97134421D01*
X116705519Y-97140097D01*
X116717140Y-97142504D01*
X116748959Y-97150673D01*
X116759970Y-97153500D01*
X116780231Y-97153500D01*
X116799940Y-97155051D01*
X116819943Y-97158219D01*
X116827835Y-97157473D01*
X116833062Y-97156979D01*
X116863954Y-97154059D01*
X116875811Y-97153500D01*
X118296406Y-97153500D01*
X118364527Y-97173502D01*
X118411020Y-97227158D01*
X118421124Y-97297432D01*
X118391630Y-97362012D01*
X118385501Y-97368595D01*
X116043248Y-99710848D01*
X115980936Y-99744874D01*
X115921541Y-99743459D01*
X115863409Y-99727882D01*
X115863398Y-99727880D01*
X115858087Y-99726457D01*
X115630000Y-99706502D01*
X115401913Y-99726457D01*
X115396600Y-99727881D01*
X115396598Y-99727881D01*
X115186067Y-99784293D01*
X115186065Y-99784294D01*
X115180757Y-99785716D01*
X115175776Y-99788039D01*
X115175775Y-99788039D01*
X114978238Y-99880151D01*
X114978233Y-99880154D01*
X114973251Y-99882477D01*
X114868389Y-99955902D01*
X114790211Y-100010643D01*
X114790208Y-100010645D01*
X114785700Y-100013802D01*
X114623802Y-100175700D01*
X114620645Y-100180208D01*
X114620643Y-100180211D01*
X114575803Y-100244250D01*
X114492477Y-100363251D01*
X114490154Y-100368233D01*
X114490151Y-100368238D01*
X114473919Y-100403049D01*
X114427002Y-100456334D01*
X114358725Y-100475795D01*
X114290765Y-100455253D01*
X114245529Y-100403049D01*
X114229414Y-100368489D01*
X114223931Y-100358993D01*
X114098972Y-100180533D01*
X114091916Y-100172125D01*
X113937875Y-100018084D01*
X113929467Y-100011028D01*
X113751007Y-99886069D01*
X113741511Y-99880586D01*
X113544053Y-99788510D01*
X113533761Y-99784764D01*
X113361497Y-99738606D01*
X113347401Y-99738942D01*
X113344000Y-99746884D01*
X113344000Y-102287967D01*
X113347973Y-102301498D01*
X113356522Y-102302727D01*
X113533761Y-102255236D01*
X113544053Y-102251490D01*
X113741511Y-102159414D01*
X113751007Y-102153931D01*
X113929467Y-102028972D01*
X113937875Y-102021916D01*
X114091916Y-101867875D01*
X114098972Y-101859467D01*
X114223931Y-101681007D01*
X114229414Y-101671511D01*
X114245529Y-101636951D01*
X114292446Y-101583666D01*
X114360723Y-101564205D01*
X114428683Y-101584747D01*
X114473919Y-101636951D01*
X114490151Y-101671762D01*
X114490154Y-101671767D01*
X114492477Y-101676749D01*
X114495634Y-101681257D01*
X114594547Y-101822519D01*
X114623802Y-101864300D01*
X114785700Y-102026198D01*
X114790208Y-102029355D01*
X114790211Y-102029357D01*
X114868389Y-102084098D01*
X114973251Y-102157523D01*
X114978233Y-102159846D01*
X114978238Y-102159849D01*
X115175775Y-102251961D01*
X115180757Y-102254284D01*
X115186065Y-102255706D01*
X115186067Y-102255707D01*
X115396598Y-102312119D01*
X115396600Y-102312119D01*
X115401913Y-102313543D01*
X115630000Y-102333498D01*
X115858087Y-102313543D01*
X115863400Y-102312119D01*
X115863402Y-102312119D01*
X116073933Y-102255707D01*
X116073935Y-102255706D01*
X116079243Y-102254284D01*
X116084225Y-102251961D01*
X116281762Y-102159849D01*
X116281767Y-102159846D01*
X116286749Y-102157523D01*
X116391611Y-102084098D01*
X116469789Y-102029357D01*
X116469792Y-102029355D01*
X116474300Y-102026198D01*
X116636198Y-101864300D01*
X116665454Y-101822519D01*
X116764366Y-101681257D01*
X116767523Y-101676749D01*
X116769846Y-101671767D01*
X116769849Y-101671762D01*
X116785805Y-101637543D01*
X116832722Y-101584258D01*
X116900999Y-101564797D01*
X116968959Y-101585339D01*
X117014195Y-101637543D01*
X117030151Y-101671762D01*
X117030154Y-101671767D01*
X117032477Y-101676749D01*
X117035634Y-101681257D01*
X117134547Y-101822519D01*
X117163802Y-101864300D01*
X117325700Y-102026198D01*
X117330208Y-102029355D01*
X117330211Y-102029357D01*
X117408389Y-102084098D01*
X117513251Y-102157523D01*
X117518233Y-102159846D01*
X117518238Y-102159849D01*
X117715775Y-102251961D01*
X117720757Y-102254284D01*
X117726065Y-102255706D01*
X117726067Y-102255707D01*
X117936598Y-102312119D01*
X117936600Y-102312119D01*
X117941913Y-102313543D01*
X118170000Y-102333498D01*
X118398087Y-102313543D01*
X118403400Y-102312119D01*
X118403402Y-102312119D01*
X118613933Y-102255707D01*
X118613935Y-102255706D01*
X118619243Y-102254284D01*
X118624225Y-102251961D01*
X118821762Y-102159849D01*
X118821767Y-102159846D01*
X118826749Y-102157523D01*
X118931611Y-102084098D01*
X119009789Y-102029357D01*
X119009792Y-102029355D01*
X119014300Y-102026198D01*
X119176198Y-101864300D01*
X119205454Y-101822519D01*
X119304366Y-101681257D01*
X119307523Y-101676749D01*
X119309846Y-101671767D01*
X119309849Y-101671762D01*
X119325805Y-101637543D01*
X119372722Y-101584258D01*
X119440999Y-101564797D01*
X119508959Y-101585339D01*
X119554195Y-101637543D01*
X119570151Y-101671762D01*
X119570154Y-101671767D01*
X119572477Y-101676749D01*
X119575634Y-101681257D01*
X119674547Y-101822519D01*
X119703802Y-101864300D01*
X119865700Y-102026198D01*
X119870208Y-102029355D01*
X119870211Y-102029357D01*
X119948389Y-102084098D01*
X120053251Y-102157523D01*
X120058233Y-102159846D01*
X120058238Y-102159849D01*
X120255775Y-102251961D01*
X120260757Y-102254284D01*
X120266065Y-102255706D01*
X120266067Y-102255707D01*
X120476598Y-102312119D01*
X120476600Y-102312119D01*
X120481913Y-102313543D01*
X120710000Y-102333498D01*
X120938087Y-102313543D01*
X120943400Y-102312119D01*
X120943402Y-102312119D01*
X121153933Y-102255707D01*
X121153935Y-102255706D01*
X121159243Y-102254284D01*
X121164225Y-102251961D01*
X121361762Y-102159849D01*
X121361767Y-102159846D01*
X121366749Y-102157523D01*
X121471611Y-102084098D01*
X121549789Y-102029357D01*
X121549792Y-102029355D01*
X121554300Y-102026198D01*
X121716198Y-101864300D01*
X121745454Y-101822519D01*
X121844366Y-101681257D01*
X121847523Y-101676749D01*
X121849846Y-101671767D01*
X121849849Y-101671762D01*
X121865805Y-101637543D01*
X121912722Y-101584258D01*
X121980999Y-101564797D01*
X122048959Y-101585339D01*
X122094195Y-101637543D01*
X122110151Y-101671762D01*
X122110154Y-101671767D01*
X122112477Y-101676749D01*
X122115634Y-101681257D01*
X122214547Y-101822519D01*
X122243802Y-101864300D01*
X122405700Y-102026198D01*
X122410208Y-102029355D01*
X122410211Y-102029357D01*
X122488389Y-102084098D01*
X122593251Y-102157523D01*
X122598233Y-102159846D01*
X122598238Y-102159849D01*
X122795775Y-102251961D01*
X122800757Y-102254284D01*
X122806065Y-102255706D01*
X122806067Y-102255707D01*
X123016598Y-102312119D01*
X123016600Y-102312119D01*
X123021913Y-102313543D01*
X123250000Y-102333498D01*
X123478087Y-102313543D01*
X123483400Y-102312119D01*
X123483402Y-102312119D01*
X123693933Y-102255707D01*
X123693935Y-102255706D01*
X123699243Y-102254284D01*
X123704225Y-102251961D01*
X123901762Y-102159849D01*
X123901767Y-102159846D01*
X123906749Y-102157523D01*
X124011611Y-102084098D01*
X124089789Y-102029357D01*
X124089792Y-102029355D01*
X124094300Y-102026198D01*
X124256198Y-101864300D01*
X124285454Y-101822519D01*
X124384366Y-101681257D01*
X124387523Y-101676749D01*
X124389846Y-101671767D01*
X124389849Y-101671762D01*
X124405805Y-101637543D01*
X124452722Y-101584258D01*
X124520999Y-101564797D01*
X124588959Y-101585339D01*
X124634195Y-101637543D01*
X124650151Y-101671762D01*
X124650154Y-101671767D01*
X124652477Y-101676749D01*
X124655634Y-101681257D01*
X124754547Y-101822519D01*
X124783802Y-101864300D01*
X124945700Y-102026198D01*
X124950208Y-102029355D01*
X124950211Y-102029357D01*
X125028389Y-102084098D01*
X125133251Y-102157523D01*
X125138233Y-102159846D01*
X125138238Y-102159849D01*
X125335775Y-102251961D01*
X125340757Y-102254284D01*
X125346065Y-102255706D01*
X125346067Y-102255707D01*
X125556598Y-102312119D01*
X125556600Y-102312119D01*
X125561913Y-102313543D01*
X125790000Y-102333498D01*
X126018087Y-102313543D01*
X126023400Y-102312119D01*
X126023402Y-102312119D01*
X126233933Y-102255707D01*
X126233935Y-102255706D01*
X126239243Y-102254284D01*
X126244225Y-102251961D01*
X126441762Y-102159849D01*
X126441767Y-102159846D01*
X126446749Y-102157523D01*
X126551611Y-102084098D01*
X126629789Y-102029357D01*
X126629792Y-102029355D01*
X126634300Y-102026198D01*
X126796198Y-101864300D01*
X126825454Y-101822519D01*
X126924366Y-101681257D01*
X126927523Y-101676749D01*
X126929846Y-101671767D01*
X126929849Y-101671762D01*
X126946081Y-101636951D01*
X126992998Y-101583666D01*
X127061275Y-101564205D01*
X127129235Y-101584747D01*
X127174471Y-101636951D01*
X127190586Y-101671511D01*
X127196069Y-101681007D01*
X127321028Y-101859467D01*
X127328084Y-101867875D01*
X127482125Y-102021916D01*
X127490533Y-102028972D01*
X127668993Y-102153931D01*
X127678489Y-102159414D01*
X127875947Y-102251490D01*
X127886239Y-102255236D01*
X128058503Y-102301394D01*
X128072599Y-102301058D01*
X128076000Y-102293116D01*
X128076000Y-100892000D01*
X128096002Y-100823879D01*
X128149658Y-100777386D01*
X128202000Y-100766000D01*
X128458000Y-100766000D01*
X128526121Y-100786002D01*
X128572614Y-100839658D01*
X128584000Y-100892000D01*
X128584000Y-102287967D01*
X128587973Y-102301498D01*
X128596522Y-102302727D01*
X128773761Y-102255236D01*
X128784053Y-102251490D01*
X128981511Y-102159414D01*
X128991007Y-102153931D01*
X129169467Y-102028972D01*
X129177875Y-102021916D01*
X129331916Y-101867875D01*
X129338972Y-101859467D01*
X129463931Y-101681007D01*
X129469414Y-101671511D01*
X129485529Y-101636951D01*
X129532446Y-101583666D01*
X129600723Y-101564205D01*
X129668683Y-101584747D01*
X129713919Y-101636951D01*
X129730151Y-101671762D01*
X129730154Y-101671767D01*
X129732477Y-101676749D01*
X129735634Y-101681257D01*
X129834547Y-101822519D01*
X129863802Y-101864300D01*
X130025700Y-102026198D01*
X130030208Y-102029355D01*
X130030211Y-102029357D01*
X130108389Y-102084098D01*
X130213251Y-102157523D01*
X130218233Y-102159846D01*
X130218238Y-102159849D01*
X130415775Y-102251961D01*
X130420757Y-102254284D01*
X130426065Y-102255706D01*
X130426067Y-102255707D01*
X130636598Y-102312119D01*
X130636600Y-102312119D01*
X130641913Y-102313543D01*
X130870000Y-102333498D01*
X131098087Y-102313543D01*
X131103400Y-102312119D01*
X131103402Y-102312119D01*
X131313933Y-102255707D01*
X131313935Y-102255706D01*
X131319243Y-102254284D01*
X131324225Y-102251961D01*
X131521762Y-102159849D01*
X131521767Y-102159846D01*
X131526749Y-102157523D01*
X131631611Y-102084098D01*
X131709789Y-102029357D01*
X131709792Y-102029355D01*
X131714300Y-102026198D01*
X131876198Y-101864300D01*
X131905454Y-101822519D01*
X132004366Y-101681257D01*
X132007523Y-101676749D01*
X132009846Y-101671767D01*
X132009849Y-101671762D01*
X132025805Y-101637543D01*
X132072722Y-101584258D01*
X132140999Y-101564797D01*
X132208959Y-101585339D01*
X132254195Y-101637543D01*
X132270151Y-101671762D01*
X132270154Y-101671767D01*
X132272477Y-101676749D01*
X132275634Y-101681257D01*
X132374547Y-101822519D01*
X132403802Y-101864300D01*
X132565700Y-102026198D01*
X132570208Y-102029355D01*
X132570211Y-102029357D01*
X132648389Y-102084098D01*
X132753251Y-102157523D01*
X132758233Y-102159846D01*
X132758238Y-102159849D01*
X132955775Y-102251961D01*
X132960757Y-102254284D01*
X132966065Y-102255706D01*
X132966067Y-102255707D01*
X133176598Y-102312119D01*
X133176600Y-102312119D01*
X133181913Y-102313543D01*
X133410000Y-102333498D01*
X133638087Y-102313543D01*
X133643400Y-102312119D01*
X133643402Y-102312119D01*
X133853933Y-102255707D01*
X133853935Y-102255706D01*
X133859243Y-102254284D01*
X133864225Y-102251961D01*
X134061762Y-102159849D01*
X134061767Y-102159846D01*
X134066749Y-102157523D01*
X134171611Y-102084098D01*
X134249789Y-102029357D01*
X134249792Y-102029355D01*
X134254300Y-102026198D01*
X134416198Y-101864300D01*
X134445454Y-101822519D01*
X134544366Y-101681257D01*
X134547523Y-101676749D01*
X134549846Y-101671767D01*
X134549849Y-101671762D01*
X134565805Y-101637543D01*
X134612722Y-101584258D01*
X134680999Y-101564797D01*
X134748959Y-101585339D01*
X134794195Y-101637543D01*
X134810151Y-101671762D01*
X134810154Y-101671767D01*
X134812477Y-101676749D01*
X134815634Y-101681257D01*
X134914547Y-101822519D01*
X134943802Y-101864300D01*
X135105700Y-102026198D01*
X135110208Y-102029355D01*
X135110211Y-102029357D01*
X135188389Y-102084098D01*
X135293251Y-102157523D01*
X135298233Y-102159846D01*
X135298238Y-102159849D01*
X135495775Y-102251961D01*
X135500757Y-102254284D01*
X135506065Y-102255706D01*
X135506067Y-102255707D01*
X135716598Y-102312119D01*
X135716600Y-102312119D01*
X135721913Y-102313543D01*
X135950000Y-102333498D01*
X136178087Y-102313543D01*
X136183400Y-102312119D01*
X136183402Y-102312119D01*
X136393933Y-102255707D01*
X136393935Y-102255706D01*
X136399243Y-102254284D01*
X136404225Y-102251961D01*
X136601762Y-102159849D01*
X136601767Y-102159846D01*
X136606749Y-102157523D01*
X136711611Y-102084098D01*
X136789789Y-102029357D01*
X136789792Y-102029355D01*
X136794300Y-102026198D01*
X136956198Y-101864300D01*
X136985454Y-101822519D01*
X137084366Y-101681257D01*
X137087523Y-101676749D01*
X137089846Y-101671767D01*
X137089849Y-101671762D01*
X137105805Y-101637543D01*
X137152722Y-101584258D01*
X137220999Y-101564797D01*
X137288959Y-101585339D01*
X137334195Y-101637543D01*
X137350151Y-101671762D01*
X137350154Y-101671767D01*
X137352477Y-101676749D01*
X137355634Y-101681257D01*
X137454547Y-101822519D01*
X137483802Y-101864300D01*
X137645700Y-102026198D01*
X137650208Y-102029355D01*
X137650211Y-102029357D01*
X137728389Y-102084098D01*
X137833251Y-102157523D01*
X137838233Y-102159846D01*
X137838238Y-102159849D01*
X138035775Y-102251961D01*
X138040757Y-102254284D01*
X138046065Y-102255706D01*
X138046067Y-102255707D01*
X138256598Y-102312119D01*
X138256600Y-102312119D01*
X138261913Y-102313543D01*
X138490000Y-102333498D01*
X138718087Y-102313543D01*
X138723400Y-102312119D01*
X138723402Y-102312119D01*
X138933933Y-102255707D01*
X138933935Y-102255706D01*
X138939243Y-102254284D01*
X138944225Y-102251961D01*
X139141762Y-102159849D01*
X139141767Y-102159846D01*
X139146749Y-102157523D01*
X139251611Y-102084098D01*
X139329789Y-102029357D01*
X139329792Y-102029355D01*
X139334300Y-102026198D01*
X139496198Y-101864300D01*
X139525454Y-101822519D01*
X139624366Y-101681257D01*
X139627523Y-101676749D01*
X139629846Y-101671767D01*
X139629849Y-101671762D01*
X139645805Y-101637543D01*
X139692722Y-101584258D01*
X139760999Y-101564797D01*
X139828959Y-101585339D01*
X139874195Y-101637543D01*
X139890151Y-101671762D01*
X139890154Y-101671767D01*
X139892477Y-101676749D01*
X139895634Y-101681257D01*
X139994547Y-101822519D01*
X140023802Y-101864300D01*
X140185700Y-102026198D01*
X140190208Y-102029355D01*
X140190211Y-102029357D01*
X140268389Y-102084098D01*
X140373251Y-102157523D01*
X140378233Y-102159846D01*
X140378238Y-102159849D01*
X140575775Y-102251961D01*
X140580757Y-102254284D01*
X140586065Y-102255706D01*
X140586067Y-102255707D01*
X140796598Y-102312119D01*
X140796600Y-102312119D01*
X140801913Y-102313543D01*
X141030000Y-102333498D01*
X141258087Y-102313543D01*
X141263400Y-102312119D01*
X141263402Y-102312119D01*
X141473933Y-102255707D01*
X141473935Y-102255706D01*
X141479243Y-102254284D01*
X141484225Y-102251961D01*
X141681762Y-102159849D01*
X141681767Y-102159846D01*
X141686749Y-102157523D01*
X141791611Y-102084098D01*
X141869789Y-102029357D01*
X141869792Y-102029355D01*
X141874300Y-102026198D01*
X142036198Y-101864300D01*
X142065454Y-101822519D01*
X142164366Y-101681257D01*
X142167523Y-101676749D01*
X142169846Y-101671767D01*
X142169849Y-101671762D01*
X142185805Y-101637543D01*
X142232722Y-101584258D01*
X142300999Y-101564797D01*
X142368959Y-101585339D01*
X142414195Y-101637543D01*
X142430151Y-101671762D01*
X142430154Y-101671767D01*
X142432477Y-101676749D01*
X142435634Y-101681257D01*
X142534547Y-101822519D01*
X142563802Y-101864300D01*
X142725700Y-102026198D01*
X142730208Y-102029355D01*
X142730211Y-102029357D01*
X142808389Y-102084098D01*
X142913251Y-102157523D01*
X142918233Y-102159846D01*
X142918238Y-102159849D01*
X143115775Y-102251961D01*
X143120757Y-102254284D01*
X143126065Y-102255706D01*
X143126067Y-102255707D01*
X143336598Y-102312119D01*
X143336600Y-102312119D01*
X143341913Y-102313543D01*
X143570000Y-102333498D01*
X143798087Y-102313543D01*
X143803400Y-102312119D01*
X143803402Y-102312119D01*
X144013933Y-102255707D01*
X144013935Y-102255706D01*
X144019243Y-102254284D01*
X144024225Y-102251961D01*
X144221762Y-102159849D01*
X144221767Y-102159846D01*
X144226749Y-102157523D01*
X144331611Y-102084098D01*
X144409789Y-102029357D01*
X144409792Y-102029355D01*
X144414300Y-102026198D01*
X144576198Y-101864300D01*
X144605454Y-101822519D01*
X144704366Y-101681257D01*
X144707523Y-101676749D01*
X144709846Y-101671767D01*
X144709849Y-101671762D01*
X144725805Y-101637543D01*
X144772722Y-101584258D01*
X144840999Y-101564797D01*
X144908959Y-101585339D01*
X144954195Y-101637543D01*
X144970151Y-101671762D01*
X144970154Y-101671767D01*
X144972477Y-101676749D01*
X144975634Y-101681257D01*
X145074547Y-101822519D01*
X145103802Y-101864300D01*
X145265700Y-102026198D01*
X145270208Y-102029355D01*
X145270211Y-102029357D01*
X145348389Y-102084098D01*
X145453251Y-102157523D01*
X145458233Y-102159846D01*
X145458238Y-102159849D01*
X145655775Y-102251961D01*
X145660757Y-102254284D01*
X145666065Y-102255706D01*
X145666067Y-102255707D01*
X145876598Y-102312119D01*
X145876600Y-102312119D01*
X145881913Y-102313543D01*
X146110000Y-102333498D01*
X146338087Y-102313543D01*
X146343400Y-102312119D01*
X146343402Y-102312119D01*
X146553933Y-102255707D01*
X146553935Y-102255706D01*
X146559243Y-102254284D01*
X146564225Y-102251961D01*
X146761762Y-102159849D01*
X146761767Y-102159846D01*
X146766749Y-102157523D01*
X146871611Y-102084098D01*
X146949789Y-102029357D01*
X146949792Y-102029355D01*
X146954300Y-102026198D01*
X147116198Y-101864300D01*
X147145454Y-101822519D01*
X147244366Y-101681257D01*
X147247523Y-101676749D01*
X147249846Y-101671767D01*
X147249849Y-101671762D01*
X147265805Y-101637543D01*
X147312722Y-101584258D01*
X147380999Y-101564797D01*
X147448959Y-101585339D01*
X147494195Y-101637543D01*
X147510151Y-101671762D01*
X147510154Y-101671767D01*
X147512477Y-101676749D01*
X147515634Y-101681257D01*
X147614547Y-101822519D01*
X147643802Y-101864300D01*
X147805700Y-102026198D01*
X147810208Y-102029355D01*
X147810211Y-102029357D01*
X147888389Y-102084098D01*
X147993251Y-102157523D01*
X147998233Y-102159846D01*
X147998238Y-102159849D01*
X148195775Y-102251961D01*
X148200757Y-102254284D01*
X148206065Y-102255706D01*
X148206067Y-102255707D01*
X148416598Y-102312119D01*
X148416600Y-102312119D01*
X148421913Y-102313543D01*
X148650000Y-102333498D01*
X148878087Y-102313543D01*
X148883400Y-102312119D01*
X148883402Y-102312119D01*
X149093933Y-102255707D01*
X149093935Y-102255706D01*
X149099243Y-102254284D01*
X149104225Y-102251961D01*
X149301762Y-102159849D01*
X149301767Y-102159846D01*
X149306749Y-102157523D01*
X149411611Y-102084098D01*
X149489789Y-102029357D01*
X149489792Y-102029355D01*
X149494300Y-102026198D01*
X149656198Y-101864300D01*
X149685454Y-101822519D01*
X149784366Y-101681257D01*
X149787523Y-101676749D01*
X149789846Y-101671767D01*
X149789849Y-101671762D01*
X149805805Y-101637543D01*
X149852722Y-101584258D01*
X149920999Y-101564797D01*
X149988959Y-101585339D01*
X150034195Y-101637543D01*
X150050151Y-101671762D01*
X150050154Y-101671767D01*
X150052477Y-101676749D01*
X150055634Y-101681257D01*
X150154547Y-101822519D01*
X150183802Y-101864300D01*
X150345700Y-102026198D01*
X150350208Y-102029355D01*
X150350211Y-102029357D01*
X150428389Y-102084098D01*
X150533251Y-102157523D01*
X150538233Y-102159846D01*
X150538238Y-102159849D01*
X150735775Y-102251961D01*
X150740757Y-102254284D01*
X150746065Y-102255706D01*
X150746067Y-102255707D01*
X150956598Y-102312119D01*
X150956600Y-102312119D01*
X150961913Y-102313543D01*
X151190000Y-102333498D01*
X151418087Y-102313543D01*
X151423400Y-102312119D01*
X151423402Y-102312119D01*
X151633933Y-102255707D01*
X151633935Y-102255706D01*
X151639243Y-102254284D01*
X151644225Y-102251961D01*
X151841762Y-102159849D01*
X151841767Y-102159846D01*
X151846749Y-102157523D01*
X151951611Y-102084098D01*
X152029789Y-102029357D01*
X152029792Y-102029355D01*
X152034300Y-102026198D01*
X152196198Y-101864300D01*
X152225454Y-101822519D01*
X152324366Y-101681257D01*
X152327523Y-101676749D01*
X152329846Y-101671767D01*
X152329849Y-101671762D01*
X152345805Y-101637543D01*
X152392722Y-101584258D01*
X152460999Y-101564797D01*
X152528959Y-101585339D01*
X152574195Y-101637543D01*
X152590151Y-101671762D01*
X152590154Y-101671767D01*
X152592477Y-101676749D01*
X152595634Y-101681257D01*
X152694547Y-101822519D01*
X152723802Y-101864300D01*
X152885700Y-102026198D01*
X152890208Y-102029355D01*
X152890211Y-102029357D01*
X152968389Y-102084098D01*
X153073251Y-102157523D01*
X153078233Y-102159846D01*
X153078238Y-102159849D01*
X153275775Y-102251961D01*
X153280757Y-102254284D01*
X153286065Y-102255706D01*
X153286067Y-102255707D01*
X153496598Y-102312119D01*
X153496600Y-102312119D01*
X153501913Y-102313543D01*
X153730000Y-102333498D01*
X153958087Y-102313543D01*
X153963400Y-102312119D01*
X153963402Y-102312119D01*
X154173933Y-102255707D01*
X154173935Y-102255706D01*
X154179243Y-102254284D01*
X154184225Y-102251961D01*
X154381762Y-102159849D01*
X154381767Y-102159846D01*
X154386749Y-102157523D01*
X154491611Y-102084098D01*
X154569789Y-102029357D01*
X154569792Y-102029355D01*
X154574300Y-102026198D01*
X154736198Y-101864300D01*
X154765454Y-101822519D01*
X154864366Y-101681257D01*
X154867523Y-101676749D01*
X154869846Y-101671767D01*
X154869849Y-101671762D01*
X154885805Y-101637543D01*
X154932722Y-101584258D01*
X155000999Y-101564797D01*
X155068959Y-101585339D01*
X155114195Y-101637543D01*
X155130151Y-101671762D01*
X155130154Y-101671767D01*
X155132477Y-101676749D01*
X155135634Y-101681257D01*
X155234547Y-101822519D01*
X155263802Y-101864300D01*
X155425700Y-102026198D01*
X155430208Y-102029355D01*
X155430211Y-102029357D01*
X155508389Y-102084098D01*
X155613251Y-102157523D01*
X155618233Y-102159846D01*
X155618238Y-102159849D01*
X155815775Y-102251961D01*
X155820757Y-102254284D01*
X155826065Y-102255706D01*
X155826067Y-102255707D01*
X156036598Y-102312119D01*
X156036600Y-102312119D01*
X156041913Y-102313543D01*
X156270000Y-102333498D01*
X156498087Y-102313543D01*
X156503400Y-102312119D01*
X156503402Y-102312119D01*
X156713933Y-102255707D01*
X156713935Y-102255706D01*
X156719243Y-102254284D01*
X156724225Y-102251961D01*
X156921762Y-102159849D01*
X156921767Y-102159846D01*
X156926749Y-102157523D01*
X157031611Y-102084098D01*
X157109789Y-102029357D01*
X157109792Y-102029355D01*
X157114300Y-102026198D01*
X157276198Y-101864300D01*
X157305454Y-101822519D01*
X157404366Y-101681257D01*
X157407523Y-101676749D01*
X157409846Y-101671767D01*
X157409849Y-101671762D01*
X157425805Y-101637543D01*
X157472722Y-101584258D01*
X157540999Y-101564797D01*
X157608959Y-101585339D01*
X157654195Y-101637543D01*
X157670151Y-101671762D01*
X157670154Y-101671767D01*
X157672477Y-101676749D01*
X157675634Y-101681257D01*
X157774547Y-101822519D01*
X157803802Y-101864300D01*
X157965700Y-102026198D01*
X157970208Y-102029355D01*
X157970211Y-102029357D01*
X158048389Y-102084098D01*
X158153251Y-102157523D01*
X158158233Y-102159846D01*
X158158238Y-102159849D01*
X158355775Y-102251961D01*
X158360757Y-102254284D01*
X158366065Y-102255706D01*
X158366067Y-102255707D01*
X158576598Y-102312119D01*
X158576600Y-102312119D01*
X158581913Y-102313543D01*
X158810000Y-102333498D01*
X159038087Y-102313543D01*
X159043400Y-102312119D01*
X159043402Y-102312119D01*
X159253933Y-102255707D01*
X159253935Y-102255706D01*
X159259243Y-102254284D01*
X159264225Y-102251961D01*
X159461762Y-102159849D01*
X159461767Y-102159846D01*
X159466749Y-102157523D01*
X159571611Y-102084098D01*
X159649789Y-102029357D01*
X159649792Y-102029355D01*
X159654300Y-102026198D01*
X159816198Y-101864300D01*
X159845454Y-101822519D01*
X159944366Y-101681257D01*
X159947523Y-101676749D01*
X159949846Y-101671767D01*
X159949849Y-101671762D01*
X160041961Y-101474225D01*
X160041961Y-101474224D01*
X160044284Y-101469243D01*
X160103543Y-101248087D01*
X160123498Y-101020000D01*
X160103543Y-100791913D01*
X160101959Y-100786002D01*
X160045707Y-100576067D01*
X160045706Y-100576065D01*
X160044284Y-100570757D01*
X160012460Y-100502509D01*
X159949849Y-100368238D01*
X159949846Y-100368233D01*
X159947523Y-100363251D01*
X159864197Y-100244250D01*
X159819357Y-100180211D01*
X159819355Y-100180208D01*
X159816198Y-100175700D01*
X159654300Y-100013802D01*
X159649792Y-100010645D01*
X159649789Y-100010643D01*
X159571611Y-99955902D01*
X159466749Y-99882477D01*
X159461767Y-99880154D01*
X159461762Y-99880151D01*
X159264225Y-99788039D01*
X159264224Y-99788039D01*
X159259243Y-99785716D01*
X159253935Y-99784294D01*
X159253933Y-99784293D01*
X159043402Y-99727881D01*
X159043400Y-99727881D01*
X159038087Y-99726457D01*
X158810000Y-99706502D01*
X158581913Y-99726457D01*
X158576600Y-99727881D01*
X158576598Y-99727881D01*
X158366067Y-99784293D01*
X158366065Y-99784294D01*
X158360757Y-99785716D01*
X158355776Y-99788039D01*
X158355775Y-99788039D01*
X158158238Y-99880151D01*
X158158233Y-99880154D01*
X158153251Y-99882477D01*
X158048389Y-99955902D01*
X157970211Y-100010643D01*
X157970208Y-100010645D01*
X157965700Y-100013802D01*
X157803802Y-100175700D01*
X157800645Y-100180208D01*
X157800643Y-100180211D01*
X157755803Y-100244250D01*
X157672477Y-100363251D01*
X157670154Y-100368233D01*
X157670151Y-100368238D01*
X157654195Y-100402457D01*
X157607278Y-100455742D01*
X157539001Y-100475203D01*
X157471041Y-100454661D01*
X157425805Y-100402457D01*
X157409849Y-100368238D01*
X157409846Y-100368233D01*
X157407523Y-100363251D01*
X157324197Y-100244250D01*
X157279357Y-100180211D01*
X157279355Y-100180208D01*
X157276198Y-100175700D01*
X157114300Y-100013802D01*
X157109792Y-100010645D01*
X157109789Y-100010643D01*
X157031611Y-99955902D01*
X156926749Y-99882477D01*
X156921767Y-99880154D01*
X156921762Y-99880151D01*
X156724225Y-99788039D01*
X156724224Y-99788039D01*
X156719243Y-99785716D01*
X156713935Y-99784294D01*
X156713933Y-99784293D01*
X156503402Y-99727881D01*
X156503400Y-99727881D01*
X156498087Y-99726457D01*
X156270000Y-99706502D01*
X156041913Y-99726457D01*
X156036600Y-99727881D01*
X156036598Y-99727881D01*
X155826067Y-99784293D01*
X155826065Y-99784294D01*
X155820757Y-99785716D01*
X155815776Y-99788039D01*
X155815775Y-99788039D01*
X155618238Y-99880151D01*
X155618233Y-99880154D01*
X155613251Y-99882477D01*
X155508389Y-99955902D01*
X155430211Y-100010643D01*
X155430208Y-100010645D01*
X155425700Y-100013802D01*
X155263802Y-100175700D01*
X155260645Y-100180208D01*
X155260643Y-100180211D01*
X155215803Y-100244250D01*
X155132477Y-100363251D01*
X155130154Y-100368233D01*
X155130151Y-100368238D01*
X155114195Y-100402457D01*
X155067278Y-100455742D01*
X154999001Y-100475203D01*
X154931041Y-100454661D01*
X154885805Y-100402457D01*
X154869849Y-100368238D01*
X154869846Y-100368233D01*
X154867523Y-100363251D01*
X154784197Y-100244250D01*
X154739357Y-100180211D01*
X154739355Y-100180208D01*
X154736198Y-100175700D01*
X154574300Y-100013802D01*
X154569792Y-100010645D01*
X154569789Y-100010643D01*
X154491611Y-99955902D01*
X154386749Y-99882477D01*
X154381767Y-99880154D01*
X154381762Y-99880151D01*
X154184225Y-99788039D01*
X154184224Y-99788039D01*
X154179243Y-99785716D01*
X154173935Y-99784294D01*
X154173933Y-99784293D01*
X153963402Y-99727881D01*
X153963400Y-99727881D01*
X153958087Y-99726457D01*
X153730000Y-99706502D01*
X153501913Y-99726457D01*
X153496600Y-99727881D01*
X153496598Y-99727881D01*
X153286067Y-99784293D01*
X153286065Y-99784294D01*
X153280757Y-99785716D01*
X153275776Y-99788039D01*
X153275775Y-99788039D01*
X153078238Y-99880151D01*
X153078233Y-99880154D01*
X153073251Y-99882477D01*
X152968389Y-99955902D01*
X152890211Y-100010643D01*
X152890208Y-100010645D01*
X152885700Y-100013802D01*
X152723802Y-100175700D01*
X152720645Y-100180208D01*
X152720643Y-100180211D01*
X152675803Y-100244250D01*
X152592477Y-100363251D01*
X152590154Y-100368233D01*
X152590151Y-100368238D01*
X152574195Y-100402457D01*
X152527278Y-100455742D01*
X152459001Y-100475203D01*
X152391041Y-100454661D01*
X152345805Y-100402457D01*
X152329849Y-100368238D01*
X152329846Y-100368233D01*
X152327523Y-100363251D01*
X152244197Y-100244250D01*
X152199357Y-100180211D01*
X152199355Y-100180208D01*
X152196198Y-100175700D01*
X152034300Y-100013802D01*
X152029792Y-100010645D01*
X152029789Y-100010643D01*
X151951611Y-99955902D01*
X151846749Y-99882477D01*
X151841767Y-99880154D01*
X151841762Y-99880151D01*
X151644225Y-99788039D01*
X151644224Y-99788039D01*
X151639243Y-99785716D01*
X151633936Y-99784294D01*
X151633925Y-99784290D01*
X151582640Y-99770548D01*
X151522017Y-99733596D01*
X151490996Y-99669735D01*
X151499426Y-99599241D01*
X151526157Y-99559747D01*
X151535683Y-99550221D01*
X151550717Y-99537380D01*
X151560694Y-99530131D01*
X151567107Y-99525472D01*
X151595298Y-99491395D01*
X151603288Y-99482616D01*
X162104550Y-88981355D01*
X162166862Y-88947329D01*
X162218762Y-88946979D01*
X162398597Y-88983567D01*
X162403772Y-88983757D01*
X162403774Y-88983757D01*
X162616673Y-88991564D01*
X162616677Y-88991564D01*
X162621837Y-88991753D01*
X162626957Y-88991097D01*
X162626959Y-88991097D01*
X162838288Y-88964025D01*
X162838289Y-88964025D01*
X162843416Y-88963368D01*
X162882434Y-88951662D01*
X163052429Y-88900661D01*
X163052434Y-88900659D01*
X163057384Y-88899174D01*
X163257994Y-88800896D01*
X163439860Y-88671173D01*
X163598096Y-88513489D01*
X163728453Y-88332077D01*
X163735403Y-88318016D01*
X163825136Y-88136453D01*
X163825137Y-88136451D01*
X163827430Y-88131811D01*
X163892370Y-87918069D01*
X163921529Y-87696590D01*
X163921688Y-87690091D01*
X163923074Y-87633365D01*
X163923074Y-87633361D01*
X163923156Y-87630000D01*
X163904852Y-87407361D01*
X163850431Y-87190702D01*
X163761354Y-86985840D01*
X163640014Y-86798277D01*
X163489670Y-86633051D01*
X163485619Y-86629852D01*
X163485615Y-86629848D01*
X163318414Y-86497800D01*
X163318410Y-86497798D01*
X163314359Y-86494598D01*
X163118789Y-86386638D01*
X163113920Y-86384914D01*
X163113916Y-86384912D01*
X162913087Y-86313795D01*
X162913083Y-86313794D01*
X162908212Y-86312069D01*
X162903119Y-86311162D01*
X162903116Y-86311161D01*
X162693373Y-86273800D01*
X162693367Y-86273799D01*
X162688284Y-86272894D01*
X162614452Y-86271992D01*
X162470081Y-86270228D01*
X162470079Y-86270228D01*
X162464911Y-86270165D01*
X162244091Y-86303955D01*
X162031756Y-86373357D01*
X161833607Y-86476507D01*
X161829474Y-86479610D01*
X161829471Y-86479612D01*
X161746450Y-86541946D01*
X161654965Y-86610635D01*
X161500629Y-86772138D01*
X161393201Y-86929621D01*
X161338293Y-86974621D01*
X161267768Y-86982792D01*
X161204021Y-86951538D01*
X161183324Y-86927054D01*
X161102822Y-86802617D01*
X161102820Y-86802614D01*
X161100014Y-86798277D01*
X160949670Y-86633051D01*
X160945619Y-86629852D01*
X160945615Y-86629848D01*
X160778414Y-86497800D01*
X160778410Y-86497798D01*
X160774359Y-86494598D01*
X160578789Y-86386638D01*
X160573920Y-86384914D01*
X160573916Y-86384912D01*
X160373087Y-86313795D01*
X160373083Y-86313794D01*
X160368212Y-86312069D01*
X160363119Y-86311162D01*
X160363116Y-86311161D01*
X160153373Y-86273800D01*
X160153367Y-86273799D01*
X160148284Y-86272894D01*
X160074452Y-86271992D01*
X159930081Y-86270228D01*
X159930079Y-86270228D01*
X159924911Y-86270165D01*
X159704091Y-86303955D01*
X159491756Y-86373357D01*
X159293607Y-86476507D01*
X159289474Y-86479610D01*
X159289471Y-86479612D01*
X159206450Y-86541946D01*
X159114965Y-86610635D01*
X159111393Y-86614373D01*
X159033898Y-86695466D01*
X158972374Y-86730895D01*
X158901462Y-86727438D01*
X158843676Y-86686192D01*
X158824823Y-86652644D01*
X158783324Y-86541946D01*
X158774786Y-86526351D01*
X158698285Y-86424276D01*
X158685724Y-86411715D01*
X158583649Y-86335214D01*
X158568054Y-86326676D01*
X158447606Y-86281522D01*
X158432351Y-86277895D01*
X158381486Y-86272369D01*
X158374672Y-86272000D01*
X157752115Y-86272000D01*
X157736876Y-86276475D01*
X157735671Y-86277865D01*
X157734000Y-86285548D01*
X157734000Y-88967905D01*
X157713998Y-89036026D01*
X157697095Y-89057000D01*
X149634500Y-97119595D01*
X149572188Y-97153621D01*
X149545405Y-97156500D01*
X147883594Y-97156500D01*
X147815473Y-97136498D01*
X147768980Y-97082842D01*
X147758876Y-97012568D01*
X147788370Y-96947988D01*
X147794499Y-96941405D01*
X148982247Y-95753657D01*
X148990537Y-95746113D01*
X148997018Y-95742000D01*
X149043659Y-95692332D01*
X149046413Y-95689491D01*
X149066134Y-95669770D01*
X149068612Y-95666575D01*
X149076318Y-95657553D01*
X149101158Y-95631101D01*
X149106586Y-95625321D01*
X149116346Y-95607568D01*
X149127199Y-95591045D01*
X149134753Y-95581306D01*
X149139613Y-95575041D01*
X149157176Y-95534457D01*
X149162383Y-95523827D01*
X149183695Y-95485060D01*
X149185666Y-95477383D01*
X149185668Y-95477378D01*
X149188732Y-95465442D01*
X149195138Y-95446730D01*
X149200033Y-95435419D01*
X149203181Y-95428145D01*
X149204421Y-95420317D01*
X149204423Y-95420310D01*
X149210099Y-95384476D01*
X149212505Y-95372856D01*
X149221528Y-95337711D01*
X149221528Y-95337710D01*
X149223500Y-95330030D01*
X149223500Y-95309776D01*
X149225051Y-95290065D01*
X149226980Y-95277886D01*
X149228220Y-95270057D01*
X149224059Y-95226038D01*
X149223500Y-95214181D01*
X149223500Y-91754594D01*
X149243502Y-91686473D01*
X149260405Y-91665499D01*
X152401235Y-88524669D01*
X156122001Y-88524669D01*
X156122371Y-88531490D01*
X156127895Y-88582352D01*
X156131521Y-88597604D01*
X156176676Y-88718054D01*
X156185214Y-88733649D01*
X156261715Y-88835724D01*
X156274276Y-88848285D01*
X156376351Y-88924786D01*
X156391946Y-88933324D01*
X156512394Y-88978478D01*
X156527649Y-88982105D01*
X156578514Y-88987631D01*
X156585328Y-88988000D01*
X157207885Y-88988000D01*
X157223124Y-88983525D01*
X157224329Y-88982135D01*
X157226000Y-88974452D01*
X157226000Y-87902115D01*
X157221525Y-87886876D01*
X157220135Y-87885671D01*
X157212452Y-87884000D01*
X156140116Y-87884000D01*
X156124877Y-87888475D01*
X156123672Y-87889865D01*
X156122001Y-87897548D01*
X156122001Y-88524669D01*
X152401235Y-88524669D01*
X153568019Y-87357885D01*
X156122000Y-87357885D01*
X156126475Y-87373124D01*
X156127865Y-87374329D01*
X156135548Y-87376000D01*
X157207885Y-87376000D01*
X157223124Y-87371525D01*
X157224329Y-87370135D01*
X157226000Y-87362452D01*
X157226000Y-86290116D01*
X157221525Y-86274877D01*
X157220135Y-86273672D01*
X157212452Y-86272001D01*
X156585331Y-86272001D01*
X156578510Y-86272371D01*
X156527648Y-86277895D01*
X156512396Y-86281521D01*
X156391946Y-86326676D01*
X156376351Y-86335214D01*
X156274276Y-86411715D01*
X156261715Y-86424276D01*
X156185214Y-86526351D01*
X156176676Y-86541946D01*
X156131522Y-86662394D01*
X156127895Y-86677649D01*
X156122369Y-86728514D01*
X156122000Y-86735328D01*
X156122000Y-87357885D01*
X153568019Y-87357885D01*
X159564550Y-81361355D01*
X159626862Y-81327329D01*
X159678762Y-81326979D01*
X159858597Y-81363567D01*
X159863772Y-81363757D01*
X159863774Y-81363757D01*
X160076673Y-81371564D01*
X160076677Y-81371564D01*
X160081837Y-81371753D01*
X160086957Y-81371097D01*
X160086959Y-81371097D01*
X160298288Y-81344025D01*
X160298289Y-81344025D01*
X160303416Y-81343368D01*
X160349827Y-81329444D01*
X160512429Y-81280661D01*
X160512434Y-81280659D01*
X160517384Y-81279174D01*
X160717994Y-81180896D01*
X160899860Y-81051173D01*
X161058096Y-80893489D01*
X161188453Y-80712077D01*
X161189776Y-80713028D01*
X161236645Y-80669857D01*
X161306580Y-80657625D01*
X161372026Y-80685144D01*
G37*
G04 #@! TD.AperFunction*
G04 #@! TD*
M02*
