G04 #@! TF.GenerationSoftware,KiCad,Pcbnew,(6.0.7)*
G04 #@! TF.CreationDate,2024-02-28T00:28:35-05:00*
G04 #@! TF.ProjectId,DBA,4442412e-6b69-4636-9164-5f7063625858,rev?*
G04 #@! TF.SameCoordinates,Original*
G04 #@! TF.FileFunction,Legend,Bot*
G04 #@! TF.FilePolarity,Positive*
%FSLAX46Y46*%
G04 Gerber Fmt 4.6, Leading zero omitted, Abs format (unit mm)*
G04 Created by KiCad (PCBNEW (6.0.7)) date 2024-02-28 00:28:35*
%MOMM*%
%LPD*%
G01*
G04 APERTURE LIST*
%ADD10C,0.300000*%
%ADD11C,0.150000*%
%ADD12C,0.120000*%
%ADD13C,1.524000*%
G04 APERTURE END LIST*
D10*
X139234333Y-108770420D02*
X138641666Y-108770420D01*
X138387666Y-109701753D02*
X139234333Y-109701753D01*
X139234333Y-107923753D01*
X138387666Y-107923753D01*
X136609666Y-109532420D02*
X136694333Y-109617086D01*
X136948333Y-109701753D01*
X137117666Y-109701753D01*
X137371666Y-109617086D01*
X137541000Y-109447753D01*
X137625666Y-109278420D01*
X137710333Y-108939753D01*
X137710333Y-108685753D01*
X137625666Y-108347086D01*
X137541000Y-108177753D01*
X137371666Y-108008420D01*
X137117666Y-107923753D01*
X136948333Y-107923753D01*
X136694333Y-108008420D01*
X136609666Y-108093086D01*
X135847666Y-108770420D02*
X135255000Y-108770420D01*
X135001000Y-109701753D02*
X135847666Y-109701753D01*
X135847666Y-107923753D01*
X135001000Y-107923753D01*
X133477000Y-108516420D02*
X133477000Y-109701753D01*
X133900333Y-107839086D02*
X134323666Y-109109086D01*
X133223000Y-109109086D01*
X132461000Y-109701753D02*
X132122333Y-109701753D01*
X131953000Y-109617086D01*
X131868333Y-109532420D01*
X131699000Y-109278420D01*
X131614333Y-108939753D01*
X131614333Y-108262420D01*
X131699000Y-108093086D01*
X131783666Y-108008420D01*
X131953000Y-107923753D01*
X132291666Y-107923753D01*
X132461000Y-108008420D01*
X132545666Y-108093086D01*
X132630333Y-108262420D01*
X132630333Y-108685753D01*
X132545666Y-108855086D01*
X132461000Y-108939753D01*
X132291666Y-109024420D01*
X131953000Y-109024420D01*
X131783666Y-108939753D01*
X131699000Y-108855086D01*
X131614333Y-108685753D01*
X130090333Y-107923753D02*
X130429000Y-107923753D01*
X130598333Y-108008420D01*
X130683000Y-108093086D01*
X130852333Y-108347086D01*
X130937000Y-108685753D01*
X130937000Y-109363086D01*
X130852333Y-109532420D01*
X130767666Y-109617086D01*
X130598333Y-109701753D01*
X130259666Y-109701753D01*
X130090333Y-109617086D01*
X130005666Y-109532420D01*
X129921000Y-109363086D01*
X129921000Y-108939753D01*
X130005666Y-108770420D01*
X130090333Y-108685753D01*
X130259666Y-108601086D01*
X130598333Y-108601086D01*
X130767666Y-108685753D01*
X130852333Y-108770420D01*
X130937000Y-108939753D01*
X141097000Y-110786333D02*
X140081000Y-110786333D01*
X140589000Y-112564333D02*
X140589000Y-110786333D01*
X138811000Y-112479666D02*
X138980333Y-112564333D01*
X139319000Y-112564333D01*
X139488333Y-112479666D01*
X139573000Y-112310333D01*
X139573000Y-111633000D01*
X139488333Y-111463666D01*
X139319000Y-111379000D01*
X138980333Y-111379000D01*
X138811000Y-111463666D01*
X138726333Y-111633000D01*
X138726333Y-111802333D01*
X139573000Y-111971666D01*
X137202333Y-112564333D02*
X137202333Y-111633000D01*
X137287000Y-111463666D01*
X137456333Y-111379000D01*
X137795000Y-111379000D01*
X137964333Y-111463666D01*
X137202333Y-112479666D02*
X137371666Y-112564333D01*
X137795000Y-112564333D01*
X137964333Y-112479666D01*
X138049000Y-112310333D01*
X138049000Y-112141000D01*
X137964333Y-111971666D01*
X137795000Y-111887000D01*
X137371666Y-111887000D01*
X137202333Y-111802333D01*
X136355666Y-112564333D02*
X136355666Y-111379000D01*
X136355666Y-111548333D02*
X136271000Y-111463666D01*
X136101666Y-111379000D01*
X135847666Y-111379000D01*
X135678333Y-111463666D01*
X135593666Y-111633000D01*
X135593666Y-112564333D01*
X135593666Y-111633000D02*
X135509000Y-111463666D01*
X135339666Y-111379000D01*
X135085666Y-111379000D01*
X134916333Y-111463666D01*
X134831666Y-111633000D01*
X134831666Y-112564333D01*
X132799666Y-110786333D02*
X131614333Y-110786333D01*
X132376333Y-112564333D01*
X130852333Y-112564333D02*
X130513666Y-112564333D01*
X130344333Y-112479666D01*
X130259666Y-112395000D01*
X130090333Y-112141000D01*
X130005666Y-111802333D01*
X130005666Y-111125000D01*
X130090333Y-110955666D01*
X130175000Y-110871000D01*
X130344333Y-110786333D01*
X130683000Y-110786333D01*
X130852333Y-110871000D01*
X130937000Y-110955666D01*
X131021666Y-111125000D01*
X131021666Y-111548333D01*
X130937000Y-111717666D01*
X130852333Y-111802333D01*
X130683000Y-111887000D01*
X130344333Y-111887000D01*
X130175000Y-111802333D01*
X130090333Y-111717666D01*
X130005666Y-111548333D01*
X128312333Y-112564333D02*
X129328333Y-112564333D01*
X128820333Y-112564333D02*
X128820333Y-110786333D01*
X128989666Y-111040333D01*
X129159000Y-111209666D01*
X129328333Y-111294333D01*
X147574000Y-115426913D02*
X147574000Y-113648913D01*
X147150666Y-113648913D01*
X146896666Y-113733580D01*
X146727333Y-113902913D01*
X146642666Y-114072246D01*
X146558000Y-114410913D01*
X146558000Y-114664913D01*
X146642666Y-115003580D01*
X146727333Y-115172913D01*
X146896666Y-115342246D01*
X147150666Y-115426913D01*
X147574000Y-115426913D01*
X145118666Y-115342246D02*
X145288000Y-115426913D01*
X145626666Y-115426913D01*
X145796000Y-115342246D01*
X145880666Y-115172913D01*
X145880666Y-114495580D01*
X145796000Y-114326246D01*
X145626666Y-114241580D01*
X145288000Y-114241580D01*
X145118666Y-114326246D01*
X145034000Y-114495580D01*
X145034000Y-114664913D01*
X145880666Y-114834246D01*
X143594666Y-115342246D02*
X143764000Y-115426913D01*
X144102666Y-115426913D01*
X144272000Y-115342246D01*
X144356666Y-115172913D01*
X144356666Y-114495580D01*
X144272000Y-114326246D01*
X144102666Y-114241580D01*
X143764000Y-114241580D01*
X143594666Y-114326246D01*
X143510000Y-114495580D01*
X143510000Y-114664913D01*
X144356666Y-114834246D01*
X142748000Y-114241580D02*
X142748000Y-116019580D01*
X142748000Y-114326246D02*
X142578666Y-114241580D01*
X142240000Y-114241580D01*
X142070666Y-114326246D01*
X141986000Y-114410913D01*
X141901333Y-114580246D01*
X141901333Y-115088246D01*
X141986000Y-115257580D01*
X142070666Y-115342246D01*
X142240000Y-115426913D01*
X142578666Y-115426913D01*
X142748000Y-115342246D01*
X139192000Y-114495580D02*
X138938000Y-114580246D01*
X138853333Y-114664913D01*
X138768666Y-114834246D01*
X138768666Y-115088246D01*
X138853333Y-115257580D01*
X138938000Y-115342246D01*
X139107333Y-115426913D01*
X139784666Y-115426913D01*
X139784666Y-113648913D01*
X139192000Y-113648913D01*
X139022666Y-113733580D01*
X138938000Y-113818246D01*
X138853333Y-113987580D01*
X138853333Y-114156913D01*
X138938000Y-114326246D01*
X139022666Y-114410913D01*
X139192000Y-114495580D01*
X139784666Y-114495580D01*
X138006666Y-115426913D02*
X138006666Y-114241580D01*
X138006666Y-113648913D02*
X138091333Y-113733580D01*
X138006666Y-113818246D01*
X137922000Y-113733580D01*
X138006666Y-113648913D01*
X138006666Y-113818246D01*
X136906000Y-115426913D02*
X137075333Y-115342246D01*
X137160000Y-115257580D01*
X137244666Y-115088246D01*
X137244666Y-114580246D01*
X137160000Y-114410913D01*
X137075333Y-114326246D01*
X136906000Y-114241580D01*
X136652000Y-114241580D01*
X136482666Y-114326246D01*
X136398000Y-114410913D01*
X136313333Y-114580246D01*
X136313333Y-115088246D01*
X136398000Y-115257580D01*
X136482666Y-115342246D01*
X136652000Y-115426913D01*
X136906000Y-115426913D01*
X135551333Y-114749580D02*
X134196666Y-114749580D01*
X133434666Y-114918913D02*
X132588000Y-114918913D01*
X133604000Y-115426913D02*
X133011333Y-113648913D01*
X132418666Y-115426913D01*
X131064000Y-115342246D02*
X131233333Y-115426913D01*
X131572000Y-115426913D01*
X131741333Y-115342246D01*
X131826000Y-115257580D01*
X131910666Y-115088246D01*
X131910666Y-114580246D01*
X131826000Y-114410913D01*
X131741333Y-114326246D01*
X131572000Y-114241580D01*
X131233333Y-114241580D01*
X131064000Y-114326246D01*
X130048000Y-115426913D02*
X130217333Y-115342246D01*
X130302000Y-115257580D01*
X130386666Y-115088246D01*
X130386666Y-114580246D01*
X130302000Y-114410913D01*
X130217333Y-114326246D01*
X130048000Y-114241580D01*
X129794000Y-114241580D01*
X129624666Y-114326246D01*
X129540000Y-114410913D01*
X129455333Y-114580246D01*
X129455333Y-115088246D01*
X129540000Y-115257580D01*
X129624666Y-115342246D01*
X129794000Y-115426913D01*
X130048000Y-115426913D01*
X127931333Y-114241580D02*
X127931333Y-115426913D01*
X128693333Y-114241580D02*
X128693333Y-115172913D01*
X128608666Y-115342246D01*
X128439333Y-115426913D01*
X128185333Y-115426913D01*
X128016000Y-115342246D01*
X127931333Y-115257580D01*
X127169333Y-115342246D02*
X127000000Y-115426913D01*
X126661333Y-115426913D01*
X126492000Y-115342246D01*
X126407333Y-115172913D01*
X126407333Y-115088246D01*
X126492000Y-114918913D01*
X126661333Y-114834246D01*
X126915333Y-114834246D01*
X127084666Y-114749580D01*
X127169333Y-114580246D01*
X127169333Y-114495580D01*
X127084666Y-114326246D01*
X126915333Y-114241580D01*
X126661333Y-114241580D01*
X126492000Y-114326246D01*
X125899333Y-114241580D02*
X125222000Y-114241580D01*
X125645333Y-113648913D02*
X125645333Y-115172913D01*
X125560666Y-115342246D01*
X125391333Y-115426913D01*
X125222000Y-115426913D01*
X124629333Y-115426913D02*
X124629333Y-114241580D01*
X124629333Y-113648913D02*
X124714000Y-113733580D01*
X124629333Y-113818246D01*
X124544666Y-113733580D01*
X124629333Y-113648913D01*
X124629333Y-113818246D01*
X123020666Y-115342246D02*
X123190000Y-115426913D01*
X123528666Y-115426913D01*
X123698000Y-115342246D01*
X123782666Y-115257580D01*
X123867333Y-115088246D01*
X123867333Y-114580246D01*
X123782666Y-114410913D01*
X123698000Y-114326246D01*
X123528666Y-114241580D01*
X123190000Y-114241580D01*
X123020666Y-114326246D01*
X122343333Y-115342246D02*
X122174000Y-115426913D01*
X121835333Y-115426913D01*
X121666000Y-115342246D01*
X121581333Y-115172913D01*
X121581333Y-115088246D01*
X121666000Y-114918913D01*
X121835333Y-114834246D01*
X122089333Y-114834246D01*
X122258666Y-114749580D01*
X122343333Y-114580246D01*
X122343333Y-114495580D01*
X122258666Y-114326246D01*
X122089333Y-114241580D01*
X121835333Y-114241580D01*
X121666000Y-114326246D01*
D11*
G04 #@! TO.C,A1*
X123356666Y-65325714D02*
X123356666Y-65801904D01*
X123642380Y-65230476D02*
X122642380Y-65563809D01*
X123642380Y-65897142D01*
X123642380Y-66754285D02*
X123642380Y-66182857D01*
X123642380Y-66468571D02*
X122642380Y-66468571D01*
X122785238Y-66373333D01*
X122880476Y-66278095D01*
X122928095Y-66182857D01*
X136580571Y-76668380D02*
X136628190Y-76811238D01*
X136675809Y-76858857D01*
X136771047Y-76906476D01*
X136913904Y-76906476D01*
X137009142Y-76858857D01*
X137056761Y-76811238D01*
X137104380Y-76716000D01*
X137104380Y-76335047D01*
X136104380Y-76335047D01*
X136104380Y-76668380D01*
X136152000Y-76763619D01*
X136199619Y-76811238D01*
X136294857Y-76858857D01*
X136390095Y-76858857D01*
X136485333Y-76811238D01*
X136532952Y-76763619D01*
X136580571Y-76668380D01*
X136580571Y-76335047D01*
X136723428Y-77335047D02*
X136723428Y-78096952D01*
X128722380Y-57348571D02*
X127722380Y-57348571D01*
X128055714Y-57824761D02*
X128722380Y-57824761D01*
X128150952Y-57824761D02*
X128103333Y-57872380D01*
X128055714Y-57967619D01*
X128055714Y-58110476D01*
X128103333Y-58205714D01*
X128198571Y-58253333D01*
X128722380Y-58253333D01*
X128341428Y-58729523D02*
X128341428Y-59491428D01*
X128722380Y-59110476D02*
X127960476Y-59110476D01*
X140422380Y-71699619D02*
X140422380Y-71890095D01*
X140470000Y-71985333D01*
X140565238Y-72080571D01*
X140755714Y-72128190D01*
X141089047Y-72128190D01*
X141279523Y-72080571D01*
X141374761Y-71985333D01*
X141422380Y-71890095D01*
X141422380Y-71699619D01*
X141374761Y-71604380D01*
X141279523Y-71509142D01*
X141089047Y-71461523D01*
X140755714Y-71461523D01*
X140565238Y-71509142D01*
X140470000Y-71604380D01*
X140422380Y-71699619D01*
X140755714Y-72985333D02*
X141422380Y-72985333D01*
X140755714Y-72556761D02*
X141279523Y-72556761D01*
X141374761Y-72604380D01*
X141422380Y-72699619D01*
X141422380Y-72842476D01*
X141374761Y-72937714D01*
X141327142Y-72985333D01*
X140755714Y-73318666D02*
X140755714Y-73699619D01*
X140422380Y-73461523D02*
X141279523Y-73461523D01*
X141374761Y-73509142D01*
X141422380Y-73604380D01*
X141422380Y-73699619D01*
X141041428Y-74032952D02*
X141041428Y-74794857D01*
X129477095Y-56427619D02*
X129477095Y-55618095D01*
X129524714Y-55522857D01*
X129572333Y-55475238D01*
X129667571Y-55427619D01*
X129858047Y-55427619D01*
X129953285Y-55475238D01*
X130000904Y-55522857D01*
X130048523Y-55618095D01*
X130048523Y-56427619D01*
X130477095Y-55475238D02*
X130619952Y-55427619D01*
X130858047Y-55427619D01*
X130953285Y-55475238D01*
X131000904Y-55522857D01*
X131048523Y-55618095D01*
X131048523Y-55713333D01*
X131000904Y-55808571D01*
X130953285Y-55856190D01*
X130858047Y-55903809D01*
X130667571Y-55951428D01*
X130572333Y-55999047D01*
X130524714Y-56046666D01*
X130477095Y-56141904D01*
X130477095Y-56237142D01*
X130524714Y-56332380D01*
X130572333Y-56380000D01*
X130667571Y-56427619D01*
X130905666Y-56427619D01*
X131048523Y-56380000D01*
X131810428Y-55951428D02*
X131953285Y-55903809D01*
X132000904Y-55856190D01*
X132048523Y-55760952D01*
X132048523Y-55618095D01*
X132000904Y-55522857D01*
X131953285Y-55475238D01*
X131858047Y-55427619D01*
X131477095Y-55427619D01*
X131477095Y-56427619D01*
X131810428Y-56427619D01*
X131905666Y-56380000D01*
X131953285Y-56332380D01*
X132000904Y-56237142D01*
X132000904Y-56141904D01*
X131953285Y-56046666D01*
X131905666Y-55999047D01*
X131810428Y-55951428D01*
X131477095Y-55951428D01*
X133096142Y-56094285D02*
X133477095Y-56094285D01*
X133239000Y-56427619D02*
X133239000Y-55570476D01*
X133286619Y-55475238D01*
X133381857Y-55427619D01*
X133477095Y-55427619D01*
X133810428Y-55427619D02*
X133810428Y-56427619D01*
X134239000Y-55427619D02*
X134239000Y-55951428D01*
X134191380Y-56046666D01*
X134096142Y-56094285D01*
X133953285Y-56094285D01*
X133858047Y-56046666D01*
X133810428Y-55999047D01*
X134715190Y-55427619D02*
X134715190Y-56094285D01*
X134715190Y-56427619D02*
X134667571Y-56380000D01*
X134715190Y-56332380D01*
X134762809Y-56380000D01*
X134715190Y-56427619D01*
X134715190Y-56332380D01*
X135143761Y-55475238D02*
X135239000Y-55427619D01*
X135429476Y-55427619D01*
X135524714Y-55475238D01*
X135572333Y-55570476D01*
X135572333Y-55618095D01*
X135524714Y-55713333D01*
X135429476Y-55760952D01*
X135286619Y-55760952D01*
X135191380Y-55808571D01*
X135143761Y-55903809D01*
X135143761Y-55951428D01*
X135191380Y-56046666D01*
X135286619Y-56094285D01*
X135429476Y-56094285D01*
X135524714Y-56046666D01*
X136667571Y-56094285D02*
X136858047Y-55427619D01*
X137048523Y-55903809D01*
X137239000Y-55427619D01*
X137429476Y-56094285D01*
X138239000Y-55427619D02*
X138239000Y-55951428D01*
X138191380Y-56046666D01*
X138096142Y-56094285D01*
X137905666Y-56094285D01*
X137810428Y-56046666D01*
X138239000Y-55475238D02*
X138143761Y-55427619D01*
X137905666Y-55427619D01*
X137810428Y-55475238D01*
X137762809Y-55570476D01*
X137762809Y-55665714D01*
X137810428Y-55760952D01*
X137905666Y-55808571D01*
X138143761Y-55808571D01*
X138239000Y-55856190D01*
X138619952Y-56094285D02*
X138858047Y-55427619D01*
X139096142Y-56094285D02*
X138858047Y-55427619D01*
X138762809Y-55189523D01*
X138715190Y-55141904D01*
X138619952Y-55094285D01*
X141422380Y-57348571D02*
X140422380Y-57348571D01*
X140755714Y-57824761D02*
X141422380Y-57824761D01*
X140850952Y-57824761D02*
X140803333Y-57872380D01*
X140755714Y-57967619D01*
X140755714Y-58110476D01*
X140803333Y-58205714D01*
X140898571Y-58253333D01*
X141422380Y-58253333D01*
X141041428Y-58729523D02*
X141041428Y-59491428D01*
X137143761Y-73588571D02*
X137000904Y-73636190D01*
X136953285Y-73683809D01*
X136905666Y-73779047D01*
X136905666Y-73921904D01*
X136953285Y-74017142D01*
X137000904Y-74064761D01*
X137096142Y-74112380D01*
X137477095Y-74112380D01*
X137477095Y-73112380D01*
X137143761Y-73112380D01*
X137048523Y-73160000D01*
X137000904Y-73207619D01*
X136953285Y-73302857D01*
X136953285Y-73398095D01*
X137000904Y-73493333D01*
X137048523Y-73540952D01*
X137143761Y-73588571D01*
X137477095Y-73588571D01*
X136048523Y-74112380D02*
X136048523Y-73588571D01*
X136096142Y-73493333D01*
X136191380Y-73445714D01*
X136381857Y-73445714D01*
X136477095Y-73493333D01*
X136048523Y-74064761D02*
X136143761Y-74112380D01*
X136381857Y-74112380D01*
X136477095Y-74064761D01*
X136524714Y-73969523D01*
X136524714Y-73874285D01*
X136477095Y-73779047D01*
X136381857Y-73731428D01*
X136143761Y-73731428D01*
X136048523Y-73683809D01*
X135715190Y-73445714D02*
X135334238Y-73445714D01*
X135572333Y-73112380D02*
X135572333Y-73969523D01*
X135524714Y-74064761D01*
X135429476Y-74112380D01*
X135334238Y-74112380D01*
X135143761Y-73445714D02*
X134762809Y-73445714D01*
X135000904Y-73112380D02*
X135000904Y-73969523D01*
X134953285Y-74064761D01*
X134858047Y-74112380D01*
X134762809Y-74112380D01*
X133715190Y-73064761D02*
X134572333Y-74350476D01*
X132905666Y-74112380D02*
X133381857Y-74112380D01*
X133381857Y-73112380D01*
X132572333Y-74112380D02*
X132572333Y-73112380D01*
X132334238Y-73112380D01*
X132191380Y-73160000D01*
X132096142Y-73255238D01*
X132048523Y-73350476D01*
X132000904Y-73540952D01*
X132000904Y-73683809D01*
X132048523Y-73874285D01*
X132096142Y-73969523D01*
X132191380Y-74064761D01*
X132334238Y-74112380D01*
X132572333Y-74112380D01*
X131381857Y-73112380D02*
X131191380Y-73112380D01*
X131096142Y-73160000D01*
X131000904Y-73255238D01*
X130953285Y-73445714D01*
X130953285Y-73779047D01*
X131000904Y-73969523D01*
X131096142Y-74064761D01*
X131191380Y-74112380D01*
X131381857Y-74112380D01*
X131477095Y-74064761D01*
X131572333Y-73969523D01*
X131619952Y-73779047D01*
X131619952Y-73445714D01*
X131572333Y-73255238D01*
X131477095Y-73160000D01*
X131381857Y-73112380D01*
X127722380Y-71445619D02*
X127722380Y-71636095D01*
X127770000Y-71731333D01*
X127865238Y-71826571D01*
X128055714Y-71874190D01*
X128389047Y-71874190D01*
X128579523Y-71826571D01*
X128674761Y-71731333D01*
X128722380Y-71636095D01*
X128722380Y-71445619D01*
X128674761Y-71350380D01*
X128579523Y-71255142D01*
X128389047Y-71207523D01*
X128055714Y-71207523D01*
X127865238Y-71255142D01*
X127770000Y-71350380D01*
X127722380Y-71445619D01*
X128055714Y-72731333D02*
X128722380Y-72731333D01*
X128055714Y-72302761D02*
X128579523Y-72302761D01*
X128674761Y-72350380D01*
X128722380Y-72445619D01*
X128722380Y-72588476D01*
X128674761Y-72683714D01*
X128627142Y-72731333D01*
X128055714Y-73064666D02*
X128055714Y-73445619D01*
X127722380Y-73207523D02*
X128579523Y-73207523D01*
X128674761Y-73255142D01*
X128722380Y-73350380D01*
X128722380Y-73445619D01*
X128341428Y-73778952D02*
X128341428Y-74540857D01*
X128722380Y-74159904D02*
X127960476Y-74159904D01*
X132516571Y-76668380D02*
X132564190Y-76811238D01*
X132611809Y-76858857D01*
X132707047Y-76906476D01*
X132849904Y-76906476D01*
X132945142Y-76858857D01*
X132992761Y-76811238D01*
X133040380Y-76716000D01*
X133040380Y-76335047D01*
X132040380Y-76335047D01*
X132040380Y-76668380D01*
X132088000Y-76763619D01*
X132135619Y-76811238D01*
X132230857Y-76858857D01*
X132326095Y-76858857D01*
X132421333Y-76811238D01*
X132468952Y-76763619D01*
X132516571Y-76668380D01*
X132516571Y-76335047D01*
X132659428Y-77335047D02*
X132659428Y-78096952D01*
X133040380Y-77716000D02*
X132278476Y-77716000D01*
G04 #@! TO.C,BT1*
X136167714Y-93908571D02*
X136024857Y-93956190D01*
X135977238Y-94003809D01*
X135929619Y-94099047D01*
X135929619Y-94241904D01*
X135977238Y-94337142D01*
X136024857Y-94384761D01*
X136120095Y-94432380D01*
X136501047Y-94432380D01*
X136501047Y-93432380D01*
X136167714Y-93432380D01*
X136072476Y-93480000D01*
X136024857Y-93527619D01*
X135977238Y-93622857D01*
X135977238Y-93718095D01*
X136024857Y-93813333D01*
X136072476Y-93860952D01*
X136167714Y-93908571D01*
X136501047Y-93908571D01*
X135643904Y-93432380D02*
X135072476Y-93432380D01*
X135358190Y-94432380D02*
X135358190Y-93432380D01*
X134215333Y-94432380D02*
X134786761Y-94432380D01*
X134501047Y-94432380D02*
X134501047Y-93432380D01*
X134596285Y-93575238D01*
X134691523Y-93670476D01*
X134786761Y-93718095D01*
D12*
G04 #@! TO.C,A1*
X125730000Y-53340000D02*
X142748000Y-53340000D01*
X142748000Y-53340000D02*
X142748000Y-79248000D01*
X142748000Y-79248000D02*
X125730000Y-79248000D01*
X125730000Y-79248000D02*
X125730000Y-53340000D01*
G04 #@! TO.C,BT1*
X123068000Y-96190000D02*
X123068000Y-98690000D01*
X146660000Y-97440000D02*
X144160000Y-97440000D01*
X121818000Y-97440000D02*
X124318000Y-97440000D01*
G04 #@! TD*
D13*
G04 #@! TO.C,A1*
X140970000Y-76200000D03*
X140970000Y-55880000D03*
X138430000Y-76200000D03*
X128270000Y-76200000D03*
X130810000Y-76200000D03*
X128270000Y-55880000D03*
G04 #@! TD*
M02*
