G04 #@! TF.GenerationSoftware,KiCad,Pcbnew,(6.0.7)*
G04 #@! TF.CreationDate,2024-02-28T00:28:35-05:00*
G04 #@! TF.ProjectId,DBA,4442412e-6b69-4636-9164-5f7063625858,rev?*
G04 #@! TF.SameCoordinates,Original*
G04 #@! TF.FileFunction,Soldermask,Top*
G04 #@! TF.FilePolarity,Negative*
%FSLAX46Y46*%
G04 Gerber Fmt 4.6, Leading zero omitted, Abs format (unit mm)*
G04 Created by KiCad (PCBNEW (6.0.7)) date 2024-02-28 00:28:35*
%MOMM*%
%LPD*%
G01*
G04 APERTURE LIST*
%ADD10R,1.050000X1.500000*%
%ADD11O,1.050000X1.500000*%
%ADD12R,1.600000X1.600000*%
%ADD13O,1.600000X1.600000*%
%ADD14C,1.600000*%
%ADD15R,1.700000X1.700000*%
%ADD16O,1.700000X1.700000*%
%ADD17C,1.524000*%
G04 APERTURE END LIST*
D10*
G04 #@! TO.C,U2*
X104140000Y-93980000D03*
D11*
X105410000Y-93980000D03*
X106680000Y-93980000D03*
G04 #@! TD*
D12*
G04 #@! TO.C,U1*
X113090000Y-123880000D03*
D13*
X115630000Y-123880000D03*
X118170000Y-123880000D03*
X120710000Y-123880000D03*
X123250000Y-123880000D03*
X125790000Y-123880000D03*
X128330000Y-123880000D03*
X130870000Y-123880000D03*
X133410000Y-123880000D03*
X135950000Y-123880000D03*
X138490000Y-123880000D03*
X141030000Y-123880000D03*
X143570000Y-123880000D03*
X146110000Y-123880000D03*
X148650000Y-123880000D03*
X151190000Y-123880000D03*
X153730000Y-123880000D03*
X156270000Y-123880000D03*
X158810000Y-123880000D03*
X158810000Y-101020000D03*
X156270000Y-101020000D03*
X153730000Y-101020000D03*
X151190000Y-101020000D03*
X148650000Y-101020000D03*
X146110000Y-101020000D03*
X143570000Y-101020000D03*
X141030000Y-101020000D03*
X138490000Y-101020000D03*
X135950000Y-101020000D03*
X133410000Y-101020000D03*
X130870000Y-101020000D03*
X128330000Y-101020000D03*
X125790000Y-101020000D03*
X123250000Y-101020000D03*
X120710000Y-101020000D03*
X118170000Y-101020000D03*
X115630000Y-101020000D03*
X113090000Y-101020000D03*
G04 #@! TD*
D12*
G04 #@! TO.C,C2*
X106680000Y-116840000D03*
D14*
X104180000Y-116840000D03*
G04 #@! TD*
D15*
G04 #@! TO.C,J4*
X124460000Y-83820000D03*
G04 #@! TD*
D14*
G04 #@! TO.C,C1*
X104140000Y-101600000D03*
X106640000Y-101600000D03*
G04 #@! TD*
D15*
G04 #@! TO.C,MK2*
X98298000Y-109728000D03*
D16*
X100838000Y-109728000D03*
X103378000Y-109728000D03*
X105918000Y-109728000D03*
G04 #@! TD*
D15*
G04 #@! TO.C,MK1*
X157480000Y-87630000D03*
D16*
X160020000Y-87630000D03*
X162560000Y-87630000D03*
X162560000Y-80010000D03*
X160020000Y-80010000D03*
X157480000Y-80010000D03*
G04 #@! TD*
D15*
G04 #@! TO.C,J5*
X144780000Y-83820000D03*
G04 #@! TD*
D17*
G04 #@! TO.C,A1*
X140970000Y-76200000D03*
X140970000Y-55880000D03*
X138430000Y-76200000D03*
X128270000Y-76200000D03*
X130810000Y-76200000D03*
X128270000Y-55880000D03*
G04 #@! TD*
M02*
